<svg width="404" height="316" viewBox="0 0 404 316" fill="none" xmlns="http://www.w3.org/2000/svg">
    <path d="M267.098 176.927C276.479 177.476 280.334 170.129 284.907 164.137C297.75 147.315 310.531 130.439 322.981 113.326C327.336 107.341 331.548 101.485 339.056 97.9876C359.063 97.6495 378.292 97.2916 397.523 97.1105C398.635 97.1 366.189 142.16 361.665 147.853C341.743 172.919 342.881 172.488 322.5 188.5C332 196 344.657 217.402 344.657 217.402C344.657 217.402 383.058 278.567 403.282 310.62C383.481 310.956 364.069 310.942 344.657 310.928C336.14 309.861 332.748 302.971 328.92 296.784C315.472 275.049 288.823 231.426 288.823 231.426C288.823 231.426 286.016 227.03 284.917 224.689C281.601 217.63 275.893 214.822 268.385 214.956C265.221 215.013 256.977 214.956 256.977 214.956C256.974 245.642 256.988 280.419 256.999 311.105C256.999 311.105 257.02 311.001 256.596 310.987C237.579 310.973 218.987 310.973 199.957 310.973C199.957 207.093 199.957 103.974 199.957 0.855469C199.957 0.855469 199.983 0.968064 200.4 1.04445C219.599 1.07562 238.381 1.0304 257.163 0.985153C257.163 0.985153 257.008 0.979934 256.951 1.37874C256.895 60.1249 256.895 118.472 256.895 176.927C260.828 176.927 263.963 176.927 267.098 176.927Z" fill="#D4513F"/>
    <path d="M150.323 285.35C140.266 298.977 126.368 306.116 111.034 310.89C95.858 315.614 80.0817 316.01 64.5477 314.736C42.171 312.901 21.4937 305.383 3.29128 291.796C0.297381 289.561 0.377429 286.596 1.96044 284.057C5.71892 278.03 10.1329 272.412 13.9296 266.406C18.2872 259.513 23.8717 256.792 31.8395 259.49C37.2374 261.318 42.2161 264.405 47.3442 267.004C61.7202 274.29 76.452 278.227 92.3515 272.103C95.4267 270.918 98.9794 270.505 101.597 268.7C106.902 265.042 109.397 260.214 109.267 253.015C109.065 241.864 101.667 237.503 93.5952 234.282C79.4574 228.64 64.8175 224.269 50.4859 219.095C36.8068 214.156 24.3203 207.008 16.2417 194.585C11.844 187.823 7.71331 180.454 7.89397 171.675C7.98131 167.43 6.9641 163.167 6.98363 158.914C7.02889 149.063 10.5269 140.055 13.8831 130.932C17.0598 122.298 24.0859 116.79 30.1077 110.952C35.3988 105.822 43.3158 103.248 50.3041 100.05C67.3793 92.2368 85.4606 93.5407 103.505 94.6432C118.205 95.5414 131.823 99.7175 144.27 107.605C149.718 111.057 155.226 114.444 160.401 118.273C161.371 118.99 161.675 122.123 160.952 123.362C157.07 130.005 152.896 136.49 148.569 142.856C145.009 148.092 137.739 149.609 131.216 147.109C121.738 143.477 112.309 139.66 102.65 136.573C92.157 133.219 81.7226 134.782 71.8362 139.25C60.6496 144.304 59.3788 161.052 69.3643 169.008C74.8593 173.387 81.1117 175.695 87.9902 177.127C93.0098 178.172 97.6968 180.754 102.589 182.49C106.879 184.013 111.394 184.975 115.552 186.779C124.579 190.695 134.432 193.663 142.152 199.424C155.411 209.318 164 222.439 164.162 240.295C164.3 255.456 161.288 269.32 153.031 282.009C152.319 283.102 151.363 284.036 150.323 285.35Z" fill="#273597"/>
    </svg>
    