<?xml version="1.0" encoding="UTF-8"?>
<!DOCTYPE svg PUBLIC "-//W3C//DTD SVG 1.1//EN" "http://www.w3.org/Graphics/SVG/1.1/DTD/svg11.dtd">
<svg xmlns="http://www.w3.org/2000/svg" version="1.1" width="1920px" height="246px" style="shape-rendering:geometricPrecision; text-rendering:geometricPrecision; image-rendering:optimizeQuality; fill-rule:evenodd; clip-rule:evenodd" xmlns:xlink="http://www.w3.org/1999/xlink">
<g><path style="opacity:0.964" fill="#000000" d="M 168.5,69.5 C 160.457,61.8157 150.791,57.3157 139.5,56C 104.858,51.5694 80.0245,65.0694 65,96.5C 53.388,133.009 63.5547,161.509 95.5,182C 123.45,194.395 149.45,191.229 173.5,172.5C 180.141,181.642 186.975,190.642 194,199.5C 195.874,201.569 196.874,203.902 197,206.5C 153.513,239.413 109.013,240.913 63.5,211C 26.9887,181.133 12.8221,142.967 21,96.5C 36.9787,48.1052 70.1454,20.2719 120.5,13C 148.934,12.7002 174.434,21.2002 197,38.5C 197.315,39.9078 196.982,41.2411 196,42.5C 188.324,52.5311 180.658,62.5311 173,72.5C 171.357,71.6854 169.857,70.6854 168.5,69.5 Z"/></g>
<g><path style="opacity:0.959" fill="#000000" d="M 252.5,13.5 C 300.833,13.5 349.167,13.5 397.5,13.5C 397.5,27.8333 397.5,42.1667 397.5,56.5C 363.167,56.5 328.833,56.5 294.5,56.5C 294.5,71.8333 294.5,87.1667 294.5,102.5C 322.5,102.5 350.5,102.5 378.5,102.5C 378.824,116.745 378.49,130.912 377.5,145C 349.835,145.5 322.169,145.667 294.5,145.5C 294.5,160.167 294.5,174.833 294.5,189.5C 328.833,189.5 363.167,189.5 397.5,189.5C 397.5,203.833 397.5,218.167 397.5,232.5C 349.167,232.5 300.833,232.5 252.5,232.5C 252.5,159.5 252.5,86.5 252.5,13.5 Z"/></g>
<g><path style="opacity:0.955" fill="#000000" d="M 452.5,13.5 C 466.504,13.3334 480.504,13.5001 494.5,14C 528,61.5 561.5,109 595,156.5C 595.5,108.834 595.667,61.1678 595.5,13.5C 609.911,12.8609 624.078,13.5276 638,15.5C 638.5,87.8326 638.667,160.166 638.5,232.5C 623.818,232.833 609.152,232.499 594.5,231.5C 561.667,183.833 528.833,136.167 496,88.5C 495.5,136.499 495.333,184.499 495.5,232.5C 481.167,232.5 466.833,232.5 452.5,232.5C 452.5,159.5 452.5,86.5 452.5,13.5 Z"/></g>
<g><path style="opacity:0.956" fill="#000000" d="M 692.5,13.5 C 749.167,13.5 805.833,13.5 862.5,13.5C 862.5,27.8333 862.5,42.1667 862.5,56.5C 841.167,56.5 819.833,56.5 798.5,56.5C 798.667,114.834 798.5,173.168 798,231.5C 783.912,232.49 769.745,232.824 755.5,232.5C 755.5,173.833 755.5,115.167 755.5,56.5C 734.167,56.5 712.833,56.5 691.5,56.5C 691.184,42.0882 691.518,27.7548 692.5,13.5 Z"/></g>
<g><path style="opacity:0.967" fill="#000000" d="M 917.5,13.5 C 931.167,13.5 944.833,13.5 958.5,13.5C 958.333,57.8346 958.5,102.168 959,146.5C 963.885,172.884 979.719,187.217 1006.5,189.5C 1032.39,187.447 1048.22,173.78 1054,148.5C 1054.33,103.833 1054.67,59.1667 1055,14.5C 1068.75,13.5101 1082.59,13.1767 1096.5,13.5C 1096.67,60.8345 1096.5,108.168 1096,155.5C 1087.38,197.783 1061.88,222.949 1019.5,231C 980.193,234.429 950.026,219.596 929,186.5C 923.175,175.867 919.508,164.534 918,152.5C 917.5,106.168 917.333,59.8345 917.5,13.5 Z"/></g>
<g><path style="opacity:0.97" fill="#000000" d="M 1151.5,13.5 C 1181.5,13.3334 1211.5,13.5 1241.5,14C 1298.51,17.6793 1323.35,47.846 1316,104.5C 1312.65,120.371 1304.82,133.537 1292.5,144C 1285.35,149.747 1277.68,154.747 1269.5,159C 1285.7,183.031 1301.7,207.198 1317.5,231.5C 1301.18,232.666 1284.84,232.833 1268.5,232C 1252.3,208.637 1236.3,185.137 1220.5,161.5C 1211.52,160.502 1202.52,160.168 1193.5,160.5C 1193.67,184.169 1193.5,207.836 1193,231.5C 1179.25,232.49 1165.41,232.823 1151.5,232.5C 1151.5,159.5 1151.5,86.5 1151.5,13.5 Z M 1193.5,56.5 C 1212.17,56.3334 1230.84,56.5001 1249.5,57C 1266.29,60.4591 1275.29,70.7924 1276.5,88C 1275.84,102.342 1268.84,112.009 1255.5,117C 1234.87,118.428 1214.21,118.928 1193.5,118.5C 1193.5,97.8333 1193.5,77.1667 1193.5,56.5 Z"/></g>
<g><path style="opacity:0.96" fill="#000000" d="M 1718.5,13.5 C 1751.23,14.935 1774.07,30.6017 1787,60.5C 1792.76,77.2622 1792.09,93.9289 1785,110.5C 1768.28,137.211 1750.78,163.378 1732.5,189C 1753.17,189.333 1773.83,189.667 1794.5,190C 1795.66,203.758 1795.82,217.592 1795,231.5C 1747.23,232.83 1699.4,232.83 1651.5,231.5C 1679.81,190.695 1708.31,150.028 1737,109.5C 1743.2,101.597 1747.37,92.7638 1749.5,83C 1746.42,61.9135 1734.42,53.2468 1713.5,57C 1700.74,62.685 1694.74,72.5184 1695.5,86.5C 1681.5,86.5 1667.5,86.5 1653.5,86.5C 1655.85,44.8206 1677.52,20.4873 1718.5,13.5 Z"/></g>
<g><path style="opacity:0.949" fill="#000000" d="M 1836.5,13.5 C 1858.17,13.5 1879.83,13.5 1901.5,13.5C 1901.5,86.5 1901.5,159.5 1901.5,232.5C 1887.17,232.5 1872.83,232.5 1858.5,232.5C 1858.5,173.833 1858.5,115.167 1858.5,56.5C 1851.17,56.5 1843.83,56.5 1836.5,56.5C 1836.5,42.1667 1836.5,27.8333 1836.5,13.5 Z"/></g>
<g><path style="opacity:0.964" fill="#000000" d="M 1339.5,14.5 C 1355.84,14.3334 1372.17,14.5001 1388.5,15C 1408.46,43.7464 1428.29,72.5797 1448,101.5C 1467.38,72.5802 1486.88,43.7469 1506.5,15C 1522.84,14.1671 1539.18,14.3337 1555.5,15.5C 1527.25,57.6731 1498.75,99.6731 1470,141.5C 1469.83,171.738 1469.33,201.905 1468.5,232C 1454.59,232.823 1440.76,232.656 1427,231.5C 1426.67,201.833 1426.33,172.167 1426,142.5C 1396.53,100.208 1367.69,57.5409 1339.5,14.5 Z"/></g>
<g><path style="opacity:0.004" fill="#000000" d="M 168.5,69.5 C 167.833,70.1667 167.833,70.1667 168.5,69.5 Z"/></g>
</svg>
