<?xml version="1.0" encoding="UTF-8"?>
<!DOCTYPE svg PUBLIC "-//W3C//DTD SVG 1.1//EN" "http://www.w3.org/Graphics/SVG/1.1/DTD/svg11.dtd">
<svg xmlns="http://www.w3.org/2000/svg" version="1.1" width="620px" height="434px" style="shape-rendering:geometricPrecision; text-rendering:geometricPrecision; image-rendering:optimizeQuality; fill-rule:evenodd; clip-rule:evenodd" xmlns:xlink="http://www.w3.org/1999/xlink">
<g><path style="opacity:1" fill="#0a0606" d="M 138.5,-0.5 C 252.5,-0.5 366.5,-0.5 480.5,-0.5C 481.209,0.403972 482.209,0.737305 483.5,0.5C 487.21,2.13566 491.21,2.80233 495.5,2.5C 528.239,7.87921 555.905,22.8792 578.5,47.5C 579.419,50.0892 581.086,52.0892 583.5,53.5C 602.351,74.5461 613.684,99.2127 617.5,127.5C 618.338,141.149 618.671,154.816 618.5,168.5C 614.065,207.56 597.065,239.894 567.5,265.5C 564.391,266.708 561.391,268.208 558.5,270C 556.963,271.11 556.297,272.61 556.5,274.5C 540.955,286.068 525.289,286.235 509.5,275C 503.258,269.429 497.758,263.262 493,256.5C 470.027,224.693 446.86,193.026 423.5,161.5C 449.648,158.532 468.148,145.198 479,121.5C 480.157,117.218 480.99,112.884 481.5,108.5C 481.234,104.429 481.567,100.429 482.5,96.5C 481.365,94.2011 480.032,92.0344 478.5,90C 479.711,88.8869 479.711,87.7202 478.5,86.5C 475.909,84.6201 473.409,82.6201 471,80.5C 470.517,79.552 470.351,78.552 470.5,77.5C 468.784,77.3713 467.117,77.038 465.5,76.5C 458.712,72.6328 451.378,70.2994 443.5,69.5C 435.35,68.5073 427.017,68.1739 418.5,68.5C 418.168,127.002 418.501,185.336 419.5,243.5C 420.757,249.089 424.09,252.756 429.5,254.5C 429.5,255.833 428.833,256.5 427.5,256.5C 404.913,256.508 382.246,256.508 359.5,256.5C 364.868,254.632 368.368,250.965 370,245.5C 370.667,184.5 370.667,123.5 370,62.5C 367.912,57.8796 364.746,54.2129 360.5,51.5C 378,51.1667 395.5,50.8333 413,50.5C 433.526,50.3906 454.026,50.8906 474.5,52C 488.553,53.5337 500.553,59.0337 510.5,68.5C 510.427,70.0269 511.094,71.0269 512.5,71.5C 518.019,77.1962 522.019,83.8629 524.5,91.5C 525.509,96.2829 526.509,100.95 527.5,105.5C 528.814,114.404 526.98,122.738 522,130.5C 514.873,140.126 506.04,147.793 495.5,153.5C 491.236,154.614 486.903,155.781 482.5,157C 481.695,158.113 481.028,159.279 480.5,160.5C 477.191,161.663 473.857,162.83 470.5,164C 471.756,164.417 472.423,165.25 472.5,166.5C 472.738,168.404 473.738,169.738 475.5,170.5C 475.427,172.027 476.094,173.027 477.5,173.5C 492.211,192.211 506.544,211.211 520.5,230.5C 521.08,232.749 522.413,234.415 524.5,235.5C 528.933,240.166 533.267,245 537.5,250C 541.667,252.086 545.667,251.753 549.5,249C 568.805,230.232 581.805,207.732 588.5,181.5C 589.924,179.485 590.59,177.152 590.5,174.5C 590.448,172.097 590.781,169.764 591.5,167.5C 592.904,162.401 593.571,157.068 593.5,151.5C 593.498,148.314 593.165,145.314 592.5,142.5C 591.545,137.58 590.878,132.58 590.5,127.5C 590.648,120.854 588.981,114.854 585.5,109.5C 562.946,57.5126 523.279,28.346 466.5,22C 361.833,21.3333 257.167,21.3333 152.5,22C 99.0725,27.7687 60.5725,54.602 37,102.5C 15.3739,166.281 31.5405,218.114 85.5,258C 106.881,271.46 130.214,279.127 155.5,281C 258.5,281.667 361.5,281.667 464.5,281C 470.567,280.627 476.567,279.793 482.5,278.5C 489.57,284.243 496.903,289.576 504.5,294.5C 504.414,295.496 504.748,296.329 505.5,297C 502.058,297.309 499.058,298.476 496.5,300.5C 490.939,301.731 485.272,302.564 479.5,303C 365.793,303.829 252.127,303.663 138.5,302.5C 133.731,301.111 128.731,300.444 123.5,300.5C 123.5,299.5 123.5,298.5 123.5,297.5C 121.136,296.471 118.803,296.471 116.5,297.5C 110.134,294.652 103.467,292.985 96.5,292.5C 62.1982,279.374 36.0316,256.708 18,224.5C 14.2802,217.061 11.1136,209.394 8.5,201.5C 8.66008,196.434 8.16008,191.434 7,186.5C 5.98398,187.634 5.31732,187.301 5,185.5C 4.51933,181.469 3.85266,177.469 3,173.5C 2.61742,172.944 2.11742,172.611 1.5,172.5C 0.896889,168.727 0.230222,165.061 -0.5,161.5C -0.5,154.833 -0.5,148.167 -0.5,141.5C 6.45632,79.4335 38.4563,35.6002 95.5,10C 109.549,4.73693 123.882,1.23693 138.5,-0.5 Z"/></g>
<g><path style="opacity:1" fill="#4f372b" d="M 483.5,0.5 C 486.545,0.703635 489.379,0.703635 492,0.5C 493.302,1.0848 494.469,1.75147 495.5,2.5C 491.21,2.80233 487.21,2.13566 483.5,0.5 Z"/></g>
<g><path style="opacity:1" fill="#080505" d="M 236.5,49.5 C 237.166,58.327 237.5,67.327 237.5,76.5C 237.498,85.859 236.832,94.859 235.5,103.5C 222.446,87.1488 206.113,75.4822 186.5,68.5C 185.192,67.7677 183.858,66.9344 182.5,66C 172.486,63.2678 162.486,62.6011 152.5,64C 151.829,64.9862 151.829,66.1529 152.5,67.5C 134.156,74.344 121.656,87.0106 115,105.5C 103.669,136.185 103.669,166.852 115,197.5C 126.753,227.232 148.586,240.399 180.5,237C 201.752,234.812 220.419,226.812 236.5,213C 240.542,208.397 244.209,203.564 247.5,198.5C 250.004,201.504 252.004,204.837 253.5,208.5C 232.348,241.675 201.848,259.009 162,260.5C 114.864,258.12 81.8636,235.453 63,192.5C 61.6476,189.28 60.8143,185.947 60.5,182.5C 60.4828,176.36 59.6495,170.36 58,164.5C 57.5003,156.841 57.3336,149.174 57.5,141.5C 63.6129,94.8861 88.9463,64.0527 133.5,49C 156.132,43.5734 178.466,44.5734 200.5,52C 206.406,54.7881 212.406,57.2881 218.5,59.5C 225.377,57.7286 231.377,54.3952 236.5,49.5 Z"/></g>
<g><path style="opacity:0.808" fill="#8a7567" d="M 578.5,47.5 C 580.914,48.9108 582.581,50.9108 583.5,53.5C 581.086,52.0892 579.419,50.0892 578.5,47.5 Z"/></g>
<g><path style="opacity:0.063" fill="#ae8d6d" d="M 261.5,51.5 C 261.833,52.1667 262.167,52.8333 262.5,53.5C 260.775,53.1575 260.275,52.1575 261,50.5C 261.399,50.7284 261.565,51.0618 261.5,51.5 Z"/></g>
<g><path style="opacity:0.773" fill="#1f1516" d="M 261.5,51.5 C 283.5,51.5 305.5,51.5 327.5,51.5C 327.167,52.1667 326.833,52.8333 326.5,53.5C 324.5,55.1667 322.5,56.8333 320.5,58.5C 319.047,57.1751 319.381,56.3418 321.5,56C 320.692,55.6924 320.025,55.1924 319.5,54.5C 303.85,53.2149 288.183,52.7149 272.5,53C 270.412,54.2995 269.079,56.1329 268.5,58.5C 266.817,56.4864 264.817,54.8198 262.5,53.5C 262.167,52.8333 261.833,52.1667 261.5,51.5 Z"/></g>
<g><path style="opacity:0.035" fill="#a37a67" d="M 326.5,53.5 C 326.833,52.8333 327.167,52.1667 327.5,51.5C 327.56,50.9569 327.893,50.6236 328.5,50.5C 329.639,52.3957 328.973,53.3957 326.5,53.5 Z"/></g>
<g><path style="opacity:1" fill="#000000" d="M 320.5,58.5 C 320.672,59.4916 320.338,60.1583 319.5,60.5C 318.167,90.6593 317.5,121.159 317.5,152C 317.5,182.669 317.833,213.169 318.5,243.5C 318.5,243.833 318.5,244.167 318.5,244.5C 317.026,247.327 317.36,249.827 319.5,252C 318.5,252.333 317.5,252.667 316.5,253C 305.787,253.189 295.12,253.689 284.5,254.5C 279.717,253.596 275.05,253.263 270.5,253.5C 272.138,252.295 272.471,250.962 271.5,249.5C 272.792,247.333 273.625,245 274,242.5C 274.5,182.834 274.667,123.168 274.5,63.5C 273.5,63.5 272.5,63.5 271.5,63.5C 271.047,61.4348 270.047,59.7682 268.5,58.5C 269.079,56.1329 270.412,54.2995 272.5,53C 288.183,52.7149 303.85,53.2149 319.5,54.5C 320.025,55.1924 320.692,55.6924 321.5,56C 319.381,56.3418 319.047,57.1751 320.5,58.5 Z"/></g>
<g><path style="opacity:0.995" fill="#271916" d="M 186.5,68.5 C 175.221,65.3556 163.887,65.0223 152.5,67.5C 151.829,66.1529 151.829,64.9862 152.5,64C 162.486,62.6011 172.486,63.2678 182.5,66C 183.858,66.9344 185.192,67.7677 186.5,68.5 Z"/></g>
<g><path style="opacity:0.42" fill="#af9897" d="M 510.5,68.5 C 511.906,68.9731 512.573,69.9731 512.5,71.5C 511.094,71.0269 510.427,70.0269 510.5,68.5 Z"/></g>
<g><path style="opacity:0.421" fill="#5c5355" d="M 443.5,69.5 C 435.5,69.5 427.5,69.5 419.5,69.5C 419.5,127.5 419.5,185.5 419.5,243.5C 418.501,185.336 418.168,127.002 418.5,68.5C 427.017,68.1739 435.35,68.5073 443.5,69.5 Z"/></g>
<g><path style="opacity:0.816" fill="#2a201d" d="M 319.5,60.5 C 318.506,121.776 318.173,182.776 318.5,243.5C 317.833,213.169 317.5,182.669 317.5,152C 317.5,121.159 318.167,90.6593 319.5,60.5 Z"/></g>
<g><path style="opacity:1" fill="#2d201c" d="M 465.5,76.5 C 467.117,77.038 468.784,77.3713 470.5,77.5C 470.351,78.552 470.517,79.552 471,80.5C 473.409,82.6201 475.909,84.6201 478.5,86.5C 479.711,87.7202 479.711,88.8869 478.5,90C 480.032,92.0344 481.365,94.2011 482.5,96.5C 481.567,100.429 481.234,104.429 481.5,108.5C 480.454,95.7407 475.12,85.074 465.5,76.5 Z"/></g>
<g><path style="opacity:0.323" fill="#795d4e" d="M 236.5,49.5 C 236.56,48.9569 236.893,48.6236 237.5,48.5C 238.833,67.8333 238.833,87.1667 237.5,106.5C 236.575,105.643 235.908,104.643 235.5,103.5C 236.832,94.859 237.498,85.859 237.5,76.5C 237.5,67.327 237.166,58.327 236.5,49.5 Z"/></g>
<g><path style="opacity:0.875" fill="#68524a" d="M 524.5,91.5 C 526.956,95.7378 527.956,100.404 527.5,105.5C 526.509,100.95 525.509,96.2829 524.5,91.5 Z"/></g>
<g><path style="opacity:0.99" fill="#483833" d="M 585.5,109.5 C 588.981,114.854 590.648,120.854 590.5,127.5C 588.545,121.692 586.878,115.692 585.5,109.5 Z"/></g>
<g><path style="opacity:0.723" fill="#4a403d" d="M 617.5,127.5 C 618.167,129.833 618.833,132.167 619.5,134.5C 619.5,145.833 619.5,157.167 619.5,168.5C 619.167,168.5 618.833,168.5 618.5,168.5C 618.671,154.816 618.338,141.149 617.5,127.5 Z"/></g>
<g><path style="opacity:0.999" fill="#17100f" d="M 254.5,161.5 C 247.5,162.833 240.5,162.833 233.5,161.5C 236.989,155.861 240.489,150.195 244,144.5C 248.023,149.888 251.523,155.554 254.5,161.5 Z"/></g>
<g><path style="opacity:0.247" fill="#99887f" d="M 347.5,149.5 C 348.906,149.973 349.573,150.973 349.5,152.5C 348.094,152.027 347.427,151.027 347.5,149.5 Z"/></g>
<g><path style="opacity:0.502" fill="#50413d" d="M 592.5,142.5 C 593.165,145.314 593.498,148.314 593.5,151.5C 593.571,157.068 592.904,162.401 591.5,167.5C 592.185,159.184 592.518,150.851 592.5,142.5 Z"/></g>
<g><path style="opacity:1" fill="#150f0e" d="M 347.5,149.5 C 347.427,151.027 348.094,152.027 349.5,152.5C 351.653,154.794 353.32,157.46 354.5,160.5C 351.572,161.82 348.239,162.486 344.5,162.5C 340.982,162.498 337.649,162.165 334.5,161.5C 336.845,155.979 339.845,150.812 343.5,146C 345.741,145.876 347.074,147.042 347.5,149.5 Z"/></g>
<g><path style="opacity:1" fill="#25110a" d="M 268.5,58.5 C 270.047,59.7682 271.047,61.4348 271.5,63.5C 272.662,122.096 272.829,180.763 272,239.5C 271.802,241.382 271.302,243.048 270.5,244.5C 270.667,184.166 270.5,123.832 270,63.5C 269.392,61.8455 268.892,60.1789 268.5,58.5 Z"/></g>
<g><path style="opacity:1" fill="#3c2d28" d="M 495.5,153.5 C 490.93,156.616 485.93,158.95 480.5,160.5C 481.028,159.279 481.695,158.113 482.5,157C 486.903,155.781 491.236,154.614 495.5,153.5 Z"/></g>
<g><path style="opacity:0.31" fill="#756567" d="M 233.5,161.5 C 240.5,162.833 247.5,162.833 254.5,161.5C 255.043,161.56 255.376,161.893 255.5,162.5C 247.833,163.833 240.167,163.833 232.5,162.5C 232.624,161.893 232.957,161.56 233.5,161.5 Z"/></g>
<g><path style="opacity:0.316" fill="#766562" d="M 354.5,160.5 C 355.478,160.811 356.145,161.478 356.5,162.5C 348.833,163.833 341.167,163.833 333.5,162.5C 333.624,161.893 333.957,161.56 334.5,161.5C 337.649,162.165 340.982,162.498 344.5,162.5C 348.239,162.486 351.572,161.82 354.5,160.5 Z"/></g>
<g><path style="opacity:0.979" fill="#382c25" d="M 57.5,141.5 C 57.3336,149.174 57.5003,156.841 58,164.5C 59.6495,170.36 60.4828,176.36 60.5,182.5C 58.7808,177.758 57.6141,172.758 57,167.5C 56.1764,158.657 56.3431,149.99 57.5,141.5 Z"/></g>
<g><path style="opacity:0.486" fill="#978171" d="M 472.5,166.5 C 474.262,167.262 475.262,168.596 475.5,170.5C 473.738,169.738 472.738,168.404 472.5,166.5 Z"/></g>
<g><path style="opacity:0.682" fill="#876f6c" d="M 475.5,170.5 C 476.906,170.973 477.573,171.973 477.5,173.5C 476.094,173.027 475.427,172.027 475.5,170.5 Z"/></g>
<g><path style="opacity:0.443" fill="#825f4d" d="M 590.5,174.5 C 590.59,177.152 589.924,179.485 588.5,181.5C 588.41,178.848 589.076,176.515 590.5,174.5 Z"/></g>
<g><path style="opacity:1" fill="#2a1f1b" d="M 1.5,172.5 C 2.11742,172.611 2.61742,172.944 3,173.5C 3.85266,177.469 4.51933,181.469 5,185.5C 5.31732,187.301 5.98398,187.634 7,186.5C 8.16008,191.434 8.66008,196.434 8.5,201.5C 4.77869,192.278 2.44536,182.611 1.5,172.5 Z"/></g>
<g><path style="opacity:0.933" fill="#6f5f5c" d="M 520.5,230.5 C 522.587,231.585 523.92,233.251 524.5,235.5C 522.413,234.415 521.08,232.749 520.5,230.5 Z"/></g>
<g><path style="opacity:0.998" fill="#130b09" d="M 271.5,63.5 C 272.5,63.5 273.5,63.5 274.5,63.5C 274.667,123.168 274.5,182.834 274,242.5C 273.625,245 272.792,247.333 271.5,249.5C 272.471,250.962 272.138,252.295 270.5,253.5C 275.05,253.263 279.717,253.596 284.5,254.5C 295.12,253.689 305.787,253.189 316.5,253C 317.5,252.667 318.5,252.333 319.5,252C 317.36,249.827 317.026,247.327 318.5,244.5C 320.415,249.417 323.748,253.083 328.5,255.5C 328.158,256.338 327.492,256.672 326.5,256.5C 304.531,256.216 282.864,256.549 261.5,257.5C 260.833,257.167 260.167,256.833 259.5,256.5C 262.086,254.957 264.586,253.291 267,251.5C 268.213,249.075 269.379,246.741 270.5,244.5C 271.302,243.048 271.802,241.382 272,239.5C 272.829,180.763 272.662,122.096 271.5,63.5 Z"/></g>
<g><path style="opacity:0.141" fill="#9b7870" d="M 328.5,255.5 C 329.289,255.783 329.956,256.283 330.5,257C 328.934,257.765 327.601,257.598 326.5,256.5C 327.492,256.672 328.158,256.338 328.5,255.5 Z"/></g>
<g><path style="opacity:0.078" fill="#9f7551" d="M 429.5,254.5 C 430.643,254.908 431.643,255.575 432.5,256.5C 430.701,257.788 429.035,257.788 427.5,256.5C 428.833,256.5 429.5,255.833 429.5,254.5 Z"/></g>
<g><path style="opacity:1" fill="#3a2d27" d="M 567.5,265.5 C 564.424,269.207 560.758,272.207 556.5,274.5C 556.297,272.61 556.963,271.11 558.5,270C 561.391,268.208 564.391,266.708 567.5,265.5 Z"/></g>
<g><path style="opacity:0.995" fill="#291d1b" d="M 96.5,292.5 C 103.467,292.985 110.134,294.652 116.5,297.5C 118.803,296.471 121.136,296.471 123.5,297.5C 123.5,298.5 123.5,299.5 123.5,300.5C 113.979,299.208 104.979,296.541 96.5,292.5 Z"/></g>
<g><path style="opacity:1" fill="#3a2822" d="M 504.5,294.5 C 506.96,294.699 509.293,295.365 511.5,296.5C 506.703,298.616 501.703,299.949 496.5,300.5C 499.058,298.476 502.058,297.309 505.5,297C 504.748,296.329 504.414,295.496 504.5,294.5 Z"/></g>
<g><path style="opacity:0.957" fill="#453d35" d="M 123.5,300.5 C 128.731,300.444 133.731,301.111 138.5,302.5C 133.269,302.556 128.269,301.889 123.5,300.5 Z"/></g>
<g><path style="opacity:1" fill="#0e0a09" d="M 143.5,426.5 C 144.209,427.404 145.209,427.737 146.5,427.5C 146.5,429.167 146.5,430.833 146.5,432.5C 146.5,432.833 146.5,433.167 146.5,433.5C 145.833,433.5 145.167,433.5 144.5,433.5C 143.5,432.167 142.5,432.167 141.5,433.5C 140.833,433.5 140.167,433.5 139.5,433.5C 133.167,432.167 126.833,432.167 120.5,433.5C 120.167,433.5 119.833,433.5 119.5,433.5C 109.22,418.553 98.5535,403.887 87.5,389.5C 89.8567,387.902 92.5234,386.902 95.5,386.5C 106.22,381.883 109.72,373.883 106,362.5C 104.5,359.667 102.333,357.5 99.5,356C 94.5805,354.75 89.5805,354.25 84.5,354.5C 82.5316,362.433 81.865,370.766 82.5,379.5C 82.7501,394.502 83.0834,409.502 83.5,424.5C 83.6243,426.582 84.6243,428.082 86.5,429C 84.2199,429.212 82.2199,430.045 80.5,431.5C 79.6143,430.675 79.281,429.675 79.5,428.5C 74.2931,427.865 69.1264,427.865 64,428.5C 62.6244,428.316 61.7911,427.649 61.5,426.5C 62.2216,426.082 62.7216,425.416 63,424.5C 64.4963,403.188 64.8296,381.854 64,360.5C 63.8078,358.423 63.3078,356.423 62.5,354.5C 59.5949,353.625 56.5949,353.292 53.5,353.5C 53.5,351.5 53.5,349.5 53.5,347.5C 73.5028,347.333 93.5028,347.5 113.5,348C 126.134,352.785 129.968,361.618 125,374.5C 120.93,381.231 115.097,385.731 107.5,388C 118.212,400.376 128.545,413.043 138.5,426C 140.134,426.494 141.801,426.66 143.5,426.5 Z"/></g>
<g><path style="opacity:1" fill="#0e0908" d="M 196.5,355.5 C 190.167,354.167 183.833,354.167 177.5,355.5C 178.833,356.833 178.833,358.167 177.5,359.5C 176.507,367.984 176.174,376.651 176.5,385.5C 178.833,385.5 181.167,385.5 183.5,385.5C 189.138,384.78 194.804,384.447 200.5,384.5C 200.737,381.788 200.737,379.288 200.5,377C 202.25,375.681 204.25,375.181 206.5,375.5C 206.5,384.5 206.5,393.5 206.5,402.5C 204.708,402.634 203.042,402.301 201.5,401.5C 201.216,398.746 200.549,396.08 199.5,393.5C 198.583,392.873 197.583,392.539 196.5,392.5C 190.021,391.509 183.354,391.176 176.5,391.5C 176.5,402.5 176.5,413.5 176.5,424.5C 186.833,425.833 197.167,425.833 207.5,424.5C 208.568,423.566 209.901,423.232 211.5,423.5C 212.649,423.209 213.316,422.376 213.5,421C 214.159,418.538 214.493,416.038 214.5,413.5C 215.708,412.766 217.041,412.433 218.5,412.5C 218.5,418.833 218.5,425.167 218.5,431.5C 212.355,432.49 206.022,432.823 199.5,432.5C 197.189,430.932 194.522,430.098 191.5,430C 186.167,429.833 180.833,429.667 175.5,429.5C 169.532,429.568 163.699,430.234 158,431.5C 157.5,431.167 157,430.833 156.5,430.5C 157.263,429.281 158.263,428.281 159.5,427.5C 159.145,426.478 158.478,425.811 157.5,425.5C 158.683,403.998 158.683,382.498 157.5,361C 157.167,358.833 156.833,356.667 156.5,354.5C 153.026,353.989 149.693,353.156 146.5,352C 147.38,350.644 147.714,349.144 147.5,347.5C 170.833,347.5 194.167,347.5 217.5,347.5C 217.522,354.115 216.855,360.615 215.5,367C 213.888,367.72 212.388,367.554 211,366.5C 210.75,363.15 209.917,359.983 208.5,357C 204.509,356.358 200.509,355.858 196.5,355.5 Z"/></g>
<g><path style="opacity:1" fill="#120c0a" d="M 314.5,426.5 C 317.287,427.477 320.287,427.81 323.5,427.5C 323.923,429.781 323.256,431.448 321.5,432.5C 309.322,432.172 297.322,432.505 285.5,433.5C 285.167,433.5 284.833,433.5 284.5,433.5C 283.833,432.167 283.167,432.167 282.5,433.5C 282.167,433.5 281.833,433.5 281.5,433.5C 280.489,431.598 280.322,429.598 281,427.5C 283.74,426.718 286.574,426.218 289.5,426C 289.957,425.586 290.291,425.086 290.5,424.5C 288.293,419.209 286.293,413.875 284.5,408.5C 279.376,407.171 273.876,406.505 268,406.5C 262.323,406.501 256.823,406.834 251.5,407.5C 251.095,410.715 250.095,413.715 248.5,416.5C 247.326,417.514 246.66,418.847 246.5,420.5C 246.5,421.167 246.5,421.833 246.5,422.5C 245.549,423.919 245.216,425.585 245.5,427.5C 248.167,427.5 250.833,427.5 253.5,427.5C 253.5,429.167 253.5,430.833 253.5,432.5C 244.651,432.174 235.984,432.507 227.5,433.5C 227.167,433.5 226.833,433.5 226.5,433.5C 226.158,432.662 225.492,432.328 224.5,432.5C 223.699,430.958 223.366,429.292 223.5,427.5C 227.042,427.813 230.375,427.479 233.5,426.5C 245.055,402.683 255.555,378.349 265,353.5C 266.954,346.63 271.288,344.63 278,347.5C 289.186,372.049 300.186,396.715 311,421.5C 311.697,423.584 312.864,425.251 314.5,426.5 Z M 266.5,370.5 C 271.577,379.357 275.911,388.69 279.5,398.5C 271.5,399.833 263.5,399.833 255.5,398.5C 259.741,389.358 263.407,380.025 266.5,370.5 Z"/></g>
<g><path style="opacity:1" fill="#2d2222" d="M 360.5,369.5 C 360.805,364.238 360.471,359.072 359.5,354C 360.833,353.333 361.833,352.333 362.5,351C 353.562,349.452 344.562,349.119 335.5,350C 334.376,350.249 333.376,350.749 332.5,351.5C 335.276,352.515 337.943,353.515 340.5,354.5C 337.167,354.167 333.833,353.833 330.5,353.5C 330.5,351.5 330.5,349.5 330.5,347.5C 344.167,347.5 357.833,347.5 371.5,347.5C 371.5,349.5 371.5,351.5 371.5,353.5C 368.117,353.257 364.951,353.924 362,355.5C 361.826,360.351 361.326,365.018 360.5,369.5 Z"/></g>
<g><path style="opacity:1" fill="#120d0c" d="M 392.5,347.5 C 421.167,347.5 449.833,347.5 478.5,347.5C 478.5,349.833 478.5,352.167 478.5,354.5C 478.207,358.437 478.54,362.27 479.5,366C 478.751,367.734 478.251,369.567 478,371.5C 476.293,372.138 474.46,372.138 472.5,371.5C 472.5,368.833 472.5,366.167 472.5,363.5C 472.829,360.772 472.163,358.438 470.5,356.5C 461.827,356.334 453.16,356.5 444.5,357C 444.746,360.349 444.746,363.849 444.5,367.5C 443.503,386.659 443.17,405.993 443.5,425.5C 433.895,427.803 424.228,429.803 414.5,431.5C 413.614,430.675 413.281,429.675 413.5,428.5C 416.187,428.664 418.854,428.497 421.5,428C 422.056,427.617 422.389,427.117 422.5,426.5C 423.167,426.167 423.833,425.833 424.5,425.5C 425.117,425.389 425.617,425.056 426,424.5C 426.83,401.33 426.663,378.33 425.5,355.5C 416.918,356.47 408.251,356.803 399.5,356.5C 399.125,361.27 398.792,366.27 398.5,371.5C 396.473,371.662 394.473,371.495 392.5,371C 391.402,370.23 391.402,369.397 392.5,368.5C 392.5,361.5 392.5,354.5 392.5,347.5 Z"/></g>
<g><path style="opacity:1" fill="#0e0808" d="M 510.5,348.5 C 514.598,351.265 517.598,354.932 519.5,359.5C 519.427,361.027 520.094,362.027 521.5,362.5C 526.167,370.5 530.833,378.5 535.5,386.5C 537.519,385.245 539.519,384.911 541.5,385.5C 540.253,387.042 540.253,388.542 541.5,390C 540.552,390.483 539.552,390.649 538.5,390.5C 538.333,401.505 538.5,412.505 539,423.5C 539.383,424.056 539.883,424.389 540.5,424.5C 541.5,425.167 542.5,425.833 543.5,426.5C 546.507,428.175 549.84,428.841 553.5,428.5C 553.5,429.5 553.5,430.5 553.5,431.5C 547.662,430.916 541.829,430.25 536,429.5C 526.825,430.145 517.658,430.812 508.5,431.5C 508.5,430.167 508.5,428.833 508.5,427.5C 511.059,427.802 513.393,427.468 515.5,426.5C 516.93,426.579 518.264,426.246 519.5,425.5C 520.665,415.851 520.832,406.184 520,396.5C 513.463,383.818 505.963,371.818 497.5,360.5C 497.166,357.832 495.833,355.832 493.5,354.5C 495.829,352.528 498.162,350.528 500.5,348.5C 503.629,347.522 506.962,347.522 510.5,348.5 Z"/></g>
<g><path style="opacity:1" fill="#070302" d="M 360.5,369.5 C 360.601,382.738 360.601,396.072 360.5,409.5C 360.5,414.833 360.5,420.167 360.5,425.5C 368.203,425.232 375.87,425.565 383.5,426.5C 387.344,425.018 391.344,424.185 395.5,424C 396.252,423.329 396.586,422.496 396.5,421.5C 396.707,418.759 397.707,416.426 399.5,414.5C 400.947,413.378 401.947,411.878 402.5,410C 403.793,409.51 405.127,409.343 406.5,409.5C 406.5,410.5 406.5,411.5 406.5,412.5C 405.448,412.351 404.448,412.517 403.5,413C 404.747,414.494 404.747,415.994 403.5,417.5C 402.808,416.975 402.308,416.308 402,415.5C 401.626,416.416 401.126,417.25 400.5,418C 402.321,420.456 402.988,423.289 402.5,426.5C 402.5,426.833 402.5,427.167 402.5,427.5C 401.767,429.294 400.767,430.961 399.5,432.5C 394.968,432.182 390.634,432.515 386.5,433.5C 384.833,433.5 383.167,433.5 381.5,433.5C 365.342,432.504 349.009,432.17 332.5,432.5C 331.167,432.5 329.833,432.5 328.5,432.5C 328.5,430.5 328.5,428.5 328.5,426.5C 330.833,426.5 333.167,426.5 335.5,426.5C 338.079,426.917 340.246,426.25 342,424.5C 342.83,401.663 342.663,378.996 341.5,356.5C 341.167,355.833 340.833,355.167 340.5,354.5C 337.943,353.515 335.276,352.515 332.5,351.5C 333.376,350.749 334.376,350.249 335.5,350C 344.562,349.119 353.562,349.452 362.5,351C 361.833,352.333 360.833,353.333 359.5,354C 360.471,359.072 360.805,364.238 360.5,369.5 Z"/></g>
<g><path style="opacity:1" fill="#211716" d="M 510.5,348.5 C 506.962,347.522 503.629,347.522 500.5,348.5C 498.162,350.528 495.829,352.528 493.5,354.5C 495.833,355.832 497.166,357.832 497.5,360.5C 493.532,356.041 488.532,354.375 482.5,355.5C 482.5,354.167 482.5,352.833 482.5,351.5C 482.5,351.167 482.5,350.833 482.5,350.5C 490.379,348.849 498.379,347.182 506.5,345.5C 507.901,346.521 509.235,347.521 510.5,348.5 Z"/></g>
<g><path style="opacity:0.259" fill="#ac8f70" d="M 478.5,347.5 C 479.833,348.5 481.167,349.5 482.5,350.5C 482.5,350.833 482.5,351.167 482.5,351.5C 480.57,351.771 479.236,352.771 478.5,354.5C 478.5,352.167 478.5,349.833 478.5,347.5 Z"/></g>
<g><path style="opacity:0.396" fill="#726566" d="M 177.5,355.5 C 183.833,354.167 190.167,354.167 196.5,355.5C 190.067,355.823 183.734,355.823 177.5,355.5 Z"/></g>
<g><path style="opacity:0.259" fill="#a29280" d="M 470.5,356.5 C 472.163,358.438 472.829,360.772 472.5,363.5C 471.388,361.401 470.721,359.067 470.5,356.5 Z"/></g>
<g><path style="opacity:0.999" fill="#211816" d="M 548.5,380.5 C 547.094,380.973 546.427,381.973 546.5,383.5C 544.437,386.618 542.604,389.952 541,393.5C 540.5,403.828 540.334,414.161 540.5,424.5C 539.883,424.389 539.383,424.056 539,423.5C 538.5,412.505 538.333,401.505 538.5,390.5C 539.552,390.649 540.552,390.483 541.5,390C 540.253,388.542 540.253,387.042 541.5,385.5C 539.519,384.911 537.519,385.245 535.5,386.5C 543.27,373.805 550.936,360.971 558.5,348C 562.152,347.501 565.818,347.335 569.5,347.5C 569.657,348.873 569.49,350.207 569,351.5C 561.915,361.069 555.082,370.736 548.5,380.5 Z"/></g>
<g><path style="opacity:0.333" fill="#766f70" d="M 84.5,354.5 C 83.8607,362.933 83.194,371.266 82.5,379.5C 81.865,370.766 82.5316,362.433 84.5,354.5 Z"/></g>
<g><path style="opacity:0.119" fill="#84807f" d="M 392.5,347.5 C 392.5,354.5 392.5,361.5 392.5,368.5C 391.816,362.099 391.15,355.599 390.5,349C 391.044,348.283 391.711,347.783 392.5,347.5 Z"/></g>
<g><path style="opacity:0.38" fill="#806f5d" d="M 519.5,359.5 C 520.906,359.973 521.573,360.973 521.5,362.5C 520.094,362.027 519.427,361.027 519.5,359.5 Z"/></g>
<g><path style="opacity:0.112" fill="#928180" d="M 177.5,359.5 C 177.5,367.833 177.5,376.167 177.5,384.5C 179.735,384.205 181.735,384.539 183.5,385.5C 181.167,385.5 178.833,385.5 176.5,385.5C 176.174,376.651 176.507,367.984 177.5,359.5 Z"/></g>
<g><path style="opacity:0.09" fill="#857e7d" d="M 341.5,356.5 C 342.663,378.996 342.83,401.663 342,424.5C 340.246,426.25 338.079,426.917 335.5,426.5C 337.518,425.953 339.351,424.953 341,423.5C 341.478,400.863 341.645,378.53 341.5,356.5 Z"/></g>
<g><path style="opacity:0.039" fill="#b29c80" d="M 548.5,380.5 C 548.573,382.027 547.906,383.027 546.5,383.5C 546.427,381.973 547.094,380.973 548.5,380.5 Z"/></g>
<g><path style="opacity:0.082" fill="#928789" d="M 425.5,355.5 C 426.663,378.33 426.83,401.33 426,424.5C 425.617,425.056 425.117,425.389 424.5,425.5C 425.48,402.212 425.813,378.878 425.5,355.5 Z"/></g>
<g><path style="opacity:0.333" fill="#81563b" d="M 95.5,386.5 C 92.5234,386.902 89.8567,387.902 87.5,389.5C 86.596,388.791 86.2627,387.791 86.5,386.5C 89.5,386.5 92.5,386.5 95.5,386.5 Z"/></g>
<g><path style="opacity:0.147" fill="#8b8281" d="M 206.5,375.5 C 207.494,384.652 207.827,393.985 207.5,403.5C 205.473,403.662 203.473,403.495 201.5,403C 200.262,402.31 200.262,401.81 201.5,401.5C 203.042,402.301 204.708,402.634 206.5,402.5C 206.5,393.5 206.5,384.5 206.5,375.5 Z"/></g>
<g><path style="opacity:0.195" fill="#817d7c" d="M 251.5,407.5 C 256.823,406.834 262.323,406.501 268,406.5C 273.876,406.505 279.376,407.171 284.5,408.5C 273.581,407.523 262.581,407.19 251.5,407.5 Z"/></g>
<g><path style="opacity:0.105" fill="#8e7c75" d="M 196.5,392.5 C 190.167,392.5 183.833,392.5 177.5,392.5C 177.5,403.167 177.5,413.833 177.5,424.5C 177.167,424.5 176.833,424.5 176.5,424.5C 176.5,413.5 176.5,402.5 176.5,391.5C 183.354,391.176 190.021,391.509 196.5,392.5 Z"/></g>
<g><path style="opacity:1" fill="#412e27" d="M 402.5,426.5 C 402.988,423.289 402.321,420.456 400.5,418C 401.126,417.25 401.626,416.416 402,415.5C 402.308,416.308 402.808,416.975 403.5,417.5C 404.747,415.994 404.747,414.494 403.5,413C 404.448,412.517 405.448,412.351 406.5,412.5C 406.5,411.5 406.5,410.5 406.5,409.5C 405.127,409.343 403.793,409.51 402.5,410C 401.947,411.878 400.947,413.378 399.5,414.5C 400.371,411.888 401.037,409.221 401.5,406.5C 403.833,406.5 406.167,406.5 408.5,406.5C 407.072,413.441 405.072,420.107 402.5,426.5 Z"/></g>
<g><path style="opacity:0.998" fill="#4c312b" d="M 218.5,431.5 C 218.5,425.167 218.5,418.833 218.5,412.5C 217.041,412.433 215.708,412.766 214.5,413.5C 214.461,412.244 214.961,411.244 216,410.5C 217.356,411.38 218.856,411.714 220.5,411.5C 220.182,418.346 219.515,425.013 218.5,431.5 Z"/></g>
<g><path style="opacity:0.208" fill="#9c826d" d="M 248.5,416.5 C 248.771,418.38 248.104,419.713 246.5,420.5C 246.66,418.847 247.326,417.514 248.5,416.5 Z"/></g>
<g><path style="opacity:0.416" fill="#785d48" d="M 214.5,413.5 C 214.493,416.038 214.159,418.538 213.5,421C 213.316,422.376 212.649,423.209 211.5,423.5C 212.21,419.975 213.21,416.642 214.5,413.5 Z"/></g>
<g><path style="opacity:0.999" fill="#221511" d="M 444.5,367.5 C 444.139,386.862 444.639,406.195 446,425.5C 450.08,426.3 454.247,426.8 458.5,427C 459.783,429.223 460.117,431.39 459.5,433.5C 459.167,433.5 458.833,433.5 458.5,433.5C 443.167,432.167 427.833,432.167 412.5,433.5C 412.167,433.5 411.833,433.5 411.5,433.5C 410.232,431.33 410.232,429.163 411.5,427C 415.152,426.501 418.818,426.335 422.5,426.5C 422.389,427.117 422.056,427.617 421.5,428C 418.854,428.497 416.187,428.664 413.5,428.5C 413.281,429.675 413.614,430.675 414.5,431.5C 424.228,429.803 433.895,427.803 443.5,425.5C 443.17,405.993 443.503,386.659 444.5,367.5 Z"/></g>
<g><path style="opacity:0.275" fill="#705c54" d="M 207.5,424.5 C 197.167,425.833 186.833,425.833 176.5,424.5C 176.833,424.5 177.167,424.5 177.5,424.5C 187.344,424.32 197.344,424.32 207.5,424.5 Z"/></g>
<g><path style="opacity:1" fill="#4d413d" d="M 360.5,409.5 C 361.487,414.305 361.821,419.305 361.5,424.5C 369.84,424.666 378.173,424.5 386.5,424C 390.139,423.974 393.472,423.14 396.5,421.5C 396.586,422.496 396.252,423.329 395.5,424C 391.344,424.185 387.344,425.018 383.5,426.5C 375.87,425.565 368.203,425.232 360.5,425.5C 360.5,420.167 360.5,414.833 360.5,409.5 Z"/></g>
<g><path style="opacity:1" fill="#3b2823" d="M 581.5,398.5 C 591.631,397.364 598.798,401.364 603,410.5C 604.399,420.866 600.232,428.032 590.5,432C 579.234,433.953 572.067,429.453 569,418.5C 568.369,408.749 572.536,402.083 581.5,398.5 Z M 595.5,424.5 C 595.011,423.005 594.345,421.671 593.5,420.5C 593.52,418.857 592.853,417.524 591.5,416.5C 591.957,415.702 592.624,415.369 593.5,415.5C 595.272,412.087 594.605,409.254 591.5,407C 587.551,405.816 583.551,405.482 579.5,406C 578.525,411.741 578.192,417.575 578.5,423.5C 577.262,423.81 577.262,424.31 578.5,425C 580.433,425.251 582.266,425.751 584,426.5C 584.497,423.854 584.664,421.187 584.5,418.5C 587.776,419.122 589.109,421.122 588.5,424.5C 589.671,425.345 591.005,426.011 592.5,426.5C 592.389,427.117 592.056,427.617 591.5,428C 578.167,430.332 572.334,424.832 574,411.5C 577.165,404.268 582.665,401.435 590.5,403C 598.037,407.032 600.537,413.198 598,421.5C 597.148,422.571 596.315,423.571 595.5,424.5 Z M 587.5,410.5 C 589.035,413.33 588.035,414.663 584.5,414.5C 584.5,413.167 584.5,411.833 584.5,410.5C 585.5,410.5 586.5,410.5 587.5,410.5 Z"/></g>
<g><path style="opacity:0.086" fill="#bb7f64" d="M 593.5,420.5 C 594.345,421.671 595.011,423.005 595.5,424.5C 594.833,424.5 594.5,424.833 594.5,425.5C 593.508,425.328 592.842,425.662 592.5,426.5C 591.005,426.011 589.671,425.345 588.5,424.5C 590.167,424.5 591.833,424.5 593.5,424.5C 593.5,423.167 593.5,421.833 593.5,420.5 Z"/></g>
<g><path style="opacity:0.118" fill="#ab7c6d" d="M 584.5,418.5 C 584.664,421.187 584.497,423.854 584,426.5C 582.266,425.751 580.433,425.251 578.5,425C 577.262,424.31 577.262,423.81 578.5,423.5C 580.042,424.301 581.708,424.634 583.5,424.5C 583.205,422.265 583.539,420.265 584.5,418.5 Z"/></g>
<g><path style="opacity:0.996" fill="#1e1411" d="M 593.5,415.5 C 592.624,415.369 591.957,415.702 591.5,416.5C 592.853,417.524 593.52,418.857 593.5,420.5C 593.5,421.833 593.5,423.167 593.5,424.5C 591.833,424.5 590.167,424.5 588.5,424.5C 589.109,421.122 587.776,419.122 584.5,418.5C 583.539,420.265 583.205,422.265 583.5,424.5C 581.708,424.634 580.042,424.301 578.5,423.5C 578.192,417.575 578.525,411.741 579.5,406C 583.551,405.482 587.551,405.816 591.5,407C 594.605,409.254 595.272,412.087 593.5,415.5 Z M 587.5,410.5 C 589.035,413.33 588.035,414.663 584.5,414.5C 584.5,413.167 584.5,411.833 584.5,410.5C 585.5,410.5 586.5,410.5 587.5,410.5 Z"/></g>
<g><path style="opacity:0.137" fill="#af7f5f" d="M 587.5,410.5 C 586.5,410.5 585.5,410.5 584.5,410.5C 584.5,411.833 584.5,413.167 584.5,414.5C 583.549,413.081 583.216,411.415 583.5,409.5C 585.099,409.232 586.432,409.566 587.5,410.5 Z"/></g>
<g><path style="opacity:0.188" fill="#975d3f" d="M 233.5,426.5 C 230.375,427.479 227.042,427.813 223.5,427.5C 223.366,429.292 223.699,430.958 224.5,432.5C 224.5,432.833 224.5,433.167 224.5,433.5C 224.167,433.5 223.833,433.5 223.5,433.5C 222.631,431.283 222.298,428.95 222.5,426.5C 226.167,426.5 229.833,426.5 233.5,426.5 Z"/></g>
<g><path style="opacity:1" fill="#261611" d="M 83.5,424.5 C 86.5275,426.14 89.8609,426.974 93.5,427C 94.768,429.163 94.768,431.33 93.5,433.5C 92.5,433.5 91.5,433.5 90.5,433.5C 90.1667,432.167 89.8333,432.167 89.5,433.5C 89.1667,433.5 88.8333,433.5 88.5,433.5C 78.5,432.167 68.5,432.167 58.5,433.5C 58.1667,433.5 57.8333,433.5 57.5,433.5C 56.8333,432.167 56.1667,432.167 55.5,433.5C 54.8333,433.5 54.1667,433.5 53.5,433.5C 53.5,431.167 53.5,428.833 53.5,426.5C 56.1667,426.5 58.8333,426.5 61.5,426.5C 61.7911,427.649 62.6244,428.316 64,428.5C 69.1264,427.865 74.2931,427.865 79.5,428.5C 79.281,429.675 79.6143,430.675 80.5,431.5C 82.2199,430.045 84.2199,429.212 86.5,429C 84.6243,428.082 83.6243,426.582 83.5,424.5 Z"/></g>
<g><path style="opacity:0.122" fill="#997056" d="M 143.5,426.5 C 144.833,426.5 146.167,426.5 147.5,426.5C 147.795,428.735 147.461,430.735 146.5,432.5C 146.5,430.833 146.5,429.167 146.5,427.5C 145.209,427.737 144.209,427.404 143.5,426.5 Z"/></g>
<g><path style="opacity:0.999" fill="#4a2a26" d="M 246.5,422.5 C 246.5,423.833 246.5,425.167 246.5,426.5C 249.518,426.335 252.518,426.502 255.5,427C 256.768,429.163 256.768,431.33 255.5,433.5C 255.167,433.5 254.833,433.5 254.5,433.5C 254.5,432.833 254.167,432.5 253.5,432.5C 253.5,430.833 253.5,429.167 253.5,427.5C 250.833,427.5 248.167,427.5 245.5,427.5C 245.216,425.585 245.549,423.919 246.5,422.5 Z"/></g>
<g><path style="opacity:0.012" fill="#df9c68" d="M 151.5,428.5 C 151.5,429.833 151.5,431.167 151.5,432.5C 150.732,431.737 150.232,430.737 150,429.5C 149.346,430.696 148.846,430.696 148.5,429.5C 149.325,428.614 150.325,428.281 151.5,428.5 Z"/></g>
<g><path style="opacity:0.675" fill="#81665b" d="M 402.5,427.5 C 402.783,428.216 403.116,429.049 403.5,430C 402.692,431.706 401.359,432.539 399.5,432.5C 400.767,430.961 401.767,429.294 402.5,427.5 Z"/></g>
<g><path style="opacity:1" fill="#211007" d="M 157.5,425.5 C 158.478,425.811 159.145,426.478 159.5,427.5C 158.263,428.281 157.263,429.281 156.5,430.5C 157,430.833 157.5,431.167 158,431.5C 163.699,430.234 169.532,429.568 175.5,429.5C 180.833,429.667 186.167,429.833 191.5,430C 194.522,430.098 197.189,430.932 199.5,432.5C 183.5,432.5 167.5,432.5 151.5,432.5C 151.5,431.167 151.5,429.833 151.5,428.5C 153.5,427.5 155.5,426.5 157.5,425.5 Z"/></g>
<g><path style="opacity:0.812" fill="#604132" d="M 314.5,426.5 C 317.833,426.5 321.167,426.5 324.5,426.5C 324.5,428.833 324.5,431.167 324.5,433.5C 323.5,433.5 322.5,433.5 321.5,433.5C 321.5,433.167 321.5,432.833 321.5,432.5C 323.256,431.448 323.923,429.781 323.5,427.5C 320.287,427.81 317.287,427.477 314.5,426.5 Z"/></g>
<g><path style="opacity:1" fill="#29160d" d="M 515.5,426.5 C 513.393,427.468 511.059,427.802 508.5,427.5C 508.5,428.833 508.5,430.167 508.5,431.5C 517.658,430.812 526.825,430.145 536,429.5C 541.829,430.25 547.662,430.916 553.5,431.5C 553.5,430.5 553.5,429.5 553.5,428.5C 549.84,428.841 546.507,428.175 543.5,426.5C 547.5,426.5 551.5,426.5 555.5,426.5C 555.702,428.95 555.369,431.283 554.5,433.5C 554.167,433.5 553.833,433.5 553.5,433.5C 538.009,432.504 522.342,432.17 506.5,432.5C 506.5,430.5 506.5,428.5 506.5,426.5C 509.5,426.5 512.5,426.5 515.5,426.5 Z"/></g>
<g><path style="opacity:0.012" fill="#c1a484" d="M 328.5,426.5 C 328.5,428.5 328.5,430.5 328.5,432.5C 329.833,432.5 331.167,432.5 332.5,432.5C 332.5,432.833 332.5,433.167 332.5,433.5C 330.833,433.5 329.167,433.5 327.5,433.5C 324.966,430.477 325.299,428.144 328.5,426.5 Z"/></g>
</svg>
