<?xml version="1.0" encoding="UTF-8"?>
<!DOCTYPE svg PUBLIC "-//W3C//DTD SVG 1.1//EN" "http://www.w3.org/Graphics/SVG/1.1/DTD/svg11.dtd">
<svg xmlns="http://www.w3.org/2000/svg" version="1.1" width="920px" height="480px" style="shape-rendering:geometricPrecision; text-rendering:geometricPrecision; image-rendering:optimizeQuality; fill-rule:evenodd; clip-rule:evenodd" xmlns:xlink="http://www.w3.org/1999/xlink">
<g><path style="opacity:1" fill="#000000" d="M 551.5,0.5 C 579.169,0.333358 606.835,0.500024 634.5,1C 582.252,69.5047 530.252,138.171 478.5,207C 511.721,251.932 545.555,296.432 580,340.5C 580.833,342.167 581.667,343.833 582.5,345.5C 554.839,346.667 527.173,346.833 499.5,346C 477.976,318.643 456.642,291.143 435.5,263.5C 414.057,290.871 392.724,318.371 371.5,346C 343.494,346.833 315.494,346.667 287.5,345.5C 373.192,232.975 458.692,120.309 544,7.5C 546.396,4.93337 548.896,2.60004 551.5,0.5 Z"/></g>
<g><path style="opacity:1" fill="#000000" d="M 892.5,0.5 C 911.616,0.117305 920.116,9.45064 918,28.5C 911.447,42.5245 900.947,46.6911 886.5,41C 875.585,33.5805 872.752,23.7472 878,11.5C 881.55,5.9922 886.384,2.32553 892.5,0.5 Z M 895.5,4.5 C 906.794,4.96113 913.127,10.7945 914.5,22C 912.203,35.8185 904.203,41.1519 890.5,38C 880.527,31.7432 878.027,23.2432 883,12.5C 884.833,10.6667 886.667,8.83333 888.5,7C 891.004,6.30239 893.337,5.46906 895.5,4.5 Z M 894.5,14.5 C 897.596,13.9066 899.929,14.9066 901.5,17.5C 899.937,20.0289 897.604,21.0289 894.5,20.5C 894.5,18.5 894.5,16.5 894.5,14.5 Z"/></g>
<g><path style="opacity:1" fill="#000000" d="M 889.5,10.5 C 893.846,10.3343 898.179,10.501 902.5,11C 907.688,15.3319 907.688,19.8319 902.5,24.5C 904.658,27.1485 905.992,30.1485 906.5,33.5C 902.044,33.3521 899.21,31.0188 898,26.5C 896.989,25.6634 895.822,25.33 894.5,25.5C 894.5,28.1667 894.5,30.8333 894.5,33.5C 892.833,33.5 891.167,33.5 889.5,33.5C 889.5,25.8333 889.5,18.1667 889.5,10.5 Z M 894.5,14.5 C 894.5,16.5 894.5,18.5 894.5,20.5C 897.604,21.0289 899.937,20.0289 901.5,17.5C 899.929,14.9066 897.596,13.9066 894.5,14.5 Z"/></g>
<g><path style="opacity:1" fill="#000000" d="M -0.5,217.5 C -0.5,210.5 -0.5,203.5 -0.5,196.5C 3.33474,146.976 26.0014,108.809 67.5,82C 106.73,60.4766 148.064,55.1433 191.5,66C 233.233,80.0675 260.4,108.234 273,150.5C 280.73,177.081 282.896,203.914 279.5,231C 270.785,231.195 262.119,231.695 253.5,232.5C 192.667,231.699 131.5,231.699 70,232.5C 73.3489,262.041 88.8489,282.208 116.5,293C 137.962,298.789 158.962,298.122 179.5,291C 194.442,283.115 207.608,272.948 219,260.5C 236.081,272.249 252.581,284.749 268.5,298C 238.571,335.375 199.405,353.875 151,353.5C 110.517,353.899 75.0165,341.066 44.5,315C 17.4384,288.045 2.43838,255.545 -0.5,217.5 Z M 138.5,112.5 C 150.823,112.746 162.823,114.912 174.5,119C 199.247,130.95 211.58,150.784 211.5,178.5C 164.167,178.5 116.833,178.5 69.5,178.5C 75.5167,137.458 98.5167,115.458 138.5,112.5 Z"/></g>
<g><path style="opacity:1" fill="#000000" d="M 686.5,479.5 C 664.833,479.5 643.167,479.5 621.5,479.5C 620.791,478.596 619.791,478.263 618.5,478.5C 618.333,342.166 618.5,205.833 619,69.5C 619.5,69 620,68.5 620.5,68C 641.508,67.1669 662.508,67.3336 683.5,68.5C 684.315,81.7882 684.815,95.1215 685,108.5C 701.151,82.9842 724.317,67.8176 754.5,63C 794.911,55.8137 831.911,63.8137 865.5,87C 902.289,118.305 919.955,158.305 918.5,207C 919.081,249.945 904.748,286.945 875.5,318C 838.346,350.287 795.679,360.621 747.5,349C 724.051,342.692 704.718,330.192 689.5,311.5C 688.134,317.078 687.468,322.745 687.5,328.5C 687.896,360.474 688.229,392.474 688.5,424.5C 688.333,442.167 688.167,459.833 688,477.5C 687.283,478.044 686.783,478.711 686.5,479.5 Z M 757.5,123.5 C 789.65,121.007 815.483,132.674 835,158.5C 854.171,190.843 854.171,223.176 835,255.5C 815.545,281.558 789.545,293.224 757,290.5C 711.952,281.416 688.119,253.582 685.5,207C 688.021,160.331 712.021,132.498 757.5,123.5 Z"/></g>
<g><path style="opacity:1" fill="#000000" d="M 289.5,66.5 C 316.766,67.0398 344.099,67.5398 371.5,68C 385.605,85.0488 399.105,102.549 412,120.5C 413.373,122.695 413.706,125.029 413,127.5C 400.215,144.62 387.048,161.453 373.5,178C 372.833,178.667 372.167,178.667 371.5,178C 342.925,141.927 314.925,105.427 287.5,68.5C 288.243,67.8182 288.909,67.1515 289.5,66.5 Z"/></g>
<g><path style="opacity:1" fill="#000000" d="M 90.5,395.5 C 107.495,394.974 117.495,402.974 120.5,419.5C 118.98,429.705 113.647,437.205 104.5,442C 109.127,450.086 113.627,458.253 118,466.5C 118.494,468.134 118.66,469.801 118.5,471.5C 113.456,471.827 108.456,471.494 103.5,470.5C 99,461.5 94.5,452.5 90,443.5C 86.27,442.54 82.4367,442.207 78.5,442.5C 78.9172,451.915 78.4172,461.248 77,470.5C 72.6667,471.833 68.3333,471.833 64,470.5C 63.3333,446.167 63.3333,421.833 64,397.5C 72.9318,396.846 81.7651,396.179 90.5,395.5 Z M 78.5,409.5 C 85.9209,409.109 93.2542,409.609 100.5,411C 107.065,416.965 107.065,422.965 100.5,429C 93.2542,430.391 85.9209,430.891 78.5,430.5C 78.5,423.5 78.5,416.5 78.5,409.5 Z"/></g>
<g><path style="opacity:1" fill="#000000" d="M 274.5,395.5 C 278.601,395.43 281.101,397.43 282,401.5C 291.892,424.285 302.059,446.952 312.5,469.5C 312.291,470.086 311.957,470.586 311.5,471C 307.5,471.667 303.5,471.667 299.5,471C 296.396,467.46 294.063,463.46 292.5,459C 281.833,458.333 271.167,458.333 260.5,459C 258.771,463.124 256.771,467.124 254.5,471C 249.913,471.799 245.413,471.632 241,470.5C 251.57,445.35 262.737,420.35 274.5,395.5 Z M 275.5,423.5 C 279.815,430.235 283.481,437.401 286.5,445C 280.175,445.5 273.842,445.666 267.5,445.5C 269.593,437.976 272.26,430.643 275.5,423.5 Z"/></g>
<g><path style="opacity:1" fill="#000000" d="M 165.5,396.5 C 180.837,396.333 196.17,396.5 211.5,397C 212.833,401 212.833,405 211.5,409C 200.839,409.5 190.172,409.667 179.5,409.5C 179.5,415.167 179.5,420.833 179.5,426.5C 188.173,426.334 196.84,426.5 205.5,427C 207.045,428.822 207.712,430.989 207.5,433.5C 207.712,436.011 207.045,438.178 205.5,440C 196.84,440.5 188.173,440.666 179.5,440.5C 179.5,446.5 179.5,452.5 179.5,458.5C 190.415,458.18 201.248,458.513 212,459.5C 212.793,463.423 212.626,467.256 211.5,471C 195.926,471.824 180.426,471.657 165,470.5C 164.177,445.761 164.344,421.094 165.5,396.5 Z"/></g>
<g><path style="opacity:1" fill="#000000" d="M 344.5,396.5 C 348.182,396.335 351.848,396.501 355.5,397C 356.126,397.75 356.626,398.584 357,399.5C 357.5,419.164 357.667,438.831 357.5,458.5C 367.083,458.182 376.583,458.515 386,459.5C 386.793,463.423 386.626,467.256 385.5,471C 371.488,471.833 357.488,471.666 343.5,470.5C 342.344,446.543 342.177,422.543 343,398.5C 343.717,397.956 344.217,397.289 344.5,396.5 Z"/></g>
<g><path style="opacity:1" fill="#000000" d="M 414.5,396.5 C 431.18,396.167 447.847,396.501 464.5,397.5C 465.422,401.076 465.089,404.576 463.5,408C 458.028,409.092 452.528,409.926 447,410.5C 446.667,430.5 446.333,450.5 446,470.5C 441.55,471.8 437.05,471.8 432.5,470.5C 431.512,450.213 431.179,429.879 431.5,409.5C 426.156,409.666 420.823,409.499 415.5,409C 413.223,405.051 412.889,400.884 414.5,396.5 Z"/></g>
<g><path style="opacity:1" fill="#000000" d="M 499.5,396.5 C 504.179,396.334 508.845,396.501 513.5,397C 518.811,405.136 524.478,412.97 530.5,420.5C 536.044,412.578 541.711,404.745 547.5,397C 552.167,396.333 556.833,396.333 561.5,397C 562.022,397.561 562.355,398.228 562.5,399C 554.215,411.064 546.049,423.23 538,435.5C 537.667,447.167 537.333,458.833 537,470.5C 532.599,471.467 528.099,471.8 523.5,471.5C 522.366,459.498 522.199,447.498 523,435.5C 514.637,423.302 506.47,410.969 498.5,398.5C 498.863,397.817 499.196,397.15 499.5,396.5 Z"/></g>
</svg>
