<?xml version="1.0" encoding="UTF-8"?>
<!DOCTYPE svg PUBLIC "-//W3C//DTD SVG 1.1//EN" "http://www.w3.org/Graphics/SVG/1.1/DTD/svg11.dtd">
<svg xmlns="http://www.w3.org/2000/svg" version="1.1" width="1036px" height="144px" style="shape-rendering:geometricPrecision; text-rendering:geometricPrecision; image-rendering:optimizeQuality; fill-rule:evenodd; clip-rule:evenodd" xmlns:xlink="http://www.w3.org/1999/xlink">
<g><path style="opacity:1" fill="#000000" d="M 1.5,1.5 C 8.34402,0.181234 15.344,0.181234 22.5,1.5C 30.4898,18.1479 38.9898,34.4813 48,50.5C 55.4675,33.9204 62.6342,17.2537 69.5,0.5C 76.5079,0.333711 83.5079,0.500377 90.5,1C 88.714,1.78451 87.214,2.95118 86,4.5C 85.3333,35.5 85.3333,66.5 86,97.5C 87.1667,100 89,101.833 91.5,103C 82.5,103.667 73.5,103.667 64.5,103C 66.6089,101.859 68.4422,100.359 70,98.5C 70.6667,70.5 70.6667,42.5 70,14.5C 61.2567,33.6519 52.2567,52.6519 43,71.5C 33.6667,52.1667 24.3333,32.8333 15,13.5C 14.3333,41.5 14.3333,69.5 15,97.5C 16.1667,100 18,101.833 20.5,103C 13.8333,103.667 7.16667,103.667 0.5,103C 2.6487,101.848 4.48203,100.348 6,98.5C 6.66667,67.1667 6.66667,35.8333 6,4.5C 4.87099,2.85883 3.37099,1.85883 1.5,1.5 Z"/></g>
<g><path style="opacity:1" fill="#000000" d="M 524.5,1.5 C 531.235,0.173495 538.068,0.173495 545,1.5C 553.078,17.9895 561.411,34.3228 570,50.5C 577.907,34.4522 585.241,18.1189 592,1.5C 598.752,0.355479 605.586,0.188812 612.5,1C 611.421,1.95604 610.255,2.78937 609,3.5C 608.333,35.1667 608.333,66.8333 609,98.5C 610.351,100.019 611.851,101.352 613.5,102.5C 604.518,103.665 595.518,103.832 586.5,103C 589.211,101.739 591.378,99.906 593,97.5C 593.667,69.5 593.667,41.5 593,13.5C 584,32.8333 575,52.1667 566,71.5C 556.411,52.654 547.077,33.654 538,14.5C 537.333,42.5 537.333,70.5 538,98.5C 539.5,100 541,101.5 542.5,103C 535.833,103.667 529.167,103.667 522.5,103C 525.583,102.214 527.749,100.381 529,97.5C 529.667,66.8333 529.667,36.1667 529,5.5C 528.252,3.24896 526.752,1.91563 524.5,1.5 Z"/></g>
<g><path style="opacity:1" fill="#000000" d="M 677.5,0.5 C 679.328,33.485 680.161,66.8183 680,100.5C 680.5,101 681,101.5 681.5,102C 675.167,102.667 668.833,102.667 662.5,102C 663.893,100.829 664.727,99.3289 665,97.5C 665.667,68.8333 665.667,40.1667 665,11.5C 664.5,10.3333 663.667,9.5 662.5,9C 667.855,6.65952 672.855,3.82618 677.5,0.5 Z"/></g>
<g><path style="opacity:1" fill="#000000" d="M 710.5,0.5 C 711.693,0.970406 712.36,1.97041 712.5,3.5C 711.356,34.817 711.189,66.1503 712,97.5C 712.273,99.3289 713.107,100.829 714.5,102C 708.167,102.667 701.833,102.667 695.5,102C 696,101.5 696.5,101 697,100.5C 697.667,70.5 697.667,40.5 697,10.5C 696.25,9.87424 695.416,9.37424 694.5,9C 700.253,6.81597 705.587,3.98263 710.5,0.5 Z"/></g>
<g><path style="opacity:1" fill="#000000" d="M 839.5,0.5 C 841.319,13.7966 842.152,27.4633 842,41.5C 852.175,31.8005 863.675,29.9672 876.5,36C 878.709,37.8734 880.542,40.04 882,42.5C 883.27,61.7902 883.937,81.1235 884,100.5C 884.5,101 885,101.5 885.5,102C 879.5,102.667 873.5,102.667 867.5,102C 868.227,100.601 868.727,99.1012 869,97.5C 869.667,81.1667 869.667,64.8333 869,48.5C 867.436,39.6198 862.269,36.4532 853.5,39C 848.773,40.7402 844.94,43.5735 842,47.5C 841.333,64.8333 841.333,82.1667 842,99.5C 842.374,100.416 842.874,101.25 843.5,102C 837.5,102.667 831.5,102.667 825.5,102C 826.126,101.25 826.626,100.416 827,99.5C 827.667,70.1667 827.667,40.8333 827,11.5C 826.5,10.3333 825.667,9.5 824.5,9C 829.855,6.65952 834.855,3.82618 839.5,0.5 Z"/></g>
<g><path style="opacity:1" fill="#000000" d="M 634.5,10.5 C 643.348,10.8333 646.515,15.1666 644,23.5C 640.763,27.2487 636.93,28.0821 632.5,26C 626.87,19.9882 627.537,14.8215 634.5,10.5 Z"/></g>
<g><path style="opacity:1" fill="#000000" d="M 736.5,10.5 C 746.36,10.5431 749.527,15.2098 746,24.5C 740.667,28.5 736,27.8333 732,22.5C 730.474,17.2389 731.974,13.2389 736.5,10.5 Z"/></g>
<g><path style="opacity:1" fill="#000000" d="M 363.5,31.5 C 371.522,31.5044 379.188,33.1711 386.5,36.5C 387.661,40.7953 387.828,45.1287 387,49.5C 381.21,38.6863 372.376,34.5197 360.5,37C 354.329,44.7615 355.662,51.0948 364.5,56C 372.036,58.9535 379.369,62.2868 386.5,66C 398.897,78.717 397.897,90.3837 383.5,101C 370.438,106.016 357.604,105.516 345,99.5C 344.333,93.8333 344.333,88.1667 345,82.5C 352.822,98.6714 364.989,103.505 381.5,97C 388.382,89.9478 387.715,83.6145 379.5,78C 371.916,74.4721 364.249,71.1388 356.5,68C 347.044,61.2982 344.211,52.4649 348,41.5C 351.825,36.009 356.991,32.6756 363.5,31.5 Z"/></g>
<g><path style="opacity:1" fill="#000000" d="M 126.5,32.5 C 136.055,31.2567 144.222,33.9233 151,40.5C 152.927,43.9481 154.261,47.6148 155,51.5C 155.333,67.1667 155.667,82.8333 156,98.5C 156.785,100.286 157.951,101.786 159.5,103C 153.175,103.5 146.842,103.666 140.5,103.5C 140.665,100.15 140.498,96.8168 140,93.5C 129.638,104.574 117.805,106.407 104.5,99C 96.2644,89.0927 96.5978,79.4261 105.5,70C 108.502,67.497 111.835,65.497 115.5,64C 122.754,62.4164 129.754,60.0831 136.5,57C 142.048,50.7078 141.715,44.7078 135.5,39C 129.548,36.7852 123.882,37.4519 118.5,41C 113.351,44.9817 108.685,49.4817 104.5,54.5C 103.167,49.5 103.167,44.5 104.5,39.5C 111.697,36.3214 119.03,33.9881 126.5,32.5 Z M 137.5,59.5 C 138.5,59.5 139.5,59.5 140.5,59.5C 140.666,69.1724 140.5,78.8391 140,88.5C 133.103,99.0166 125.103,100.017 116,91.5C 112.154,83.7596 112.987,76.5929 118.5,70C 124.606,65.9502 130.939,62.4502 137.5,59.5 Z"/></g>
<g><path style="opacity:1" fill="#000000" d="M 201.5,32.5 C 203.5,32.5 205.5,32.5 207.5,32.5C 207.666,37.1785 207.499,41.8452 207,46.5C 199.594,41.8042 193.261,43.1376 188,50.5C 187.333,67.1667 187.333,83.8333 188,100.5C 188.692,101.025 189.192,101.692 189.5,102.5C 183.193,103.664 176.859,103.831 170.5,103C 172.004,101.509 172.837,99.676 173,97.5C 173.667,80.1667 173.667,62.8333 173,45.5C 172.355,44.354 171.522,43.354 170.5,42.5C 175.824,39.8378 181.158,37.1711 186.5,34.5C 187.324,37.7848 187.824,41.1182 188,44.5C 190.85,38.5144 195.35,34.5144 201.5,32.5 Z"/></g>
<g><path style="opacity:1" fill="#000000" d="M 264.5,93.5 C 253.069,103.434 240.069,105.934 225.5,101C 209.484,92.1274 203.317,78.6274 207,60.5C 213.341,43.0007 225.841,33.6674 244.5,32.5C 251.016,33.0033 257.182,34.67 263,37.5C 263.667,42.5 263.667,47.5 263,52.5C 258.779,46.9456 253.946,42.1123 248.5,38C 236.793,35.1038 228.626,39.2705 224,50.5C 219.814,64.4643 221.148,77.7976 228,90.5C 235.234,97.1355 243.734,99.3021 253.5,97C 257.288,96.126 260.954,94.9593 264.5,93.5 Z"/></g>
<g><path style="opacity:1" fill="#000000" d="M 816.5,93.5 C 803.973,104.103 789.973,106.269 774.5,100C 763.43,93.2073 757.764,83.2073 757.5,70C 760.155,46.8461 773.155,34.3461 796.5,32.5C 802.351,33.0858 808.018,34.4191 813.5,36.5C 814.662,41.467 814.829,46.467 814,51.5C 809.296,43.7856 802.63,38.7856 794,36.5C 785.087,37.4118 779.087,42.0784 776,50.5C 772.714,61.4952 772.714,72.4952 776,83.5C 782.036,95.8612 791.87,100.361 805.5,97C 809.178,95.8256 812.844,94.6589 816.5,93.5 Z"/></g>
<g><path style="opacity:1" fill="#000000" d="M 922.5,32.5 C 937.421,30.8543 946.588,37.1877 950,51.5C 950.333,67.5 950.667,83.5 951,99.5C 952.167,100.667 953.333,101.833 954.5,103C 948.175,103.5 941.842,103.666 935.5,103.5C 935.665,100.15 935.498,96.8168 935,93.5C 924.501,104.938 912.668,106.772 899.5,99C 891.264,89.0927 891.598,79.4261 900.5,70C 908.014,64.7475 916.347,61.4141 925.5,60C 935.374,56.7578 937.874,50.5912 933,41.5C 930.868,38.6842 928.035,37.3509 924.5,37.5C 914.059,39.9001 905.726,45.5667 899.5,54.5C 898.338,49.8687 898.172,45.202 899,40.5C 899.5,40 900,39.5 900.5,39C 907.77,36.1877 915.104,34.021 922.5,32.5 Z M 933.5,59.5 C 934.827,63.951 935.494,68.7843 935.5,74C 935.333,78.8333 935.167,83.6667 935,88.5C 930.523,96.3249 924.023,98.8249 915.5,96C 907.112,87.9455 906.445,79.2788 913.5,70C 919.818,65.6761 926.484,62.1761 933.5,59.5 Z"/></g>
<g><path style="opacity:1" fill="#000000" d="M 1035.5,62.5 C 1035.5,65.8333 1035.5,69.1667 1035.5,72.5C 1029.9,94.2674 1015.9,104.767 993.5,104C 988.177,102.923 983.677,100.423 980,96.5C 979.333,106.833 979.333,117.167 980,127.5C 980.833,128.333 981.667,129.167 982.5,130C 975.833,130.667 969.167,130.667 962.5,130C 963.701,129.097 964.535,127.931 965,126.5C 965.667,99.5 965.667,72.5 965,45.5C 964.355,44.354 963.522,43.354 962.5,42.5C 967.824,39.8378 973.158,37.1711 978.5,34.5C 979.314,36.7662 979.814,39.0995 980,41.5C 992.042,31.7844 1005.21,29.9511 1019.5,36C 1027.8,43.1005 1033.13,51.9338 1035.5,62.5 Z M 994.5,38.5 C 1010.15,39.9883 1018.65,48.655 1020,64.5C 1023.09,80.2866 1017.59,91.7866 1003.5,99C 993.287,100.81 985.453,97.3097 980,88.5C 979.333,74.8333 979.333,61.1667 980,47.5C 983.693,42.5744 988.527,39.5744 994.5,38.5 Z"/></g>
<g><path style="opacity:1" fill="#000000" d="M 290.5,33.5 C 291.332,52.6623 291.832,71.9957 292,91.5C 297.037,97.9896 303.204,99.1562 310.5,95C 311.667,93.8333 312.833,92.6667 314,91.5C 314.667,75.8333 314.667,60.1667 314,44.5C 313.167,43.6667 312.333,42.8333 311.5,42C 317.657,40.5876 323.324,38.0876 328.5,34.5C 329.333,56.4924 329.833,78.4924 330,100.5C 330.692,101.025 331.192,101.692 331.5,102.5C 326.208,103.495 320.875,103.828 315.5,103.5C 315.665,100.482 315.498,97.4816 315,94.5C 306.702,103.678 296.868,105.844 285.5,101C 282.96,98.7953 280.793,96.2953 279,93.5C 277.712,77.5668 277.045,61.5668 277,45.5C 275.833,44.3333 274.667,43.1667 273.5,42C 280.066,40.7172 285.733,37.8839 290.5,33.5 Z"/></g>
<g><path style="opacity:1" fill="#000000" d="M 642.5,34.5 C 644.325,55.8102 645.158,77.4768 645,99.5C 645.374,100.416 645.874,101.25 646.5,102C 640.472,102.83 634.472,102.664 628.5,101.5C 629.098,100.205 629.598,98.8721 630,97.5C 630.667,79.8333 630.667,62.1667 630,44.5C 629.167,43.6667 628.333,42.8333 627.5,42C 632.84,39.9968 637.84,37.4968 642.5,34.5 Z"/></g>
<g><path style="opacity:1" fill="#000000" d="M 744.5,34.5 C 746.325,55.1428 747.158,76.1428 747,97.5C 747.273,99.3289 748.107,100.829 749.5,102C 743.167,102.667 736.833,102.667 730.5,102C 731,101.5 731.5,101 732,100.5C 732.833,81.4912 732.666,62.4912 731.5,43.5C 730.692,43.1924 730.025,42.6924 729.5,42C 735.119,40.5237 740.119,38.0237 744.5,34.5 Z"/></g>
<g><path style="opacity:1" fill="#000000" d="M 1035.5,137.5 C 1035.5,139.167 1035.5,140.833 1035.5,142.5C 863.833,142.667 692.166,142.5 520.5,142C 512.309,139.144 505.142,134.644 499,128.5C 491.358,135.238 482.525,139.738 472.5,142C 314.834,142.5 157.167,142.667 -0.5,142.5C -0.5,140.833 -0.5,139.167 -0.5,137.5C 146.167,137.667 292.834,137.5 439.5,137C 423.926,126.964 418.093,112.798 422,94.5C 425.167,83.3333 432.333,76.1667 443.5,73C 435.217,62.3101 435.55,51.9768 444.5,42C 455.399,35.3666 466.566,34.8666 478,40.5C 479.699,39.5939 481.533,39.2606 483.5,39.5C 484.182,45.8272 484.348,52.1605 484,58.5C 483.311,59.3567 482.478,60.0233 481.5,60.5C 478.837,56.9934 476.337,53.3268 474,49.5C 468.1,42.6292 460.933,40.7959 452.5,44C 448.797,47.396 447.631,51.5626 449,56.5C 452.552,63.3822 456.885,69.7155 462,75.5C 478.227,92.3952 495.06,108.562 512.5,124C 518.66,128.58 524.993,132.914 531.5,137C 699.5,137.5 867.5,137.667 1035.5,137.5 Z M 443.5,78.5 C 446.226,78.2639 448.559,79.0972 450.5,81C 463.467,96.3006 477.467,110.634 492.5,124C 475.359,135.701 458.693,135.034 442.5,122C 431.496,111.497 428.996,99.3303 435,85.5C 437.441,82.5464 440.275,80.2131 443.5,78.5 Z"/></g>
<g><path style="opacity:1" fill="#000000" d="M 264.5,92.5 C 265.833,93.1667 265.833,93.1667 264.5,92.5 Z"/></g>
<g><path style="opacity:1" fill="#000000" d="M 816.5,92.5 C 817.833,93.1667 817.833,93.1667 816.5,92.5 Z"/></g>
</svg>
