<svg
    class="img-fluid"
    id="outputsvg"
    xmlns="http://www.w3.org/2000/svg"
    style="cursor: move; max-height: 395.02px; transition: transform 200ms ease-in-out;"
    width="685"
    height="306"
    viewBox="0 0 6850 3060"
>
    <g
        id="l33pOGyYYH7Cjfprfc4hkub"
        fill="rgb(0,0,0)"
        style="transform: none"
    >
        <g style="transform: none">
            <path
                id="paYygqmjU"
                d="M3275 2953 c-1168 -19 -2232 -294 -2780 -719 -92 -71 -227 -207 -274 -277 -83 -122 -141 -296 -141 -422 0 -128 57 -298 141 -423 47 -69 182 -205 274 -276 435 -338 1195 -583 2085 -675 307 -32 500 -42 840 -42 551 0 992 41 1470 137 1357 271 2088 896 1812 1552 -290 690 -1735 1172 -3427 1145z m533 -153 c741 -36 1438 -178 1947 -395 512 -219 818 -507 854 -802 43 -351 -262 -685 -854 -938 -874 -374 -2241 -503 -3445 -325 -905 134 -1632 435 -1924 798 -110 137 -157 255 -157 397 0 142 47 260 157 397 461 573 1914 941 3422 868z"
            ></path>
            <path
                id="paGKMVttu"
                d="M2283 1969 c-95 -18 -174 -84 -219 -184 -38 -83 -39 -196 -2 -277 52 -113 138 -176 253 -185 74 -6 150 15 185 52 31 33 40 31 40 -5 l0 -30 80 0 80 0 0 310 0 310 -80 0 -80 0 0 -37 0 -36 -23 21 c-51 48 -157 76 -234 61z m163 -170 c113 -54 123 -216 18 -295 -32 -25 -47 -29 -99 -29 -52 0 -67 4 -99 29 -134 102 -72 314 93 316 26 0 63 -9 87 -21z"
            ></path>
            <path
                id="pkopKTrTB"
                d="M4844 1949 c-142 -54 -225 -212 -194 -366 16 -75 41 -124 91 -174 62 -62 117 -83 224 -83 81 -1 95 2 143 29 93 51 144 126 164 243 19 110 38 102 -257 102 -224 0 -255 2 -255 15 0 24 25 67 57 97 82 78 235 78 316 0 l28 -27 44 24 45 24 -20 27 c-25 35 -84 75 -139 95 -62 21 -183 19 -247 -6z m316 -381 c-32 -111 -133 -166 -251 -138 -63 15 -128 75 -146 133 l-11 37 208 0 209 0 -9 -32z"
            ></path>
            <path
                id="pa101QRpH"
                d="M1060 1525 l0 -435 88 0 88 0 118 195 c64 107 121 197 126 200 4 3 63 -85 130 -195 l122 -200 89 0 89 0 0 435 0 435 -85 0 -85 0 0 -282 0 -283 -26 40 c-14 22 -69 112 -122 199 -53 88 -101 161 -107 163 -5 1 -64 -86 -130 -195 l-120 -197 -3 278 -2 277 -85 0 -85 0 0 -435z"
            ></path>
            <path
                id="p8F1OUhS8"
                d="M2786 1948 c4 -7 52 -75 106 -151 54 -75 101 -143 103 -150 3 -6 -41 -77 -98 -157 l-103 -145 90 -3 c78 -3 93 0 103 15 7 10 35 49 62 86 l49 69 147 -207 c81 -113 149 -204 151 -202 11 11 53 171 47 181 -4 6 -63 88 -130 183 l-124 172 111 155 c60 84 110 157 110 160 0 3 -40 6 -88 6 l-89 0 -68 -95 -67 -96 -31 43 c-17 24 -48 67 -69 96 l-39 52 -90 0 c-69 0 -88 -3 -83 -12z"
            ></path>
            <path
                id="p17ZdhzbbI"
                d="M3706 1952 c-5 -8 -246 -846 -246 -856 0 -3 26 -6 59 -6 l58 0 36 128 c20 70 64 227 98 350 34 122 64 220 67 217 3 -2 51 -159 107 -347 l101 -343 60 -3 60 -3 93 318 c52 175 99 334 106 353 l12 35 20 -65 c11 -36 55 -194 99 -352 l79 -288 61 0 62 0 -28 93 c-15 50 -71 246 -125 435 l-98 342 -67 0 -66 0 -98 -332 c-54 -183 -102 -339 -106 -346 -4 -8 -10 1 -17 25 -21 73 -174 588 -184 621 -10 32 -11 32 -74 32 -35 0 -66 -3 -69 -8z"
            ></path>
            <path
                id="pRfY2LHlJ"
                d="M5400 1505 l0 -455 55 0 55 0 0 455 0 455 -55 0 -55 0 0 -455z"
            ></path>
            <path
                id="pFSeWUSNC"
                d="M5680 1505 l0 -455 50 0 50 0 0 455 0 455 -50 0 -50 0 0 -455z"
            ></path>
            <path
                id="pHGcsqtFT"
                d="M6162 2820 c-76 -47 -91 -163 -28 -226 97 -97 256 -32 256 103 0 110 -132 181 -228 123z m138 -13 c13 -7 35 -28 48 -47 19 -28 23 -44 19 -80 -15 -135 -209 -152 -248 -22 -30 105 83 198 181 149z"
            ></path>
            <path
                id="pqKhULeyv"
                d="M6180 2695 l0 -85 50 0 c42 0 52 4 67 26 16 25 16 28 0 56 -15 27 -15 32 -2 59 14 26 14 29 0 29 -9 0 -24 -13 -33 -30 -22 -39 -42 -39 -42 0 0 23 -4 30 -20 30 -18 0 -20 -7 -20 -85z m93 -17 c7 -23 -4 -38 -29 -38 -19 0 -24 5 -24 25 0 20 5 25 24 25 13 0 26 -6 29 -12z"
            ></path>
        </g>
    </g>
</svg>