<?xml version="1.0" encoding="UTF-8"?>
<!DOCTYPE svg PUBLIC "-//W3C//DTD SVG 1.1//EN" "http://www.w3.org/Graphics/SVG/1.1/DTD/svg11.dtd">
<svg xmlns="http://www.w3.org/2000/svg" version="1.1" width="657px" height="214px" style="shape-rendering:geometricPrecision; text-rendering:geometricPrecision; image-rendering:optimizeQuality; fill-rule:evenodd; clip-rule:evenodd" xmlns:xlink="http://www.w3.org/1999/xlink">
<g><path style="opacity:0.983" fill="#323231" d="M 639.5,-0.5 C 641.167,-0.5 642.833,-0.5 644.5,-0.5C 646.741,0.620727 649.075,1.78739 651.5,3C 653.314,5.47945 654.981,7.97945 656.5,10.5C 656.5,12.5 656.5,14.5 656.5,16.5C 652.122,27.6746 644.456,30.508 633.5,25C 625.351,13.9407 627.351,5.44071 639.5,-0.5 Z M 649.5,21.5 C 649.203,18.4411 647.87,15.9411 645.5,14C 647.309,7.30241 644.643,4.46908 637.5,5.5C 637.5,10.8333 637.5,16.1667 637.5,21.5C 636.833,21.5 636.5,21.8333 636.5,22.5C 631.881,19.3657 630.381,15.0324 632,9.5C 636.461,2.68005 642.294,1.18005 649.5,5C 654.823,10.6581 654.823,16.1581 649.5,21.5 Z M 640.5,10.5 C 641.497,9.28749 642.497,9.45415 643.5,11C 642.975,11.6924 642.308,12.1924 641.5,12.5C 641.213,11.7997 640.88,11.1331 640.5,10.5 Z M 649.5,21.5 C 647.834,23.8284 645.501,24.8284 642.5,24.5C 640.117,24.639 638.117,23.9723 636.5,22.5C 637.167,22.5 637.5,22.1667 637.5,21.5C 638.833,21.5 640.167,21.5 641.5,21.5C 641.714,19.8561 641.38,18.3561 640.5,17C 643.322,16.3013 644.988,17.4679 645.5,20.5C 646.689,21.4287 648.022,21.762 649.5,21.5 Z"/></g>
<g><path style="opacity:0.221" fill="#838383" d="M 48.5,13.5 C 51.6491,12.8349 54.9825,12.5016 58.5,12.5C 63.4371,12.3002 68.1038,12.9669 72.5,14.5C 64.5288,13.677 56.5288,13.3437 48.5,13.5 Z"/></g>
<g><path style="opacity:0.998" fill="#0d0c0c" d="M 48.5,13.5 C 56.5288,13.3437 64.5288,13.677 72.5,14.5C 74.099,14.2322 75.4324,14.5655 76.5,15.5C 77.7804,16.9313 79.4471,17.5979 81.5,17.5C 99.6811,25.0143 111.014,38.3476 115.5,57.5C 116.732,66.4946 116.732,75.4946 115.5,84.5C 114.076,86.5145 113.41,88.8478 113.5,91.5C 111.707,93.4261 110.707,95.7594 110.5,98.5C 108.329,102.844 105.663,106.844 102.5,110.5C 99.6679,110.942 98.6679,112.275 99.5,114.5C 101.543,115.579 102.876,117.246 103.5,119.5C 104.08,121.749 105.413,123.415 107.5,124.5C 109.156,126.46 110.823,128.46 112.5,130.5C 106.25,132.459 99.5837,133.126 92.5,132.5C 90.8437,130.54 89.177,128.54 87.5,126.5C 87.573,124.973 86.9063,123.973 85.5,123.5C 84.221,122.285 83.221,122.618 82.5,124.5C 82.1583,125.338 81.4916,125.672 80.5,125.5C 78.302,125.12 76.6354,125.787 75.5,127.5C 73.9582,128.301 72.2915,128.634 70.5,128.5C 64.5164,129.074 58.5164,129.407 52.5,129.5C 52.1667,129.5 51.8333,129.5 51.5,129.5C 47.7607,127.898 43.7607,126.898 39.5,126.5C 34.2472,125.207 29.5806,122.874 25.5,119.5C 24.7377,117.738 23.4044,116.738 21.5,116.5C 20.5,116.167 19.8333,115.5 19.5,114.5C 18.1667,112.5 16.5,110.833 14.5,109.5C 13.5,109.167 12.8333,108.5 12.5,107.5C 12.573,105.973 11.9063,104.973 10.5,104.5C 10.573,102.973 9.90632,101.973 8.5,101.5C 7.66175,101.158 7.32842,100.492 7.5,99.5C 7.00751,97.1815 6.00751,95.1815 4.5,93.5C 3.26162,91.7857 2.59495,89.7857 2.5,87.5C 2.43487,84.5718 1.7682,81.9052 0.5,79.5C 0.67158,78.5084 0.338246,77.8417 -0.5,77.5C -0.5,73.5 -0.5,69.5 -0.5,65.5C 0.338246,65.1583 0.67158,64.4916 0.5,63.5C 1.7682,61.0948 2.43487,58.4282 2.5,55.5C 9.20159,32.1349 24.5349,18.1349 48.5,13.5 Z M 49.5,30.5 C 55.1667,30.5 60.8333,30.5 66.5,30.5C 68.5145,31.9238 70.8478,32.5905 73.5,32.5C 83.1667,37.5 90.5,44.8333 95.5,54.5C 95.595,56.7857 96.2616,58.7857 97.5,60.5C 98.9778,68.577 98.6444,76.577 96.5,84.5C 94.8946,87.3777 93.5612,90.3777 92.5,93.5C 91.0937,93.9731 90.427,94.9731 90.5,96.5C 89.2101,97.0577 88.3768,98.0577 88,99.5C 84.9684,95.641 81.8017,91.9743 78.5,88.5C 77.9202,86.2512 76.5869,84.5846 74.5,83.5C 74.2624,81.5956 73.2624,80.2623 71.5,79.5C 64.3231,78.1806 56.9898,78.1806 49.5,79.5C 49.6236,80.1067 49.9569,80.44 50.5,80.5C 50.5,81.1667 50.8333,81.5 51.5,81.5C 51.427,83.0269 52.0937,84.0269 53.5,84.5C 59.8197,92.8169 66.4863,100.817 73.5,108.5C 71.7392,109.313 70.0725,110.313 68.5,111.5C 68.1667,111.5 67.8333,111.5 67.5,111.5C 59.3204,112.998 51.3204,112.332 43.5,109.5C 36.9499,106.278 31.2833,101.945 26.5,96.5C 26.573,94.9731 25.9063,93.9731 24.5,93.5C 23.4918,91.4561 22.4918,89.4561 21.5,87.5C 21.1249,85.3024 20.4582,83.3024 19.5,81.5C 18.8058,76.1951 18.4724,70.8617 18.5,65.5C 19.6641,61.9892 20.6641,58.3225 21.5,54.5C 26.1667,44.5 33.5,37.1667 43.5,32.5C 45.8984,32.7406 47.8984,32.0739 49.5,30.5 Z"/></g>
<g><path style="opacity:0.997" fill="#0f0e0e" d="M 499.5,13.5 C 501.905,14.7682 504.572,15.4349 507.5,15.5C 508.791,15.2627 509.791,15.596 510.5,16.5C 511.78,17.9313 513.447,18.5979 515.5,18.5C 516.492,18.3284 517.158,18.6618 517.5,19.5C 518.728,21.0098 518.728,22.5098 517.5,24C 518.973,24.7096 519.64,25.8762 519.5,27.5C 518.094,27.9731 517.427,28.9731 517.5,30.5C 516.576,32.9249 515.076,34.9249 513,36.5C 510.683,35.588 508.516,34.588 506.5,33.5C 504.383,31.3455 501.716,30.3455 498.5,30.5C 487.437,29.0835 477.103,31.0835 467.5,36.5C 465.973,36.427 464.973,37.0937 464.5,38.5C 458.906,44.0369 454.573,50.3702 451.5,57.5C 450.732,58.2625 450.232,59.2625 450,60.5C 449.179,67.6791 449.345,74.6791 450.5,81.5C 452.147,85.4237 453.814,89.4237 455.5,93.5C 455.427,95.0269 456.094,96.0269 457.5,96.5C 462.229,101.561 467.562,105.894 473.5,109.5C 475.102,111.074 477.102,111.741 479.5,111.5C 484.421,113.493 489.421,113.826 494.5,112.5C 500.959,111.198 507.126,108.864 513,105.5C 517.118,109.464 520.285,114.13 522.5,119.5C 520.353,121.977 517.686,123.644 514.5,124.5C 512.447,124.402 510.78,125.069 509.5,126.5C 507.162,128.04 504.495,128.706 501.5,128.5C 496.187,129.098 490.854,129.431 485.5,129.5C 480.65,128.377 475.65,127.377 470.5,126.5C 469.22,125.069 467.553,124.402 465.5,124.5C 463.847,124.34 462.514,123.674 461.5,122.5C 461.027,121.094 460.027,120.427 458.5,120.5C 456.973,120.573 455.973,119.906 455.5,118.5C 454.415,116.413 452.749,115.08 450.5,114.5C 448.167,112.833 446.167,110.833 444.5,108.5C 444.573,106.973 443.906,105.973 442.5,105.5C 440.674,103.853 439.34,101.853 438.5,99.5C 438.771,97.6203 438.104,96.287 436.5,95.5C 435.596,94.791 435.263,93.791 435.5,92.5C 435.405,90.2143 434.738,88.2143 433.5,86.5C 432.167,76.5 432.167,66.5 433.5,56.5C 434.141,50.8943 436.141,45.8943 439.5,41.5C 440.906,41.0269 441.573,40.0269 441.5,38.5C 441.738,36.5956 442.738,35.2623 444.5,34.5C 447.833,31.8333 450.833,28.8333 453.5,25.5C 456.358,21.9905 460.024,19.6571 464.5,18.5C 465.822,18.33 466.989,18.6634 468,19.5C 470.17,17.1769 472.67,15.5103 475.5,14.5C 480.077,13.0103 484.91,12.3437 490,12.5C 493.352,12.5018 496.518,12.8351 499.5,13.5 Z"/></g>
<g><path style="opacity:0.082" fill="#8f8f8f" d="M 499.5,13.5 C 502.495,13.2938 505.162,13.9605 507.5,15.5C 504.572,15.4349 501.905,14.7682 499.5,13.5 Z"/></g>
<g><path style="opacity:0.998" fill="#0f0f0f" d="M 624.5,27.5 C 624.833,28.5 625.5,29.1667 626.5,29.5C 630.628,32.2901 633.628,35.9568 635.5,40.5C 635.75,42.674 636.75,44.3406 638.5,45.5C 639.537,46.9303 640.204,48.597 640.5,50.5C 640.41,53.1522 641.076,55.4855 642.5,57.5C 645.157,67.0755 645.157,76.7422 642.5,86.5C 641.069,87.7804 640.402,89.4471 640.5,91.5C 633.2,111.986 618.867,124.32 597.5,128.5C 592.187,129.098 586.854,129.431 581.5,129.5C 576.65,128.377 571.65,127.377 566.5,126.5C 550.722,121.056 539.389,110.723 532.5,95.5C 532.598,93.4471 531.931,91.7804 530.5,90.5C 529.596,89.791 529.263,88.791 529.5,87.5C 528.195,76.829 528.195,66.1623 529.5,55.5C 530.293,50.9569 531.793,46.6236 534,42.5C 536.985,37.6888 540.485,33.3555 544.5,29.5C 546.749,28.9202 548.415,27.5869 549.5,25.5C 552.988,21.5832 557.321,18.9166 562.5,17.5C 565.855,17.3104 568.855,16.3104 571.5,14.5C 591.51,9.30173 609.176,13.6351 624.5,27.5 Z M 592.5,30.5 C 593.167,30.5 593.833,30.5 594.5,30.5C 596.936,31.871 599.603,32.871 602.5,33.5C 611.528,37.8612 618.195,44.5278 622.5,53.5C 623.13,57.0477 624.13,60.3811 625.5,63.5C 625.5,68.5 625.5,73.5 625.5,78.5C 624.388,80.5994 623.721,82.9327 623.5,85.5C 617.543,100.8 606.543,109.8 590.5,112.5C 583.346,112.474 576.346,111.474 569.5,109.5C 563.226,105.559 557.56,100.892 552.5,95.5C 552.573,93.9731 551.906,92.9731 550.5,92.5C 549.157,88.4859 547.824,84.4859 546.5,80.5C 545.137,72.7668 545.47,65.1001 547.5,57.5C 548.736,55.351 549.736,53.0177 550.5,50.5C 551.89,49.1007 552.89,47.4341 553.5,45.5C 559.189,39.3317 565.856,34.665 573.5,31.5C 579.797,30.6803 586.131,30.347 592.5,30.5 Z"/></g>
<g><path style="opacity:0.965" fill="#2d2c2b" d="M 649.5,21.5 C 648.022,21.762 646.689,21.4287 645.5,20.5C 644.988,17.4679 643.322,16.3013 640.5,17C 641.38,18.3561 641.714,19.8561 641.5,21.5C 640.167,21.5 638.833,21.5 637.5,21.5C 637.5,16.1667 637.5,10.8333 637.5,5.5C 644.643,4.46908 647.309,7.30241 645.5,14C 647.87,15.9411 649.203,18.4411 649.5,21.5 Z M 640.5,10.5 C 640.88,11.1331 641.213,11.7997 641.5,12.5C 642.308,12.1924 642.975,11.6924 643.5,11C 642.497,9.45415 641.497,9.28749 640.5,10.5 Z"/></g>
<g><path style="opacity:0.997" fill="#111111" d="M 304.5,122.5 C 304.5,123.5 304.5,124.5 304.5,125.5C 299.156,125.666 293.823,125.499 288.5,125C 287.601,123.348 286.601,121.848 285.5,120.5C 284.662,120.158 284.328,119.492 284.5,118.5C 284.598,116.447 283.931,114.78 282.5,113.5C 280.992,111.819 279.992,109.819 279.5,107.5C 280.021,104.364 279.021,102.03 276.5,100.5C 262.539,101.402 248.539,101.402 234.5,100.5C 233.737,104.137 232.403,107.47 230.5,110.5C 228.707,112.426 227.707,114.759 227.5,117.5C 225.733,119.792 224.733,122.458 224.5,125.5C 224.389,126.117 224.056,126.617 223.5,127C 221,127.167 218.5,127.333 216,127.5C 212.291,127.691 208.791,127.025 205.5,125.5C 214.942,103.625 224.609,81.9586 234.5,60.5C 235.931,59.2196 236.598,57.5529 236.5,55.5C 242.35,41.6298 248.35,27.7965 254.5,14C 254.85,12.7425 255.517,12.4092 256.5,13C 273.182,49.2171 289.182,85.7171 304.5,122.5 Z M 258.5,59.5 C 258.328,60.4916 258.662,61.1583 259.5,61.5C 259.402,63.5529 260.069,65.2196 261.5,66.5C 261.328,67.4916 261.662,68.1583 262.5,68.5C 262.402,70.5529 263.069,72.2196 264.5,73.5C 265.597,76.6865 266.93,79.6865 268.5,82.5C 268.631,83.2389 268.464,83.9056 268,84.5C 259.919,83.5175 251.752,83.1842 243.5,83.5C 244.698,80.5738 245.698,77.5738 246.5,74.5C 247.931,73.2196 248.598,71.5529 248.5,69.5C 249.674,68.4863 250.34,67.153 250.5,65.5C 251.931,64.2196 252.598,62.5529 252.5,60.5C 253.674,59.4863 254.34,58.153 254.5,56.5C 255.117,56.3893 255.617,56.056 256,55.5C 256.608,57.0664 257.442,58.3998 258.5,59.5 Z"/></g>
<g><path style="opacity:0.569" fill="#5d5d5d" d="M 571.5,14.5 C 568.855,16.3104 565.855,17.3104 562.5,17.5C 565.084,15.5275 568.084,14.5275 571.5,14.5 Z"/></g>
<g><path style="opacity:0.188" fill="#818181" d="M 76.5,15.5 C 78.5529,15.4021 80.2196,16.0687 81.5,17.5C 79.4471,17.5979 77.7804,16.9313 76.5,15.5 Z"/></g>
<g><path style="opacity:0.998" fill="#040404" d="M 149.5,101.5 C 150.338,101.842 150.672,102.508 150.5,103.5C 151.167,106.167 152.833,107.833 155.5,108.5C 156.71,108.932 157.71,109.599 158.5,110.5C 160.634,112.033 163.134,112.7 166,112.5C 168.033,112.494 169.866,112.161 171.5,111.5C 173.698,111.88 175.365,111.213 176.5,109.5C 179.881,107.12 182.547,104.12 184.5,100.5C 186.011,98.5242 186.844,96.1909 187,93.5C 187.5,67.8355 187.667,42.1688 187.5,16.5C 192.833,16.5 198.167,16.5 203.5,16.5C 203.791,44.8544 203.458,73.1878 202.5,101.5C 200.926,103.102 200.259,105.102 200.5,107.5C 195.912,117.758 188.245,124.425 177.5,127.5C 171.523,128.165 165.523,128.498 159.5,128.5C 157.485,127.076 155.152,126.41 152.5,126.5C 150.847,126.34 149.514,125.674 148.5,124.5C 148.027,123.094 147.027,122.427 145.5,122.5C 144.089,120.086 142.089,118.419 139.5,117.5C 138.026,116.564 137.026,115.23 136.5,113.5C 136.573,111.973 135.906,110.973 134.5,110.5C 132.384,105.035 131.051,99.3685 130.5,93.5C 130.5,67.8333 130.5,42.1667 130.5,16.5C 135.5,16.5 140.5,16.5 145.5,16.5C 145.824,42.8779 145.491,69.2112 144.5,95.5C 145.467,98.1292 147.133,100.129 149.5,101.5 Z"/></g>
<g><path style="opacity:0.998" fill="#000000" d="M 338.5,16.5 C 338.5,48.1667 338.5,79.8333 338.5,111.5C 352.167,111.5 365.833,111.5 379.5,111.5C 379.5,116.167 379.5,120.833 379.5,125.5C 360.5,125.5 341.5,125.5 322.5,125.5C 322.5,89.1667 322.5,52.8333 322.5,16.5C 327.833,16.5 333.167,16.5 338.5,16.5 Z"/></g>
<g><path style="opacity:0.997" fill="#030303" d="M 415.5,126.5 C 409.889,127.7 404.556,127.7 399.5,126.5C 399.5,89.8333 399.5,53.1667 399.5,16.5C 404.833,16.5 410.167,16.5 415.5,16.5C 415.5,53.1667 415.5,89.8333 415.5,126.5 Z"/></g>
<g><path style="opacity:0.986" fill="#474747" d="M 475.5,14.5 C 472.67,15.5103 470.17,17.1769 468,19.5C 466.989,18.6634 465.822,18.33 464.5,18.5C 467.66,16 471.327,14.6667 475.5,14.5 Z"/></g>
<g><path style="opacity:0.157" fill="#838383" d="M 510.5,16.5 C 512.553,16.4021 514.22,17.0687 515.5,18.5C 513.447,18.5979 511.78,17.9313 510.5,16.5 Z"/></g>
<g><path style="opacity:0.991" fill="#434343" d="M 517.5,19.5 C 523.221,21.0498 523.888,23.7165 519.5,27.5C 519.64,25.8762 518.973,24.7096 517.5,24C 518.728,22.5098 518.728,21.0098 517.5,19.5 Z"/></g>
<g><path style="opacity:0.252" fill="#717170" d="M 415.5,126.5 C 415.5,89.8333 415.5,53.1667 415.5,16.5C 410.167,16.5 404.833,16.5 399.5,16.5C 399.5,53.1667 399.5,89.8333 399.5,126.5C 398.502,89.6704 398.168,52.6704 398.5,15.5C 404.697,15.1335 410.531,15.1335 416,15.5C 416.831,52.6689 416.664,89.6689 415.5,126.5 Z"/></g>
<g><path style="opacity:0.008" fill="#bdbcbd" d="M 624.5,27.5 C 625.833,27.5 626.5,28.1667 626.5,29.5C 625.5,29.1667 624.833,28.5 624.5,27.5 Z"/></g>
<g><path style="opacity:0.463" fill="#757572" d="M 453.5,25.5 C 450.833,28.8333 447.833,31.8333 444.5,34.5C 446.5,30.5 449.5,27.5 453.5,25.5 Z"/></g>
<g><path style="opacity:0.569" fill="#5f5f5f" d="M 549.5,25.5 C 548.415,27.5869 546.749,28.9202 544.5,29.5C 545.585,27.4131 547.251,26.0798 549.5,25.5 Z"/></g>
<g><path style="opacity:0.047" fill="#a8a8a8" d="M 519.5,27.5 C 519.573,29.0269 518.906,30.0269 517.5,30.5C 517.427,28.9731 518.094,27.9731 519.5,27.5 Z"/></g>
<g><path style="opacity:0.471" fill="#8f8d8e" d="M 498.5,30.5 C 501.716,30.3455 504.383,31.3455 506.5,33.5C 503.603,32.871 500.936,31.871 498.5,30.5 Z"/></g>
<g><path style="opacity:0.18" fill="#9b9b9b" d="M 592.5,30.5 C 586.131,30.347 579.797,30.6803 573.5,31.5C 576.865,29.9608 580.531,29.2942 584.5,29.5C 587.355,29.5025 590.022,29.8359 592.5,30.5 Z"/></g>
<g><path style="opacity:0.49" fill="#868686" d="M 594.5,30.5 C 597.716,30.3455 600.383,31.3455 602.5,33.5C 599.603,32.871 596.936,31.871 594.5,30.5 Z"/></g>
<g><path style="opacity:0.008" fill="#b7b3b4" d="M 49.5,30.5 C 47.8984,32.0739 45.8984,32.7406 43.5,32.5C 45.1016,30.9261 47.1016,30.2594 49.5,30.5 Z"/></g>
<g><path style="opacity:0.361" fill="#8b8b8b" d="M 66.5,30.5 C 69.2282,30.1706 71.5615,30.8372 73.5,32.5C 70.8478,32.5905 68.5145,31.9238 66.5,30.5 Z"/></g>
<g><path style="opacity:0.004" fill="#bcbcbc" d="M 467.5,36.5 C 467.027,37.9063 466.027,38.573 464.5,38.5C 464.973,37.0937 465.973,36.427 467.5,36.5 Z"/></g>
<g><path style="opacity:0.169" fill="#7c7c79" d="M 441.5,38.5 C 441.573,40.0269 440.906,41.0269 439.5,41.5C 439.427,39.9731 440.094,38.9731 441.5,38.5 Z"/></g>
<g><path style="opacity:0.063" fill="#878586" d="M 635.5,40.5 C 637.25,41.6594 638.25,43.326 638.5,45.5C 636.75,44.3406 635.75,42.674 635.5,40.5 Z"/></g>
<g><path style="opacity:0.41" fill="#818080" d="M 202.5,101.5 C 203.458,73.1878 203.791,44.8544 203.5,16.5C 198.167,16.5 192.833,16.5 187.5,16.5C 192.233,15.8103 197.066,15.1437 202,14.5C 202.414,14.9574 202.914,15.2907 203.5,15.5C 205.962,42.8146 206.128,70.148 204,97.5C 203.79,99.0581 203.29,100.391 202.5,101.5 Z"/></g>
<g><path style="opacity:0.808" fill="#5a5a5a" d="M 553.5,45.5 C 552.89,47.4341 551.89,49.1007 550.5,50.5C 550.241,48.0107 551.241,46.344 553.5,45.5 Z"/></g>
<g><path style="opacity:0.207" fill="#7f7f7f" d="M 339.5,16.5 C 339.167,16.5 338.833,16.5 338.5,16.5C 333.167,16.5 327.833,16.5 322.5,16.5C 322.5,52.8333 322.5,89.1667 322.5,125.5C 322.5,125.833 322.5,126.167 322.5,126.5C 321.502,89.6704 321.168,52.6704 321.5,15.5C 326.717,15.7582 331.884,15.4249 337,14.5C 338.301,14.6387 339.134,15.3054 339.5,16.5 Z"/></g>
<g><path style="opacity:0.596" fill="#747474" d="M 640.5,50.5 C 641.924,52.5145 642.59,54.8478 642.5,57.5C 641.076,55.4855 640.41,53.1522 640.5,50.5 Z"/></g>
<g><path style="opacity:0.641" fill="#626061" d="M 149.5,101.5 C 147.133,100.129 145.467,98.1292 144.5,95.5C 145.491,69.2112 145.824,42.8779 145.5,16.5C 140.5,16.5 135.5,16.5 130.5,16.5C 130.5,42.1667 130.5,67.8333 130.5,93.5C 130.167,93.5 129.833,93.5 129.5,93.5C 128.295,67.2506 128.295,41.2506 129.5,15.5C 134.565,15.781 139.565,15.4476 144.5,14.5C 145.478,14.9767 146.311,15.6433 147,16.5C 147.333,42.8333 147.667,69.1667 148,95.5C 148.505,97.5183 149.005,99.5183 149.5,101.5 Z"/></g>
<g><path style="opacity:0.106" fill="#9b9b9b" d="M 255.5,53.5 C 257.539,54.911 258.539,56.911 258.5,59.5C 257.442,58.3998 256.608,57.0664 256,55.5C 255.617,56.056 255.117,56.3893 254.5,56.5C 254.263,55.209 254.596,54.209 255.5,53.5 Z"/></g>
<g><path style="opacity:0.204" fill="#878787" d="M 622.5,53.5 C 624.68,56.381 625.68,59.7144 625.5,63.5C 624.13,60.3811 623.13,57.0477 622.5,53.5 Z"/></g>
<g><path style="opacity:0.169" fill="#92928f" d="M 21.5,54.5 C 20.6641,58.3225 19.6641,61.9892 18.5,65.5C 18.1257,61.3526 19.1257,57.6859 21.5,54.5 Z"/></g>
<g><path style="opacity:0.169" fill="#939393" d="M 95.5,54.5 C 97.0739,56.1016 97.7406,58.1016 97.5,60.5C 96.2616,58.7857 95.595,56.7857 95.5,54.5 Z"/></g>
<g><path style="opacity:0.082" fill="#8b8b8b" d="M 236.5,55.5 C 236.598,57.5529 235.931,59.2196 234.5,60.5C 234.402,58.4471 235.069,56.7804 236.5,55.5 Z"/></g>
<g><path style="opacity:0.098" fill="#8b8b8b" d="M 2.5,55.5 C 2.43487,58.4282 1.7682,61.0948 0.5,63.5C 0.29379,60.5049 0.960457,57.8383 2.5,55.5 Z"/></g>
<g><path style="opacity:0.067" fill="#9a9496" d="M 259.5,61.5 C 260.931,62.7804 261.598,64.4471 261.5,66.5C 260.069,65.2196 259.402,63.5529 259.5,61.5 Z"/></g>
<g><path style="opacity:0.122" fill="#949494" d="M 252.5,60.5 C 252.598,62.5529 251.931,64.2196 250.5,65.5C 250.402,63.4471 251.069,61.7804 252.5,60.5 Z"/></g>
<g><path style="opacity:0.114" fill="#a9a5a2" d="M 451.5,57.5 C 450.635,65.4659 450.302,73.4659 450.5,81.5C 449.345,74.6791 449.179,67.6791 450,60.5C 450.232,59.2625 450.732,58.2625 451.5,57.5 Z"/></g>
<g><path style="opacity:0.278" fill="#787877" d="M 97.5,60.5 C 99.0186,63.5256 99.6852,66.8589 99.5,70.5C 99.3778,74.8776 98.8778,79.2109 98,83.5C 97.6174,84.056 97.1174,84.3893 96.5,84.5C 98.6444,76.577 98.9778,68.577 97.5,60.5 Z"/></g>
<g><path style="opacity:0.352" fill="#767676" d="M 433.5,56.5 C 432.167,66.5 432.167,76.5 433.5,86.5C 431.954,81.7672 431.287,76.7672 431.5,71.5C 431.287,66.2328 431.954,61.2328 433.5,56.5 Z"/></g>
<g><path style="opacity:0.231" fill="#7d7a7b" d="M 547.5,57.5 C 545.47,65.1001 545.137,72.7668 546.5,80.5C 544.084,73.7129 543.918,66.7129 546,59.5C 546.278,58.5842 546.778,57.9175 547.5,57.5 Z"/></g>
<g><path style="opacity:0.6" fill="#777273" d="M 529.5,55.5 C 528.195,66.1623 528.195,76.829 529.5,87.5C 525.502,76.8229 525.502,66.1563 529.5,55.5 Z"/></g>
<g><path style="opacity:0.178" fill="#969394" d="M 115.5,57.5 C 116.979,61.9093 117.646,66.576 117.5,71.5C 117.684,76.1071 117.017,80.4405 115.5,84.5C 116.732,75.4946 116.732,66.4946 115.5,57.5 Z"/></g>
<g><path style="opacity:0.106" fill="#979394" d="M 262.5,68.5 C 263.931,69.7804 264.598,71.4471 264.5,73.5C 263.069,72.2196 262.402,70.5529 262.5,68.5 Z"/></g>
<g><path style="opacity:0.337" fill="#81817e" d="M 187.5,16.5 C 187.667,42.1688 187.5,67.8355 187,93.5C 186.844,96.1909 186.011,98.5242 184.5,100.5C 185.488,96.0592 186.154,91.5592 186.5,87C 185.053,63.3209 185.387,39.8209 187.5,16.5 Z"/></g>
<g><path style="opacity:0.129" fill="#888888" d="M 248.5,69.5 C 248.598,71.5529 247.931,73.2196 246.5,74.5C 246.402,72.4471 247.069,70.7804 248.5,69.5 Z"/></g>
<g><path style="opacity:0.169" fill="#868685" d="M 18.5,65.5 C 18.4724,70.8617 18.8058,76.1951 19.5,81.5C 18.0648,78.4501 17.3981,75.1168 17.5,71.5C 17.5046,69.3035 17.838,67.3035 18.5,65.5 Z"/></g>
<g><path style="opacity:0.371" fill="#696969" d="M 71.5,79.5 C 64.3134,79.1755 57.3134,79.5088 50.5,80.5C 49.9569,80.44 49.6236,80.1067 49.5,79.5C 56.9898,78.1806 64.3231,78.1806 71.5,79.5 Z"/></g>
<g><path style="opacity:0.533" fill="#838383" d="M 71.5,79.5 C 73.2624,80.2623 74.2624,81.5956 74.5,83.5C 72.7376,82.7377 71.7376,81.4044 71.5,79.5 Z"/></g>
<g><path style="opacity:0.231" fill="#8f8f8f" d="M 625.5,78.5 C 625.829,81.2282 625.163,83.5615 623.5,85.5C 623.721,82.9327 624.388,80.5994 625.5,78.5 Z"/></g>
<g><path style="opacity:0.027" fill="#959595" d="M 51.5,81.5 C 52.9063,81.9731 53.573,82.9731 53.5,84.5C 52.0937,84.0269 51.427,83.0269 51.5,81.5 Z"/></g>
<g><path style="opacity:0.239" fill="#8c9079" d="M 0.5,79.5 C 1.7682,81.9052 2.43487,84.5718 2.5,87.5C 0.960457,85.1617 0.29379,82.4951 0.5,79.5 Z"/></g>
<g><path style="opacity:0.575" fill="#666666" d="M 268.5,82.5 C 269.404,83.209 269.737,84.209 269.5,85.5C 260.143,85.8316 250.81,85.4983 241.5,84.5C 241.624,83.8933 241.957,83.56 242.5,83.5C 242.833,84.8333 243.167,84.8333 243.5,83.5C 251.752,83.1842 259.919,83.5175 268,84.5C 268.464,83.9056 268.631,83.2389 268.5,82.5 Z"/></g>
<g><path style="opacity:0.365" fill="#808273" d="M 74.5,83.5 C 76.5869,84.5846 77.9202,86.2512 78.5,88.5C 76.4131,87.4154 75.0798,85.7488 74.5,83.5 Z"/></g>
<g><path style="opacity:0.438" fill="#7d7b7b" d="M 338.5,16.5 C 338.833,16.5 339.167,16.5 339.5,16.5C 340.568,47.8367 340.734,79.17 340,110.5C 352.091,109.346 364.258,109.179 376.5,110C 378.058,110.21 379.391,110.71 380.5,111.5C 380.167,111.5 379.833,111.5 379.5,111.5C 365.833,111.5 352.167,111.5 338.5,111.5C 338.5,79.8333 338.5,48.1667 338.5,16.5 Z"/></g>
<g><path style="opacity:0.275" fill="#8f8b8c" d="M 115.5,84.5 C 115.59,87.1522 114.924,89.4855 113.5,91.5C 113.41,88.8478 114.076,86.5145 115.5,84.5 Z"/></g>
<g><path style="opacity:0.004" fill="#aaaaaa" d="M 433.5,86.5 C 434.738,88.2143 435.405,90.2143 435.5,92.5C 433.926,90.8984 433.259,88.8984 433.5,86.5 Z"/></g>
<g><path style="opacity:0.176" fill="#999798" d="M 642.5,86.5 C 642.598,88.5529 641.931,90.2196 640.5,91.5C 640.402,89.4471 641.069,87.7804 642.5,86.5 Z"/></g>
<g><path style="opacity:0.925" fill="#565656" d="M 21.5,87.5 C 22.4918,89.4561 23.4918,91.4561 24.5,93.5C 22.087,92.3202 21.087,90.3202 21.5,87.5 Z"/></g>
<g><path style="opacity:0.188" fill="#878787" d="M 530.5,90.5 C 531.931,91.7804 532.598,93.4471 532.5,95.5C 531.069,94.2196 530.402,92.5529 530.5,90.5 Z"/></g>
<g><path style="opacity:0.522" fill="#7c8068" d="M 92.5,93.5 C 92.573,95.0269 91.9063,96.0269 90.5,96.5C 90.427,94.9731 91.0937,93.9731 92.5,93.5 Z"/></g>
<g><path style="opacity:0.094" fill="#949495" d="M 113.5,91.5 C 113.293,94.2406 112.293,96.5739 110.5,98.5C 110.707,95.7594 111.707,93.4261 113.5,91.5 Z"/></g>
<g><path style="opacity:0.184" fill="#797979" d="M 550.5,92.5 C 551.906,92.9731 552.573,93.9731 552.5,95.5C 551.094,95.0269 550.427,94.0269 550.5,92.5 Z"/></g>
<g><path style="opacity:0.165" fill="#9d9d9d" d="M 24.5,93.5 C 25.9063,93.9731 26.573,94.9731 26.5,96.5C 25.0937,96.0269 24.427,95.0269 24.5,93.5 Z"/></g>
<g><path style="opacity:0.165" fill="#939393" d="M 455.5,93.5 C 456.906,93.9731 457.573,94.9731 457.5,96.5C 456.094,96.0269 455.427,95.0269 455.5,93.5 Z"/></g>
<g><path style="opacity:0.071" fill="#9f9f9f" d="M 4.5,93.5 C 6.00751,95.1815 7.00751,97.1815 7.5,99.5C 5.46095,98.089 4.46095,96.089 4.5,93.5 Z"/></g>
<g><path style="opacity:0.137" fill="#8e8e8e" d="M 436.5,95.5 C 438.104,96.287 438.771,97.6203 438.5,99.5C 437.326,98.4863 436.66,97.153 436.5,95.5 Z"/></g>
<g><path style="opacity:0.978" fill="#616161" d="M 276.5,100.5 C 279.021,102.03 280.021,104.364 279.5,107.5C 277.935,105.491 276.935,103.157 276.5,100.5 Z"/></g>
<g><path style="opacity:0.09" fill="#919191" d="M 8.5,101.5 C 9.90632,101.973 10.573,102.973 10.5,104.5C 9.09368,104.027 8.42702,103.027 8.5,101.5 Z"/></g>
<g><path style="opacity:0.49" fill="#898b86" d="M 150.5,103.5 C 152.5,104.833 154.167,106.5 155.5,108.5C 152.833,107.833 151.167,106.167 150.5,103.5 Z"/></g>
<g><path style="opacity:0.38" fill="#757575" d="M 202.5,101.5 C 202.405,103.786 201.738,105.786 200.5,107.5C 200.259,105.102 200.926,103.102 202.5,101.5 Z"/></g>
<g><path style="opacity:0.016" fill="#9f9f9f" d="M 10.5,104.5 C 11.9063,104.973 12.573,105.973 12.5,107.5C 11.0937,107.027 10.427,106.027 10.5,104.5 Z"/></g>
<g><path style="opacity:0.118" fill="#959595" d="M 129.5,93.5 C 129.833,93.5 130.167,93.5 130.5,93.5C 131.051,99.3685 132.384,105.035 134.5,110.5C 131.145,105.431 129.479,99.7645 129.5,93.5 Z"/></g>
<g><path style="opacity:0.043" fill="#babab7" d="M 442.5,105.5 C 443.906,105.973 444.573,106.973 444.5,108.5C 443.094,108.027 442.427,107.027 442.5,105.5 Z"/></g>
<g><path style="opacity:0.004" fill="#b0b1a9" d="M 14.5,109.5 C 16.5,110.833 18.1667,112.5 19.5,114.5C 16.8333,113.833 15.1667,112.167 14.5,109.5 Z"/></g>
<g><path style="opacity:0.247" fill="#706e6e" d="M 73.5,108.5 C 74.8847,109.302 74.718,109.969 73,110.5C 71.5603,111.148 70.0603,111.481 68.5,111.5C 70.0725,110.313 71.7392,109.313 73.5,108.5 Z"/></g>
<g><path style="opacity:0.059" fill="#9b9a9b" d="M 176.5,109.5 C 175.365,111.213 173.698,111.88 171.5,111.5C 172.93,110.463 174.597,109.796 176.5,109.5 Z"/></g>
<g><path style="opacity:0.247" fill="#7a7a7a" d="M 473.5,109.5 C 475.786,109.595 477.786,110.262 479.5,111.5C 477.102,111.741 475.102,111.074 473.5,109.5 Z"/></g>
<g><path style="opacity:0.016" fill="#b0acad" d="M 102.5,110.5 C 101.5,111.833 100.5,113.167 99.5,114.5C 98.6679,112.275 99.6679,110.942 102.5,110.5 Z"/></g>
<g><path style="opacity:0.039" fill="#959595" d="M 158.5,110.5 C 162.785,111.295 167.119,111.628 171.5,111.5C 169.866,112.161 168.033,112.494 166,112.5C 163.134,112.7 160.634,112.033 158.5,110.5 Z"/></g>
<g><path style="opacity:0.32" fill="#797878" d="M 43.5,109.5 C 51.3204,112.332 59.3204,112.998 67.5,111.5C 61.0482,113.907 54.3815,114.074 47.5,112C 45.6803,111.8 44.347,110.966 43.5,109.5 Z"/></g>
<g><path style="opacity:0.047" fill="#aeaeae" d="M 134.5,110.5 C 135.906,110.973 136.573,111.973 136.5,113.5C 135.094,113.027 134.427,112.027 134.5,110.5 Z"/></g>
<g><path style="opacity:0.298" fill="#6c6c6c" d="M 479.5,111.5 C 484.482,112.053 489.482,112.387 494.5,112.5C 489.421,113.826 484.421,113.493 479.5,111.5 Z"/></g>
<g><path style="opacity:0.3" fill="#6a6a69" d="M 569.5,109.5 C 576.346,111.474 583.346,112.474 590.5,112.5C 583.158,114.194 576.158,113.194 569.5,109.5 Z"/></g>
<g><path style="opacity:0.106" fill="#8d8d8d" d="M 230.5,110.5 C 230.293,113.241 229.293,115.574 227.5,117.5C 227.707,114.759 228.707,112.426 230.5,110.5 Z"/></g>
<g><path style="opacity:0.675" fill="#6f6f6f" d="M 450.5,114.5 C 452.749,115.08 454.415,116.413 455.5,118.5C 453.251,117.92 451.585,116.587 450.5,114.5 Z"/></g>
<g><path style="opacity:0.137" fill="#868686" d="M 282.5,113.5 C 283.931,114.78 284.598,116.447 284.5,118.5C 283.069,117.22 282.402,115.553 282.5,113.5 Z"/></g>
<g><path style="opacity:0.314" fill="#7f8079" d="M 21.5,116.5 C 23.4044,116.738 24.7377,117.738 25.5,119.5C 23.5956,119.262 22.2623,118.262 21.5,116.5 Z"/></g>
<g><path style="opacity:0.616" fill="#7f7e7e" d="M 139.5,117.5 C 142.089,118.419 144.089,120.086 145.5,122.5C 142.911,121.581 140.911,119.914 139.5,117.5 Z"/></g>
<g><path style="opacity:0.875" fill="#5d5d5d" d="M 103.5,119.5 C 105.587,120.585 106.92,122.251 107.5,124.5C 105.413,123.415 104.08,121.749 103.5,119.5 Z"/></g>
<g><path style="opacity:0.224" fill="#7c7c7c" d="M 458.5,120.5 C 460.027,120.427 461.027,121.094 461.5,122.5C 459.973,122.573 458.973,121.906 458.5,120.5 Z"/></g>
<g><path style="opacity:0.035" fill="#8e8e8e" d="M 85.5,123.5 C 84.609,124.11 83.609,124.443 82.5,124.5C 83.221,122.618 84.221,122.285 85.5,123.5 Z"/></g>
<g><path style="opacity:0.149" fill="#888888" d="M 145.5,122.5 C 147.027,122.427 148.027,123.094 148.5,124.5C 146.973,124.573 145.973,123.906 145.5,122.5 Z"/></g>
<g><path style="opacity:0.137" fill="#a1a1a1" d="M 227.5,117.5 C 227.267,120.542 226.267,123.208 224.5,125.5C 224.733,122.458 225.733,119.792 227.5,117.5 Z"/></g>
<g><path style="opacity:0.031" fill="#939393" d="M 85.5,123.5 C 86.9063,123.973 87.573,124.973 87.5,126.5C 86.0937,126.027 85.427,125.027 85.5,123.5 Z"/></g>
<g><path style="opacity:0.212" fill="#929292" d="M 80.5,125.5 C 79.0697,126.537 77.403,127.204 75.5,127.5C 76.6354,125.787 78.302,125.12 80.5,125.5 Z"/></g>
<g><path style="opacity:0.624" fill="#696665" d="M 285.5,120.5 C 286.601,121.848 287.601,123.348 288.5,125C 293.823,125.499 299.156,125.666 304.5,125.5C 304.5,124.5 304.5,123.5 304.5,122.5C 306.688,124.092 306.688,125.426 304.5,126.5C 299.2,127.569 293.866,127.736 288.5,127C 286.549,125.266 285.549,123.099 285.5,120.5 Z"/></g>
<g><path style="opacity:0.626" fill="#636363" d="M 379.5,111.5 C 379.833,111.5 380.167,111.5 380.5,111.5C 381.164,113.81 381.497,116.31 381.5,119C 381.432,121.95 380.766,124.617 379.5,127C 360.334,126.514 341.334,126.348 322.5,126.5C 322.5,126.167 322.5,125.833 322.5,125.5C 341.5,125.5 360.5,125.5 379.5,125.5C 379.5,120.833 379.5,116.167 379.5,111.5 Z"/></g>
<g><path style="opacity:0.098" fill="#8f8f8f" d="M 465.5,124.5 C 467.553,124.402 469.22,125.069 470.5,126.5C 468.447,126.598 466.78,125.931 465.5,124.5 Z"/></g>
<g><path style="opacity:0.09" fill="#949192" d="M 514.5,124.5 C 513.22,125.931 511.553,126.598 509.5,126.5C 510.78,125.069 512.447,124.402 514.5,124.5 Z"/></g>
<g><path style="opacity:0.651" fill="#707070" d="M 152.5,126.5 C 155.152,126.41 157.485,127.076 159.5,128.5C 156.848,128.59 154.515,127.924 152.5,126.5 Z"/></g>
<g><path style="opacity:0.667" fill="#6e6f6d" d="M 470.5,126.5 C 475.65,127.377 480.65,128.377 485.5,129.5C 484.833,129.5 484.167,129.5 483.5,129.5C 478.808,129.575 474.474,128.575 470.5,126.5 Z"/></g>
<g><path style="opacity:0.333" fill="#747474" d="M 39.5,126.5 C 43.7607,126.898 47.7607,127.898 51.5,129.5C 47.1629,129.416 43.1629,128.416 39.5,126.5 Z"/></g>
<g><path style="opacity:0.337" fill="#686768" d="M 566.5,126.5 C 571.65,127.377 576.65,128.377 581.5,129.5C 580.833,129.5 580.167,129.5 579.5,129.5C 574.808,129.575 570.474,128.575 566.5,126.5 Z"/></g>
<g><path style="opacity:0.086" fill="#888888" d="M 177.5,127.5 C 174.114,128.97 170.447,129.637 166.5,129.5C 163.975,129.497 161.641,129.163 159.5,128.5C 165.523,128.498 171.523,128.165 177.5,127.5 Z"/></g>
<g><path style="opacity:0.047" fill="#a8a9a3" d="M 70.5,128.5 C 67.114,129.97 63.4473,130.637 59.5,130.5C 56.9746,130.497 54.6413,130.163 52.5,129.5C 58.5164,129.407 64.5164,129.074 70.5,128.5 Z"/></g>
<g><path style="opacity:0.043" fill="#b7b1b0" d="M 501.5,128.5 C 498.114,129.97 494.447,130.637 490.5,130.5C 487.975,130.497 485.641,130.163 483.5,129.5C 484.167,129.5 484.833,129.5 485.5,129.5C 490.854,129.431 496.187,129.098 501.5,128.5 Z"/></g>
<g><path style="opacity:0.06" fill="#b0ab9f" d="M 597.5,128.5 C 593.928,129.903 590.095,130.569 586,130.5C 583.639,130.496 581.473,130.163 579.5,129.5C 580.167,129.5 580.833,129.5 581.5,129.5C 586.854,129.431 592.187,129.098 597.5,128.5 Z"/></g>
<g><path style="opacity:0.608" fill="#61635d" d="M 112.5,130.5 C 113.478,130.811 114.145,131.478 114.5,132.5C 109.683,133.304 104.85,133.971 100,134.5C 97.2918,134.133 94.7918,133.466 92.5,132.5C 99.5837,133.126 106.25,132.459 112.5,130.5 Z"/></g>
<g><path style="opacity:0.227" fill="#7b7674" d="M 76.5,153.5 C 85.9911,152.342 95.6578,152.175 105.5,153C 106.416,153.278 107.082,153.778 107.5,154.5C 97.1985,153.6 86.8652,153.267 76.5,153.5 Z"/></g>
<g><path style="opacity:0.996" fill="#121111" d="M 178.5,152.5 C 180.214,153.738 182.214,154.405 184.5,154.5C 194.38,159.047 200.046,166.714 201.5,177.5C 201.689,183.282 201.022,188.948 199.5,194.5C 194.616,205.435 186.283,211.768 174.5,213.5C 172.5,213.5 170.5,213.5 168.5,213.5C 154.522,211.678 145.522,204.011 141.5,190.5C 141.347,184.131 141.68,177.797 142.5,171.5C 142.992,169.181 143.992,167.181 145.5,165.5C 147.262,164.738 148.262,163.404 148.5,161.5C 148.833,160.5 149.5,159.833 150.5,159.5C 152.404,159.262 153.738,158.262 154.5,156.5C 154.842,155.662 155.508,155.328 156.5,155.5C 157.496,155.414 158.329,155.748 159,156.5C 159.317,154.699 159.984,154.366 161,155.5C 162.098,154.033 163.598,153.199 165.5,153C 169.821,152.501 174.154,152.334 178.5,152.5 Z M 177.5,164.5 C 182.089,166.124 185.423,169.124 187.5,173.5C 189.064,177.674 189.731,182.007 189.5,186.5C 188.264,188.649 187.264,190.982 186.5,193.5C 184.5,194.833 182.833,196.5 181.5,198.5C 179.5,199.167 177.5,199.833 175.5,200.5C 170.638,200.882 165.972,200.216 161.5,198.5C 157.216,195.901 154.549,192.234 153.5,187.5C 153.372,183.119 153.705,178.785 154.5,174.5C 156.833,170.167 160.167,166.833 164.5,164.5C 168.845,163.274 173.178,163.274 177.5,164.5 Z"/></g>
<g><path style="opacity:0.118" fill="#9b9b9b" d="M 178.5,152.5 C 180.898,152.259 182.898,152.926 184.5,154.5C 182.214,154.405 180.214,153.738 178.5,152.5 Z"/></g>
<g><path style="opacity:0.251" fill="#75766d" d="M 331.5,153.5 C 318.456,152.853 305.789,153.52 293.5,155.5C 293.167,155.5 292.833,155.5 292.5,155.5C 291.402,154.603 291.402,153.77 292.5,153C 305.673,152.173 318.673,152.34 331.5,153.5 Z"/></g>
<g><path style="opacity:0.244" fill="#676660" d="M 388.5,154.5 C 378.539,153.576 368.539,153.242 358.5,153.5C 358.5,172.833 358.5,192.167 358.5,211.5C 357.503,192.007 357.17,172.34 357.5,152.5C 367.172,152.334 376.839,152.5 386.5,153C 387.416,153.278 388.082,153.778 388.5,154.5 Z"/></g>
<g><path style="opacity:0.996" fill="#151515" d="M 625.5,156.5 C 625.973,157.906 626.973,158.573 628.5,158.5C 628.846,162.431 627.012,165.431 623,167.5C 617.096,163.269 610.929,162.603 604.5,165.5C 601.833,167.5 601.833,169.5 604.5,171.5C 610.637,174.942 616.97,178.109 623.5,181C 626.118,183.106 628.118,185.606 629.5,188.5C 630.051,191.807 630.384,195.14 630.5,198.5C 629.934,202.797 627.934,206.297 624.5,209C 623.255,209.791 621.922,210.291 620.5,210.5C 618.447,210.402 616.78,211.069 615.5,212.5C 614.508,212.328 613.842,212.662 613.5,213.5C 611.167,213.5 608.833,213.5 606.5,213.5C 598.5,212.323 592.167,208.323 587.5,201.5C 589.372,198.418 591.705,195.751 594.5,193.5C 595.954,195.437 597.621,197.103 599.5,198.5C 599.973,199.906 600.973,200.573 602.5,200.5C 602.611,201.117 602.944,201.617 603.5,202C 606.696,202.805 609.696,202.638 612.5,201.5C 617.405,199.698 618.739,196.364 616.5,191.5C 616.027,190.094 615.027,189.427 613.5,189.5C 609.099,188.594 605.099,186.928 601.5,184.5C 601.027,183.094 600.027,182.427 598.5,182.5C 595.988,179.588 593.655,176.588 591.5,173.5C 591.505,169.466 591.838,165.466 592.5,161.5C 593.026,159.77 594.026,158.436 595.5,157.5C 597.404,157.262 598.738,156.262 599.5,154.5C 606.151,151.155 613.151,150.655 620.5,153C 622.584,153.697 624.251,154.864 625.5,156.5 Z"/></g>
<g><path style="opacity:0.997" fill="#0e0d0d" d="M 41.5,154.5 C 46.5,156.167 49.8333,159.5 51.5,164.5C 51.5,169.5 51.5,174.5 51.5,179.5C 49.3155,185.683 44.9821,189.35 38.5,190.5C 32.8333,190.5 27.1667,190.5 21.5,190.5C 21.5,197.5 21.5,204.5 21.5,211.5C 18.1667,212.833 14.8333,212.833 11.5,211.5C 11.5,192.167 11.5,172.833 11.5,153.5C 21.5321,153.271 31.5321,153.604 41.5,154.5 Z M 36.5,164.5 C 36.9731,165.906 37.9731,166.573 39.5,166.5C 39.5,166.833 39.5,167.167 39.5,167.5C 40.2186,169.764 40.552,172.097 40.5,174.5C 39.8645,176.795 38.5311,178.461 36.5,179.5C 31.682,180.321 27.0153,180.654 22.5,180.5C 22.3339,174.824 22.5006,169.157 23,163.5C 27.4014,164.467 31.9014,164.8 36.5,164.5 Z"/></g>
<g><path style="opacity:0.998" fill="#161616" d="M 76.5,153.5 C 86.8652,153.267 97.1985,153.6 107.5,154.5C 111.767,155.768 114.767,158.435 116.5,162.5C 117.254,167.463 117.587,172.463 117.5,177.5C 115.745,183.09 112.079,186.923 106.5,189C 109.119,191.784 111.119,194.951 112.5,198.5C 112.427,200.027 113.094,201.027 114.5,201.5C 116.653,203.794 118.32,206.46 119.5,209.5C 119.179,211.048 118.179,211.715 116.5,211.5C 113.123,212.901 109.79,212.735 106.5,211C 102.11,204.385 98.11,197.552 94.5,190.5C 92.3926,189.532 90.0593,189.198 87.5,189.5C 87.5,196.833 87.5,204.167 87.5,211.5C 84.0242,212.643 80.3575,212.81 76.5,212C 76.0426,211.586 75.7093,211.086 75.5,210.5C 75.1725,191.229 75.5058,172.229 76.5,153.5 Z M 102.5,164.5 C 103.167,165.833 104.167,166.833 105.5,167.5C 106.231,171.603 105.231,175.103 102.5,178C 97.5518,178.459 92.8851,178.959 88.5,179.5C 88.5,174.5 88.5,169.5 88.5,164.5C 93.1667,164.5 97.8333,164.5 102.5,164.5 Z"/></g>
<g><path style="opacity:0.997" fill="#0a0a09" d="M 254.5,153.5 C 260.242,154.249 264.242,157.249 266.5,162.5C 266.808,166.36 267.475,170.026 268.5,173.5C 268.5,174.167 268.5,174.833 268.5,175.5C 267.566,176.568 267.232,177.901 267.5,179.5C 266.647,183.02 264.647,185.687 261.5,187.5C 258.606,187.556 255.939,188.39 253.5,190C 248.177,190.499 242.844,190.666 237.5,190.5C 237.5,197.5 237.5,204.5 237.5,211.5C 234.167,212.833 230.833,212.833 227.5,211.5C 227.5,192.167 227.5,172.833 227.5,153.5C 236.5,153.5 245.5,153.5 254.5,153.5 Z M 252.5,164.5 C 252.973,165.906 253.973,166.573 255.5,166.5C 257.582,171.733 256.582,176.067 252.5,179.5C 247.881,180.314 243.214,180.647 238.5,180.5C 238.682,175.347 238.682,170.014 238.5,164.5C 243.167,164.5 247.833,164.5 252.5,164.5 Z"/></g>
<g><path style="opacity:0.998" fill="#050404" d="M 331.5,153.5 C 331.5,156.5 331.5,159.5 331.5,162.5C 321.985,162.173 312.652,162.506 303.5,163.5C 303.5,167.833 303.5,172.167 303.5,176.5C 311.65,177.493 319.983,177.826 328.5,177.5C 328.5,180.5 328.5,183.5 328.5,186.5C 319.983,186.174 311.65,186.507 303.5,187.5C 303.5,192.167 303.5,196.833 303.5,201.5C 312.833,201.5 322.167,201.5 331.5,201.5C 332.833,204.833 332.833,208.167 331.5,211.5C 318.833,211.5 306.167,211.5 293.5,211.5C 293.5,192.833 293.5,174.167 293.5,155.5C 305.789,153.52 318.456,152.853 331.5,153.5 Z"/></g>
<g><path style="opacity:0.997" fill="#0e0d0d" d="M 388.5,154.5 C 392.046,155.385 394.712,157.385 396.5,160.5C 396.427,162.027 397.094,163.027 398.5,163.5C 398.5,163.833 398.5,164.167 398.5,164.5C 398.5,169.167 398.5,173.833 398.5,178.5C 397.232,182.767 394.565,185.767 390.5,187.5C 389.325,187.281 388.325,187.614 387.5,188.5C 387.624,189.107 387.957,189.44 388.5,189.5C 390.89,192.566 392.89,195.9 394.5,199.5C 394.427,201.027 395.094,202.027 396.5,202.5C 398.083,204.663 399.416,206.996 400.5,209.5C 398.365,211.369 395.698,212.036 392.5,211.5C 391.153,212.028 389.819,212.195 388.5,212C 386.097,208.689 384.097,205.189 382.5,201.5C 382.33,200.178 382.663,199.011 383.5,198C 382.099,197.59 380.766,197.09 379.5,196.5C 379.573,194.973 378.906,193.973 377.5,193.5C 376.596,192.791 376.263,191.791 376.5,190.5C 374.052,189.527 371.385,189.194 368.5,189.5C 368.5,196.833 368.5,204.167 368.5,211.5C 365.167,212.833 361.833,212.833 358.5,211.5C 358.5,192.167 358.5,172.833 358.5,153.5C 368.539,153.242 378.539,153.576 388.5,154.5 Z M 369.5,163.5 C 374.07,164.441 378.737,164.774 383.5,164.5C 386.184,166.871 387.518,169.871 387.5,173.5C 386.396,175.389 385.063,177.055 383.5,178.5C 379.078,179.01 374.578,179.343 370,179.5C 369.501,174.177 369.334,168.844 369.5,163.5 Z"/></g>
<g><path style="opacity:0.997" fill="#0d0c0c" d="M 464.5,163.5 C 458.833,163.5 453.167,163.5 447.5,163.5C 447.5,179.167 447.5,194.833 447.5,210.5C 443.833,210.5 440.167,210.5 436.5,210.5C 436.5,194.833 436.5,179.167 436.5,163.5C 430.833,163.5 425.167,163.5 419.5,163.5C 418.479,159.896 418.479,156.229 419.5,152.5C 434.5,152.5 449.5,152.5 464.5,152.5C 464.5,156.167 464.5,159.833 464.5,163.5 Z"/></g>
<g><path style="opacity:0.999" fill="#040303" d="M 566.5,153.5 C 566.216,156.777 566.549,159.943 567.5,163C 566.906,163.464 566.239,163.631 565.5,163.5C 556.5,163.5 547.5,163.5 538.5,163.5C 538.5,167.833 538.5,172.167 538.5,176.5C 546.65,177.493 554.983,177.826 563.5,177.5C 563.194,180.385 563.527,183.052 564.5,185.5C 564.5,185.833 564.5,186.167 564.5,186.5C 555.651,186.174 546.984,186.507 538.5,187.5C 538.5,192.167 538.5,196.833 538.5,201.5C 547.833,201.5 557.167,201.5 566.5,201.5C 566.5,204.5 566.5,207.5 566.5,210.5C 553.833,210.5 541.167,210.5 528.5,210.5C 528.5,191.5 528.5,172.5 528.5,153.5C 541.167,153.5 553.833,153.5 566.5,153.5 Z"/></g>
<g><path style="opacity:0.953" fill="#575757" d="M 178.5,152.5 C 174.154,152.334 169.821,152.501 165.5,153C 163.598,153.199 162.098,154.033 161,155.5C 159.984,154.366 159.317,154.699 159,156.5C 158.329,155.748 157.496,155.414 156.5,155.5C 158.734,153.554 161.401,152.387 164.5,152C 169.352,151.185 174.019,151.352 178.5,152.5 Z"/></g>
<g><path style="opacity:0.455" fill="#7c7a7b" d="M 599.5,154.5 C 598.738,156.262 597.404,157.262 595.5,157.5C 596.262,155.738 597.596,154.738 599.5,154.5 Z"/></g>
<g><path style="opacity:0.268" fill="#7c736a" d="M 41.5,154.5 C 31.5321,153.604 21.5321,153.271 11.5,153.5C 11.5,172.833 11.5,192.167 11.5,211.5C 10.5029,192.007 10.1696,172.34 10.5,152.5C 20.1724,152.334 29.8391,152.5 39.5,153C 40.4158,153.278 41.0825,153.778 41.5,154.5 Z"/></g>
<g><path style="opacity:0.024" fill="#a2a2a0" d="M 625.5,156.5 C 627.027,156.427 628.027,157.094 628.5,158.5C 626.973,158.573 625.973,157.906 625.5,156.5 Z"/></g>
<g><path style="opacity:0.318" fill="#878787" d="M 154.5,156.5 C 153.738,158.262 152.404,159.262 150.5,159.5C 151.262,157.738 152.596,156.738 154.5,156.5 Z"/></g>
<g><path style="opacity:0.28" fill="#717267" d="M 254.5,153.5 C 245.5,153.5 236.5,153.5 227.5,153.5C 227.5,172.833 227.5,192.167 227.5,211.5C 226.503,192.007 226.17,172.34 226.5,152.5C 236.015,152.173 245.348,152.506 254.5,153.5 Z"/></g>
<g><path style="opacity:0.51" fill="#868686" d="M 148.5,161.5 C 148.262,163.404 147.262,164.738 145.5,165.5C 145.738,163.596 146.738,162.262 148.5,161.5 Z"/></g>
<g><path style="opacity:0.337" fill="#6d6c6d" d="M 177.5,164.5 C 173.178,163.274 168.845,163.274 164.5,164.5C 166.29,163.003 168.456,162.336 171,162.5C 173.544,162.336 175.71,163.003 177.5,164.5 Z"/></g>
<g><path style="opacity:0.613" fill="#464240" d="M 331.5,153.5 C 332.479,156.625 332.813,159.958 332.5,163.5C 331.5,163.5 330.5,163.5 329.5,163.5C 320.833,163.5 312.167,163.5 303.5,163.5C 312.652,162.506 321.985,162.173 331.5,162.5C 331.5,159.5 331.5,156.5 331.5,153.5 Z"/></g>
<g><path style="opacity:0.09" fill="#a6a3a4" d="M 396.5,160.5 C 397.906,160.973 398.573,161.973 398.5,163.5C 397.094,163.027 396.427,162.027 396.5,160.5 Z"/></g>
<g><path style="opacity:0.024" fill="#b4a8a9" d="M 303.5,163.5 C 312.167,163.5 320.833,163.5 329.5,163.5C 321.35,164.493 313.017,164.826 304.5,164.5C 304.5,168.5 304.5,172.5 304.5,176.5C 304.167,176.5 303.833,176.5 303.5,176.5C 303.5,172.167 303.5,167.833 303.5,163.5 Z"/></g>
<g><path style="opacity:0.037" fill="#b4b1b0" d="M 565.5,163.5 C 557.016,164.493 548.349,164.826 539.5,164.5C 539.5,168.5 539.5,172.5 539.5,176.5C 539.167,176.5 538.833,176.5 538.5,176.5C 538.5,172.167 538.5,167.833 538.5,163.5C 547.5,163.5 556.5,163.5 565.5,163.5 Z"/></g>
<g><path style="opacity:0.416" fill="#929292" d="M 36.5,164.5 C 38.0269,164.427 39.0269,165.094 39.5,166.5C 37.9731,166.573 36.9731,165.906 36.5,164.5 Z"/></g>
<g><path style="opacity:0.518" fill="#858283" d="M 102.5,164.5 C 104.5,164.5 105.5,165.5 105.5,167.5C 104.167,166.833 103.167,165.833 102.5,164.5 Z"/></g>
<g><path style="opacity:0.408" fill="#808080" d="M 252.5,164.5 C 254.027,164.427 255.027,165.094 255.5,166.5C 253.973,166.573 252.973,165.906 252.5,164.5 Z"/></g>
<g><path style="opacity:0.306" fill="#8e8b8a" d="M 383.5,164.5 C 387.88,166.252 389.213,169.252 387.5,173.5C 387.518,169.871 386.184,166.871 383.5,164.5 Z"/></g>
<g><path style="opacity:0.086" fill="#ababa4" d="M 102.5,164.5 C 97.8333,164.5 93.1667,164.5 88.5,164.5C 88.5,169.5 88.5,174.5 88.5,179.5C 87.5119,174.36 87.1786,169.026 87.5,163.5C 92.6946,163.179 97.6946,163.513 102.5,164.5 Z"/></g>
<g><path style="opacity:0.365" fill="#737472" d="M 252.5,164.5 C 247.833,164.5 243.167,164.5 238.5,164.5C 238.682,170.014 238.682,175.347 238.5,180.5C 237.511,175.025 237.178,169.358 237.5,163.5C 242.695,163.179 247.695,163.513 252.5,164.5 Z"/></g>
<g><path style="opacity:0.094" fill="#969592" d="M 464.5,163.5 C 459.36,164.488 454.026,164.821 448.5,164.5C 448.83,180.342 448.496,196.009 447.5,211.5C 447.5,211.167 447.5,210.833 447.5,210.5C 447.5,194.833 447.5,179.167 447.5,163.5C 453.167,163.5 458.833,163.5 464.5,163.5 Z"/></g>
<g><path style="opacity:0.211" fill="#8d8b8c" d="M 592.5,161.5 C 591.838,165.466 591.505,169.466 591.5,173.5C 590.842,172.207 590.508,170.707 590.5,169C 590.408,166.179 591.074,163.679 592.5,161.5 Z"/></g>
<g><path style="opacity:0.404" fill="#70716d" d="M 604.5,165.5 C 603.167,167.5 603.167,169.5 604.5,171.5C 601.833,169.5 601.833,167.5 604.5,165.5 Z"/></g>
<g><path style="opacity:0.337" fill="#71716e" d="M 116.5,162.5 C 117.991,165.186 118.657,168.186 118.5,171.5C 118.495,173.696 118.162,175.696 117.5,177.5C 117.587,172.463 117.254,167.463 116.5,162.5 Z"/></g>
<g><path style="opacity:0.635" fill="#676465" d="M 398.5,164.5 C 401.076,169.149 401.076,173.816 398.5,178.5C 398.5,173.833 398.5,169.167 398.5,164.5 Z"/></g>
<g><path style="opacity:0.706" fill="#6b6b6b" d="M 51.5,164.5 C 54.1667,169.5 54.1667,174.5 51.5,179.5C 51.5,174.5 51.5,169.5 51.5,164.5 Z"/></g>
<g><path style="opacity:0.169" fill="#7f7f7d" d="M 39.5,167.5 C 40.9931,168.312 41.6598,169.645 41.5,171.5C 41.4805,172.726 41.1471,173.726 40.5,174.5C 40.552,172.097 40.2186,169.764 39.5,167.5 Z"/></g>
<g><path style="opacity:0.816" fill="#525251" d="M 266.5,162.5 C 267.868,164.418 268.868,166.585 269.5,169C 269.481,170.521 269.148,172.021 268.5,173.5C 267.475,170.026 266.808,166.36 266.5,162.5 Z"/></g>
<g><path style="opacity:0.054" fill="#a3a2a2" d="M 419.5,163.5 C 425.167,163.5 430.833,163.5 436.5,163.5C 436.5,179.167 436.5,194.833 436.5,210.5C 436.5,210.833 436.5,211.167 436.5,211.5C 435.504,196.009 435.17,180.342 435.5,164.5C 429.974,164.821 424.64,164.488 419.5,163.5 Z"/></g>
<g><path style="opacity:0.569" fill="#4e4e4e" d="M 564.5,185.5 C 563.527,183.052 563.194,180.385 563.5,177.5C 554.983,177.826 546.65,177.493 538.5,176.5C 538.833,176.5 539.167,176.5 539.5,176.5C 547.657,175.336 555.99,175.336 564.5,176.5C 564.5,179.5 564.5,182.5 564.5,185.5 Z"/></g>
<g><path style="opacity:0.055" fill="#909090" d="M 268.5,175.5 C 268.938,175.435 269.272,175.601 269.5,176C 268.915,177.302 268.249,178.469 267.5,179.5C 267.232,177.901 267.566,176.568 268.5,175.5 Z"/></g>
<g><path style="opacity:0.482" fill="#787976" d="M 591.5,173.5 C 593.655,176.588 595.988,179.588 598.5,182.5C 594.496,180.837 592.163,177.837 591.5,173.5 Z"/></g>
<g><path style="opacity:0.079" fill="#9c9c9c" d="M 201.5,177.5 C 202.643,180.976 202.81,184.642 202,188.5C 201.76,190.852 200.927,192.852 199.5,194.5C 201.022,188.948 201.689,183.282 201.5,177.5 Z"/></g>
<g><path style="opacity:0.658" fill="#5e5e5e" d="M 369.5,163.5 C 369.334,168.844 369.501,174.177 370,179.5C 374.578,179.343 379.078,179.01 383.5,178.5C 383.082,179.222 382.416,179.722 381.5,180C 377.179,180.499 372.846,180.666 368.5,180.5C 368.178,174.642 368.511,168.975 369.5,163.5 Z"/></g>
<g><path style="opacity:0.425" fill="#686665" d="M 36.5,179.5 C 34.1934,181.047 31.5267,181.713 28.5,181.5C 26.3035,181.495 24.3035,181.162 22.5,180.5C 27.0153,180.654 31.682,180.321 36.5,179.5 Z"/></g>
<g><path style="opacity:0.443" fill="#878685" d="M 142.5,171.5 C 141.68,177.797 141.347,184.131 141.5,190.5C 139.045,184.074 139.378,177.741 142.5,171.5 Z"/></g>
<g><path style="opacity:0.18" fill="#7b7979" d="M 187.5,173.5 C 188.966,174.347 189.8,175.68 190,177.5C 190.805,180.696 190.638,183.696 189.5,186.5C 189.731,182.007 189.064,177.674 187.5,173.5 Z"/></g>
<g><path style="opacity:0.42" fill="#595959" d="M 252.5,179.5 C 250.193,181.047 247.527,181.713 244.5,181.5C 242.304,181.495 240.304,181.162 238.5,180.5C 243.214,180.647 247.881,180.314 252.5,179.5 Z"/></g>
<g><path style="opacity:0.75" fill="#5b5856" d="M 566.5,153.5 C 553.833,153.5 541.167,153.5 528.5,153.5C 528.5,172.5 528.5,191.5 528.5,210.5C 541.167,210.5 553.833,210.5 566.5,210.5C 560.369,211.83 553.869,212.497 547,212.5C 540.5,212.333 534,212.167 527.5,212C 526.839,202.241 526.506,192.408 526.5,182.5C 526.506,172.592 526.839,162.759 527.5,153C 540.673,152.173 553.673,152.34 566.5,153.5 Z"/></g>
<g><path style="opacity:0.047" fill="#a4a3a3" d="M 154.5,174.5 C 153.705,178.785 153.372,183.119 153.5,187.5C 152.839,185.866 152.506,184.033 152.5,182C 152.3,179.134 152.967,176.634 154.5,174.5 Z"/></g>
<g><path style="opacity:0.756" fill="#5e5d5a" d="M 498.5,153.5 C 499.662,172.662 499.829,191.996 499,211.5C 495.27,212.46 491.437,212.793 487.5,212.5C 486.557,192.512 486.557,172.512 487.5,152.5C 491.371,152.185 495.038,152.518 498.5,153.5 Z"/></g>
<g><path style="opacity:0.998" fill="#010101" d="M 498.5,153.5 C 498.5,172.5 498.5,191.5 498.5,210.5C 495.167,210.5 491.833,210.5 488.5,210.5C 488.5,191.5 488.5,172.5 488.5,153.5C 491.833,153.5 495.167,153.5 498.5,153.5 Z"/></g>
<g><path style="opacity:0.153" fill="#7f807d" d="M 598.5,182.5 C 600.027,182.427 601.027,183.094 601.5,184.5C 599.973,184.573 598.973,183.906 598.5,182.5 Z"/></g>
<g><path style="opacity:0.485" fill="#5a5a58" d="M 304.5,187.5 C 304.167,187.5 303.833,187.5 303.5,187.5C 311.65,186.507 319.983,186.174 328.5,186.5C 328.5,183.5 328.5,180.5 328.5,177.5C 319.983,177.826 311.65,177.493 303.5,176.5C 303.833,176.5 304.167,176.5 304.5,176.5C 313.12,175.922 321.786,175.922 330.5,176.5C 329.913,180.071 329.913,183.737 330.5,187.5C 321.833,187.5 313.167,187.5 304.5,187.5 Z"/></g>
<g><path style="opacity:0.501" fill="#616161" d="M 538.5,187.5 C 546.984,186.507 555.651,186.174 564.5,186.5C 556.148,188.354 547.815,188.688 539.5,187.5C 539.167,187.5 538.833,187.5 538.5,187.5 Z"/></g>
<g><path style="opacity:0.208" fill="#888686" d="M 390.5,187.5 C 389.833,188.167 389.167,188.833 388.5,189.5C 387.957,189.44 387.624,189.107 387.5,188.5C 388.325,187.614 389.325,187.281 390.5,187.5 Z"/></g>
<g><path style="opacity:0.639" fill="#767573" d="M 292.5,155.5 C 292.833,155.5 293.167,155.5 293.5,155.5C 293.5,174.167 293.5,192.833 293.5,211.5C 306.167,211.5 318.833,211.5 331.5,211.5C 318.431,212.83 305.265,212.83 292,211.5C 292.471,192.893 292.638,174.227 292.5,155.5 Z"/></g>
<g><path style="opacity:0.248" fill="#747474" d="M 261.5,187.5 C 259.507,189.163 257.174,190.33 254.5,191C 249.177,191.499 243.844,191.666 238.5,191.5C 239.841,198.37 239.508,205.036 237.5,211.5C 237.5,204.5 237.5,197.5 237.5,190.5C 242.844,190.666 248.177,190.499 253.5,190C 255.939,188.39 258.606,187.556 261.5,187.5 Z"/></g>
<g><path style="opacity:0.298" fill="#838181" d="M 613.5,189.5 C 615.027,189.427 616.027,190.094 616.5,191.5C 614.973,191.573 613.973,190.906 613.5,189.5 Z"/></g>
<g><path style="opacity:0.378" fill="#6b6a6b" d="M 38.5,190.5 C 33.3595,191.488 28.0262,191.821 22.5,191.5C 22.824,198.354 22.4907,205.021 21.5,211.5C 21.5,204.5 21.5,197.5 21.5,190.5C 27.1667,190.5 32.8333,190.5 38.5,190.5 Z"/></g>
<g><path style="opacity:0.067" fill="#a4a2a2" d="M 94.5,190.5 C 92.5,190.5 90.5,190.5 88.5,190.5C 88.8245,197.687 88.4912,204.687 87.5,211.5C 87.5,204.167 87.5,196.833 87.5,189.5C 90.0593,189.198 92.3926,189.532 94.5,190.5 Z"/></g>
<g><path style="opacity:0.004" fill="#cacaca" d="M 377.5,193.5 C 378.906,193.973 379.573,194.973 379.5,196.5C 378.094,196.027 377.427,195.027 377.5,193.5 Z"/></g>
<g><path style="opacity:0.435" fill="#787774" d="M 186.5,193.5 C 185.833,196.167 184.167,197.833 181.5,198.5C 182.833,196.5 184.5,194.833 186.5,193.5 Z"/></g>
<g><path style="opacity:0.302" fill="#797978" d="M 376.5,190.5 C 374.208,190.244 372.041,190.577 370,191.5C 369.828,198.346 369.328,205.013 368.5,211.5C 368.5,204.167 368.5,196.833 368.5,189.5C 371.385,189.194 374.052,189.527 376.5,190.5 Z"/></g>
<g><path style="opacity:0.043" fill="#8e8e8e" d="M 629.5,188.5 C 631.531,191.708 631.865,195.041 630.5,198.5C 630.384,195.14 630.051,191.807 629.5,188.5 Z"/></g>
<g><path style="opacity:0.99" fill="#5f5f5f" d="M 379.5,196.5 C 380.766,197.09 382.099,197.59 383.5,198C 382.663,199.011 382.33,200.178 382.5,201.5C 380.75,200.341 379.75,198.674 379.5,196.5 Z"/></g>
<g><path style="opacity:0.11" fill="#949494" d="M 599.5,198.5 C 601.027,198.427 602.027,199.094 602.5,200.5C 600.973,200.573 599.973,199.906 599.5,198.5 Z"/></g>
<g><path style="opacity:0.286" fill="#858585" d="M 112.5,198.5 C 113.906,198.973 114.573,199.973 114.5,201.5C 113.094,201.027 112.427,200.027 112.5,198.5 Z"/></g>
<g><path style="opacity:0.027" fill="#b0aba3" d="M 161.5,198.5 C 165.972,200.216 170.638,200.882 175.5,200.5C 172.024,201.643 168.358,201.81 164.5,201C 163.058,200.623 162.058,199.79 161.5,198.5 Z"/></g>
<g><path style="opacity:0.156" fill="#948c8a" d="M 303.5,187.5 C 303.833,187.5 304.167,187.5 304.5,187.5C 304.5,191.833 304.5,196.167 304.5,200.5C 313.682,200.173 322.682,200.507 331.5,201.5C 322.167,201.5 312.833,201.5 303.5,201.5C 303.5,196.833 303.5,192.167 303.5,187.5 Z"/></g>
<g><path style="opacity:0.142" fill="#948e8b" d="M 538.5,187.5 C 538.833,187.5 539.167,187.5 539.5,187.5C 539.5,191.833 539.5,196.167 539.5,200.5C 548.682,200.173 557.682,200.507 566.5,201.5C 557.167,201.5 547.833,201.5 538.5,201.5C 538.5,196.833 538.5,192.167 538.5,187.5 Z"/></g>
<g><path style="opacity:0.29" fill="#7d846c" d="M 394.5,199.5 C 395.906,199.973 396.573,200.973 396.5,202.5C 395.094,202.027 394.427,201.027 394.5,199.5 Z"/></g>
<g><path style="opacity:0.158" fill="#676767" d="M 602.5,200.5 C 605.786,201.207 609.119,201.54 612.5,201.5C 609.696,202.638 606.696,202.805 603.5,202C 602.944,201.617 602.611,201.117 602.5,200.5 Z"/></g>
<g><path style="opacity:0.825" fill="#474847" d="M 436.5,210.5 C 440.167,210.5 443.833,210.5 447.5,210.5C 447.5,210.833 447.5,211.167 447.5,211.5C 443.609,212.057 439.942,212.057 436.5,211.5C 436.5,211.167 436.5,210.833 436.5,210.5 Z"/></g>
<g><path style="opacity:0.067" fill="#96928f" d="M 119.5,209.5 C 120.404,210.209 120.737,211.209 120.5,212.5C 118.901,212.768 117.568,212.434 116.5,211.5C 118.179,211.715 119.179,211.048 119.5,209.5 Z"/></g>
<g><path style="opacity:0.047" fill="#9e9b9a" d="M 400.5,209.5 C 402.233,210.008 402.566,210.841 401.5,212C 398.304,212.805 395.304,212.638 392.5,211.5C 395.698,212.036 398.365,211.369 400.5,209.5 Z"/></g>
<g><path style="opacity:0.055" fill="#9a898a" d="M 620.5,210.5 C 619.22,211.931 617.553,212.598 615.5,212.5C 616.78,211.069 618.447,210.402 620.5,210.5 Z"/></g>
</svg>
