<?xml version="1.0" encoding="UTF-8"?>
<!DOCTYPE svg PUBLIC "-//W3C//DTD SVG 1.1//EN" "http://www.w3.org/Graphics/SVG/1.1/DTD/svg11.dtd">
<svg xmlns="http://www.w3.org/2000/svg" version="1.1" width="1260px" height="430px" style="shape-rendering:geometricPrecision; text-rendering:geometricPrecision; image-rendering:optimizeQuality; fill-rule:evenodd; clip-rule:evenodd" xmlns:xlink="http://www.w3.org/1999/xlink">
<g><path style="opacity:0.996" fill="#000000" d="M -0.5,0.5 C 79.1667,0.5 158.833,0.5 238.5,0.5C 238.5,20.5 238.5,40.5 238.5,60.5C 178.498,60.5 118.498,60.1666 58.5,59.5C 58.5,182.5 58.5,305.5 58.5,428.5C 38.8333,428.5 19.1667,428.5 -0.5,428.5C -0.5,285.833 -0.5,143.167 -0.5,0.5 Z"/></g>
<g><path style="opacity:0.991" fill="#000000" d="M 791.5,0.5 C 813.526,0.133776 835.526,0.633776 857.5,2C 884.264,4.14158 908.598,12.8082 930.5,28C 947.317,41.7788 958.484,59.2788 964,80.5C 967.16,91.968 969.16,103.635 970,115.5C 970.667,183.5 970.667,251.5 970,319.5C 966.812,350.667 952.645,375.5 927.5,394C 906.353,409.734 882.686,419.734 856.5,424C 827.806,426.169 799.139,425.836 770.5,423C 690.701,409.932 654.868,363.098 663,282.5C 667.758,238.134 690.924,207.967 732.5,192C 744.83,187.601 757.497,184.601 770.5,183C 818.146,181.556 865.813,181.056 913.5,181.5C 925.956,90.4583 886.623,49.9583 795.5,60C 761.481,63.8285 734.815,79.6618 715.5,107.5C 701.516,94.6831 687.682,81.6831 674,68.5C 673.365,66.3646 673.699,64.3646 675,62.5C 704.308,24.094 743.141,3.42732 791.5,0.5 Z M 797.5,233.5 C 836.167,233.5 874.833,233.5 913.5,233.5C 913.897,258.526 913.397,283.526 912,308.5C 910.837,328.685 901.67,343.851 884.5,354C 860.854,366.263 835.687,371.763 809,370.5C 783.988,371.832 760.488,366.666 738.5,355C 718.82,339.651 710.653,319.484 714,294.5C 718.547,264.948 735.38,246.448 764.5,239C 775.512,236.359 786.512,234.525 797.5,233.5 Z"/></g>
<g><path style="opacity:0.996" fill="#000000" d="M 1199.5,0.5 C 1219.17,0.5 1238.83,0.5 1258.5,0.5C 1258.5,143.167 1258.5,285.833 1258.5,428.5C 1178.83,428.5 1099.17,428.5 1019.5,428.5C 1019.5,408.5 1019.5,388.5 1019.5,368.5C 1079.5,368.5 1139.5,368.833 1199.5,369.5C 1199.5,246.5 1199.5,123.5 1199.5,0.5 Z"/></g>
<g><path style="opacity:0.991" fill="#000000" d="M 411.5,3.5 C 429.503,3.33339 447.503,3.50006 465.5,4C 495.254,4.35367 522.921,12.0203 548.5,27C 582.09,51.1863 598.09,84.1863 596.5,126C 594.872,194.969 559.872,234.636 491.5,245C 484.525,245.921 477.525,246.588 470.5,247C 428.501,247.5 386.501,247.667 344.5,247.5C 332.044,338.542 371.377,379.042 462.5,369C 496.519,365.172 523.185,349.338 542.5,321.5C 556.484,334.317 570.318,347.317 584,360.5C 584.667,361.833 584.667,363.167 584,364.5C 555.193,404.328 516.026,425.495 466.5,428C 441.775,429.102 417.108,428.435 392.5,426C 365.815,422.816 342.148,412.816 321.5,396C 306.05,380.606 296.217,362.106 292,340.5C 290.014,331.597 288.681,322.597 288,313.5C 287.333,245.5 287.333,177.5 288,109.5C 291.847,76.633 307.347,50.7996 334.5,32C 357.774,15.8552 383.441,6.35524 411.5,3.5 Z M 429.5,58.5 C 451.035,57.4316 472.369,58.9316 493.5,63C 534.944,75.3623 551.111,102.862 542,145.5C 535.219,166.948 521.052,181.114 499.5,188C 492.312,190.297 484.978,191.964 477.5,193C 433.191,194.451 388.858,194.951 344.5,194.5C 344.105,169.807 344.605,145.14 346,120.5C 347.002,103.325 354.169,89.4919 367.5,79C 386.506,66.9204 407.173,60.0871 429.5,58.5 Z"/></g>
</svg>
