<svg class="img-fluid" id="outputsvg" xmlns="http://www.w3.org/2000/svg"
    style="cursor: move; max-height: 395.02px; transition: none;"
    width="425" height="140" viewBox="0 0 4250 1400">
    <g id="l5WZFqRugpbWZu1KqVd6LVm" fill="rgb(0,0,0)" stroke="rgb(0,0,0)" stroke-width="10"
        style="transform: none;">
        <g>
            <path id="pYWSeNWH"
                d="M20 1225 l0 -155 1035 0 1035 0 0 155 0 155 -1035 0 -1035 0 0 -155z"></path>
            <path id="p18XDu61JB" d="M2140 1225 l0 -155 25 0 25 0 0 155 0 155 -25 0 -25 0 0 -155z"></path>
            <path id="phgLu0RkR" d="M2240 1225 l0 -155 25 0 25 0 0 155 0 155 -25 0 -25 0 0 -155z"></path>
            <path id="pOGiUjj46"
                d="M2347 1373 c-4 -3 -7 -73 -7 -155 l0 -148 25 0 25 0 0 155 c0 144 -1 155 -18 155 -10 0 -22 -3 -25 -7z"></path>
            <path id="pRVLZM4JM"
                d="M2450 1225 c0 -148 1 -155 20 -155 19 0 20 7 20 155 0 148 -1 155 -20 155 -19 0 -20 -7 -20 -155z"></path>
            <path id="pb9YMi6Ez" d="M2550 1225 l0 -155 25 0 25 0 0 155 0 155 -25 0 -25 0 0 -155z"></path>
            <path id="p7oUs676d" d="M2650 1225 l0 -155 25 0 25 0 0 155 0 155 -25 0 -25 0 0 -155z"></path>
            <path id="ppK2hu8hB" d="M2750 1225 l0 -155 25 0 25 0 0 155 0 155 -25 0 -25 0 0 -155z"></path>
            <path id="p16cKenWrb" d="M2850 1225 l0 -155 25 0 25 0 0 155 0 155 -25 0 -25 0 0 -155z"></path>
            <path id="p9r7NWPjL"
                d="M2957 1373 c-4 -3 -7 -73 -7 -155 l0 -148 25 0 25 0 0 155 c0 144 -1 155 -18 155 -10 0 -22 -3 -25 -7z"></path>
            <path id="p1HqN8rx8d"
                d="M3060 1225 l0 -156 23 3 c22 3 22 5 22 153 0 148 0 150 -22 153 l-23 3 0 -156z"></path>
            <path id="pffx4zDfX" d="M3160 1225 l0 -155 25 0 25 0 0 155 0 155 -25 0 -25 0 0 -155z"></path>
            <path id="p12aiUWuFy" d="M3260 1225 l0 -155 25 0 25 0 0 155 0 155 -25 0 -25 0 0 -155z"></path>
            <path id="pNNzRwA19" d="M3360 1225 l0 -155 25 0 25 0 0 155 0 155 -25 0 -25 0 0 -155z"></path>
            <path id="p1GvebKCrz" d="M3460 1225 l0 -155 25 0 25 0 0 155 0 155 -25 0 -25 0 0 -155z"></path>
            <path id="p9mH0m1mf"
                d="M3567 1373 c-4 -3 -7 -73 -7 -155 l0 -148 25 0 25 0 0 155 c0 144 -1 155 -18 155 -10 0 -22 -3 -25 -7z"></path>
            <path id="pa8uYHUEB"
                d="M3670 1226 l0 -156 25 0 26 0 -3 153 c-3 149 -3 152 -25 155 l-23 3 0 -155z"></path>
            <path id="pIXFO9geq" d="M3770 1225 l0 -155 25 0 25 0 0 155 0 155 -25 0 -25 0 0 -155z"></path>
            <path id="pvHMZRE12" d="M3870 1225 l0 -155 25 0 25 0 0 155 0 155 -25 0 -25 0 0 -155z"></path>
            <path id="p13Ss28uAv" d="M3970 1225 l0 -155 25 0 25 0 0 155 0 155 -25 0 -25 0 0 -155z"></path>
            <path id="pzn977QSk" d="M4070 1225 l0 -155 25 0 25 0 0 155 0 155 -25 0 -25 0 0 -155z"></path>
            <path id="pngexGzXk"
                d="M4174 1367 c-2 -7 -3 -76 -2 -152 3 -137 4 -140 26 -143 l22 -3 0 155 c0 150 -1 156 -20 156 -11 0 -23 -6 -26 -13z"></path>
            <path id="pMaMd8ueX"
                d="M599 949 c-56 -8 -79 -20 -129 -66 -43 -38 -80 -121 -80 -177 0 -183 192 -309 355 -232 97 46 148 126 148 232 -1 155 -136 267 -294 243z m134 -121 c32 -23 67 -89 67 -128 0 -43 -36 -106 -72 -128 -50 -31 -122 -30 -169 2 -98 67 -87 209 21 264 53 27 105 24 153 -10z"></path>
            <path id="p181nNBAcg"
                d="M27 943 c-4 -3 -7 -114 -7 -245 l0 -238 103 0 c122 0 178 21 209 80 38 70 9 167 -60 200 -17 8 -32 19 -32 23 0 4 23 41 50 82 72 106 72 105 11 105 -50 0 -52 -1 -79 -43 -15 -24 -43 -74 -62 -110 -19 -37 -38 -67 -42 -67 -5 0 -8 50 -8 110 l0 110 -38 0 c-21 0 -42 -3 -45 -7z m188 -265 c30 -14 47 -60 35 -93 -12 -32 -39 -45 -94 -45 l-46 0 0 73 c0 41 3 77 7 81 9 9 64 0 98 -16z"></path>
            <path id="pjc682u9G"
                d="M1030 865 c0 -83 -1 -87 -70 -241 -38 -86 -70 -158 -70 -160 0 -3 23 -4 51 -2 l51 3 40 98 c22 54 43 95 47 92 3 -4 22 -48 42 -98 l37 -92 51 -3 c28 -2 51 -1 51 1 0 3 -31 73 -70 157 l-70 152 0 89 0 89 -45 0 -45 0 0 -85z"></path>
            <path id="pgxs8iGl"
                d="M1200 943 c0 -4 42 -114 93 -245 l92 -239 43 3 43 3 90 230 c49 127 89 236 89 243 0 9 -13 12 -47 10 -47 -3 -48 -3 -68 -55 l-20 -53 -91 0 -91 0 -19 53 c-19 52 -19 52 -67 55 -26 2 -47 0 -47 -5z m280 -197 c0 -10 -53 -147 -55 -144 -4 4 -55 139 -55 144 0 2 25 4 55 4 30 0 55 -2 55 -4z"></path>
            <path id="pXyR5KO2y"
                d="M1680 705 l0 -245 45 0 45 0 0 200 0 200 81 0 80 0 -3 43 -3 42 -122 3 -123 3 0 -246z"></path>
            <path id="pAuG0ojH0"
                d="M2107 943 c-4 -3 -7 -114 -7 -245 l0 -238 50 0 50 0 0 200 0 200 75 0 75 0 0 45 0 45 -118 0 c-65 0 -122 -3 -125 -7z"></path>
            <path id="pMZ8tPG1P"
                d="M2407 943 c-4 -3 -7 -91 -7 -195 l0 -188 105 0 105 0 0 30 c0 29 0 29 -66 32 l-67 3 -1 43 -1 42 68 0 67 0 0 35 0 34 -67 3 -66 3 0 45 0 45 66 3 67 3 0 34 0 35 -98 0 c-54 0 -102 -3 -105 -7z"></path>
            <path id="pxDOQ4aBh"
                d="M2690 706 l0 -246 90 0 c102 0 146 14 178 55 45 57 38 147 -15 197 -29 27 -88 48 -135 48 l-27 0 -3 93 -3 92 -42 3 -43 3 0 -245z m181 -52 c11 -9 19 -29 19 -44 0 -34 -28 -59 -74 -67 l-36 -6 0 73 0 73 36 -6 c20 -3 45 -14 55 -23z"></path>
            <path id="pe3KKh2q2"
                d="M2950 943 c0 -5 42 -114 93 -243 l92 -235 44 0 43 0 89 230 c49 126 89 235 89 243 0 9 -13 12 -46 10 -46 -3 -47 -3 -67 -55 l-20 -53 -89 0 -89 0 -24 55 c-25 55 -25 55 -70 55 -25 0 -45 -3 -45 -7z m280 -200 c0 -13 -41 -118 -50 -126 -4 -5 -17 15 -28 45 -11 29 -23 61 -27 71 -6 15 0 17 49 17 31 0 56 -3 56 -7z"></path>
            <path id="pSgdgNjvk"
                d="M3545 931 c-90 -42 -144 -126 -145 -226 0 -145 110 -255 255 -255 93 0 172 46 211 122 l15 28 -58 0 c-45 0 -62 -5 -80 -22 -34 -32 -126 -37 -171 -9 -44 28 -72 77 -72 128 0 53 11 81 45 116 61 60 158 58 218 -6 l30 -32 -99 -5 -99 -5 0 -37 0 -38 153 0 152 0 0 28 c0 79 -67 178 -145 213 -54 25 -157 25 -210 0z"></path>
            <path id="phLa1g2K"
                d="M3967 944 c-4 -4 -7 -115 -7 -246 l0 -238 135 0 135 0 0 40 0 40 -85 0 -85 0 0 60 0 60 85 0 85 0 0 40 0 40 -85 0 -85 0 0 60 0 60 86 0 85 0 -3 43 -3 42 -126 3 c-69 1 -128 -1 -132 -4z"></path>
            <path id="pH7kOhEPc"
                d="M2147 334 c-4 -4 -7 -76 -7 -161 l0 -153 25 0 26 0 -3 157 c-3 133 -5 158 -18 161 -9 1 -19 0 -23 -4z"></path>
            <path id="pDVr0la4l"
                d="M2245 328 c-3 -8 -4 -79 -3 -158 3 -142 3 -145 26 -148 l23 -3 -3 158 c-3 141 -5 158 -21 161 -9 2 -19 -3 -22 -10z"></path>
            <path id="pMxm3jg30"
                d="M2344 327 c-2 -7 -3 -78 -2 -157 3 -142 4 -145 26 -148 l22 -3 0 160 c0 155 -1 161 -20 161 -11 0 -23 -6 -26 -13z"></path>
            <path id="pADvrLhKT"
                d="M2450 180 c0 -153 1 -160 20 -160 19 0 20 7 20 160 0 153 -1 160 -20 160 -19 0 -20 -7 -20 -160z"></path>
            <path id="psiPCW2WQ"
                d="M2550 180 l0 -161 23 3 c22 3 22 5 22 158 0 153 0 155 -22 158 l-23 3 0 -161z"></path>
            <path id="pba59URo1"
                d="M2657 334 c-4 -4 -7 -77 -7 -161 0 -154 0 -154 23 -151 22 3 22 5 22 158 0 132 -2 155 -15 158 -9 1 -19 0 -23 -4z"></path>
            <path id="p3KFYYp7p"
                d="M2757 334 c-4 -4 -7 -76 -7 -161 l0 -153 25 0 26 0 -3 157 c-3 133 -5 158 -18 161 -9 1 -19 0 -23 -4z"></path>
            <path id="pYwQThP2F"
                d="M2854 325 c-3 -6 -3 -76 -2 -155 3 -142 4 -145 26 -148 l22 -3 0 160 c0 157 0 160 -21 158 -12 -1 -23 -6 -25 -12z"></path>
            <path id="p1FWjzZaeJ"
                d="M2954 327 c-2 -7 -3 -78 -2 -157 3 -142 4 -145 26 -148 l22 -3 0 160 c0 155 -1 161 -20 161 -11 0 -23 -6 -26 -13z"></path>
            <path id="p1FWfQNNjw"
                d="M3060 180 l0 -161 23 3 c22 3 22 5 22 158 0 153 0 155 -22 158 l-23 3 0 -161z"></path>
            <path id="p19RTY4xbG"
                d="M3160 180 l0 -161 23 3 c22 3 22 5 22 158 0 153 0 155 -22 158 l-23 3 0 -161z"></path>
            <path id="pWyMQNgHN"
                d="M3267 334 c-4 -4 -7 -77 -7 -161 0 -154 0 -154 23 -151 22 3 22 5 22 158 0 132 -2 155 -15 158 -9 1 -19 0 -23 -4z"></path>
            <path id="pmoqI7tKX"
                d="M3365 328 c-3 -8 -4 -79 -3 -158 3 -142 3 -145 26 -148 l23 -3 -3 158 c-3 141 -5 158 -21 161 -9 2 -19 -3 -22 -10z"></path>
            <path id="p8FgGfmc8"
                d="M3464 327 c-2 -7 -3 -78 -2 -157 3 -142 4 -145 26 -148 l22 -3 0 160 c0 155 -1 161 -20 161 -11 0 -23 -6 -26 -13z"></path>
            <path id="pGrnXYJlO"
                d="M3564 327 c-2 -7 -3 -78 -2 -157 3 -142 4 -145 26 -148 l22 -3 0 160 c0 155 -1 161 -20 161 -11 0 -23 -6 -26 -13z"></path>
            <path id="p18YodGPCR"
                d="M3670 180 l0 -161 23 3 c22 3 22 5 22 158 0 153 0 155 -22 158 l-23 3 0 -161z"></path>
            <path id="p1GXf6DCBM"
                d="M3777 334 c-4 -4 -7 -77 -7 -161 0 -154 0 -154 23 -151 22 3 22 5 22 158 0 132 -2 155 -15 158 -9 1 -19 0 -23 -4z"></path>
            <path id="pqUeu4mXJ"
                d="M3877 334 c-4 -4 -7 -76 -7 -161 l0 -153 25 0 26 0 -3 157 c-3 133 -5 158 -18 161 -9 1 -19 0 -23 -4z"></path>
            <path id="p19iE3sZP0"
                d="M3975 328 c-3 -8 -4 -79 -3 -158 3 -142 3 -145 26 -148 l23 -3 -3 158 c-3 141 -5 158 -21 161 -9 2 -19 -3 -22 -10z"></path>
            <path id="p1BJJwfq7G"
                d="M4075 328 c-3 -8 -4 -79 -3 -158 3 -142 3 -145 26 -148 l23 -3 -3 158 c-3 141 -5 158 -21 161 -9 2 -19 -3 -22 -10z"></path>
            <path id="pnSKSn2Ka"
                d="M4174 327 c-2 -7 -3 -78 -2 -157 3 -142 4 -145 26 -148 l22 -3 0 160 c0 155 -1 161 -20 161 -11 0 -23 -6 -26 -13z"></path>
            <path id="p3fShXDvK"
                d="M20 175 l0 -155 1033 2 1032 3 3 153 3 152 -1036 0 -1035 0 0 -155z"></path>
        </g>
    </g>
</svg>