<svg width="276" height="276" viewBox="0 0 276 276" fill="none" xmlns="http://www.w3.org/2000/svg">
<path d="M0.34375 57.5327C0.34375 26.0525 25.8635 0.532715 57.3438 0.532715H218.344C249.824 0.532715 275.344 26.0525 275.344 57.5327V218.533C275.344 250.013 249.824 275.533 218.344 275.533H57.3437C25.8635 275.533 0.34375 250.013 0.34375 218.533V57.5327Z" fill="#EBE9E9"/>
<path d="M192.438 92.2219C179.486 81.7988 158.995 80.032 158.118 79.9684C156.758 79.854 155.462 80.6167 154.902 81.8751C154.852 81.9513 154.407 82.9809 153.911 84.5825C162.478 86.0316 173.003 88.9425 182.524 94.8531C184.049 95.7937 184.519 97.8021 183.579 99.3274C182.956 100.332 181.901 100.878 180.808 100.878C180.223 100.878 179.626 100.713 179.092 100.382C162.72 90.2263 142.28 89.7178 138.34 89.7178C134.399 89.7178 113.947 90.2263 97.588 100.382C96.0627 101.336 94.0543 100.865 93.1137 99.3401C92.1604 97.8021 92.6307 95.8065 94.156 94.8531C103.677 88.9552 114.201 86.0316 122.769 84.5952C122.273 82.9809 121.828 81.9641 121.79 81.8751C121.218 80.6167 119.934 79.8286 118.561 79.9684C117.684 80.032 97.1939 81.7988 84.0634 92.3617C77.2121 98.7046 63.4968 135.77 63.4968 167.815C63.4968 168.387 63.6493 168.933 63.929 169.429C73.386 186.055 99.2023 190.403 105.088 190.593C105.113 190.593 105.151 190.593 105.189 190.593C106.232 190.593 107.21 190.097 107.82 189.259L113.769 181.073C97.7151 176.929 89.5164 169.887 89.0461 169.467C87.6987 168.285 87.5716 166.226 88.7665 164.879C89.9486 163.531 92.0078 163.404 93.3552 164.586C93.5459 164.764 108.647 177.577 138.34 177.577C168.084 177.577 183.185 164.713 183.337 164.586C184.685 163.417 186.731 163.531 187.926 164.891C189.108 166.239 188.981 168.285 187.633 169.467C187.163 169.887 178.965 176.929 162.91 181.073L168.859 189.259C169.469 190.097 170.448 190.593 171.49 190.593C171.529 190.593 171.567 190.593 171.592 190.593C177.477 190.403 203.294 186.055 212.751 169.429C213.03 168.933 213.183 168.387 213.183 167.815C213.183 135.77 199.468 98.7046 192.438 92.2219ZM117.189 154.799C110.897 154.799 105.799 148.977 105.799 141.783C105.799 134.588 110.897 128.766 117.189 128.766C123.481 128.766 128.578 134.588 128.578 141.783C128.578 148.977 123.481 154.799 117.189 154.799ZM159.491 154.799C153.199 154.799 148.102 148.977 148.102 141.783C148.102 134.588 153.199 128.766 159.491 128.766C165.783 128.766 170.88 134.588 170.88 141.783C170.88 148.977 165.783 154.799 159.491 154.799Z" fill="#C5A05E"/>
</svg>
