<svg width="276" height="275" viewBox="0 0 276 275" fill="none" xmlns="http://www.w3.org/2000/svg">
<path d="M0.810547 57C0.810547 25.5198 26.3303 0 57.8105 0H218.811C250.291 0 275.811 25.5198 275.811 57V218C275.811 249.48 250.291 275 218.811 275H57.8105C26.3303 275 0.810547 249.48 0.810547 218V57Z" fill="#EBE9E9"/>
<path d="M65.9409 136.031C65.9409 95.2911 97.8547 65.1315 139.033 65.1315C180.211 65.1315 212.125 95.2911 212.125 136.031C212.125 176.771 180.211 206.93 139.033 206.93C131.632 206.93 124.542 205.953 117.873 204.125C116.58 203.765 115.202 203.862 113.972 204.399L99.4627 210.813C98.5865 211.2 97.6287 211.365 96.6735 211.295C95.7184 211.225 94.7951 210.921 93.9849 210.41C93.1747 209.899 92.5023 209.197 92.0268 208.366C91.5514 207.535 91.2874 206.599 91.2581 205.642L90.8561 192.641C90.8284 191.849 90.6399 191.072 90.3022 190.356C89.9645 189.639 89.4846 188.999 88.8918 188.474C74.6754 175.756 65.9409 157.337 65.9409 136.031ZM116.612 122.701L95.1412 156.762C93.0855 160.032 97.0964 163.714 100.175 161.385L123.245 143.879C124.004 143.303 124.93 142.989 125.882 142.986C126.835 142.983 127.763 143.29 128.526 143.861L145.602 156.67C146.814 157.579 148.2 158.227 149.675 158.573C151.149 158.919 152.679 158.955 154.168 158.681C155.658 158.406 157.074 157.826 158.328 156.977C159.582 156.127 160.646 155.028 161.454 153.747L182.925 119.686C184.99 116.415 180.97 112.733 177.891 115.063L154.821 132.568C154.062 133.144 153.136 133.458 152.183 133.461C151.231 133.465 150.303 133.157 149.54 132.586L132.464 119.768C131.252 118.859 129.866 118.212 128.391 117.866C126.917 117.519 125.387 117.483 123.897 117.757C122.408 118.032 120.992 118.612 119.738 119.462C118.484 120.311 117.42 121.411 116.612 122.692V122.701Z" fill="#C5A05E"/>
</svg>
