<svg width="276" height="275" viewBox="0 0 276 275" fill="none" xmlns="http://www.w3.org/2000/svg">
<path d="M0.34375 57C0.34375 25.5198 25.8635 0 57.3438 0H218.344C249.824 0 275.344 25.5198 275.344 57V218C275.344 249.48 249.824 275 218.344 275H57.3437C25.8635 275 0.34375 249.48 0.34375 218V57Z" fill="#EBE9E9"/>
<path d="M105.799 95.6931C94.58 95.6931 83.8202 100.15 75.8869 108.083C67.9537 116.016 63.4968 126.776 63.4968 137.996C63.4968 149.215 67.9537 159.975 75.8869 167.908C83.8202 175.841 94.58 180.298 105.799 180.298C117.019 180.298 127.779 175.841 135.712 167.908C143.645 159.975 148.102 149.215 148.102 137.996C148.102 126.776 143.645 116.016 135.712 108.083C127.779 100.15 117.019 95.6931 105.799 95.6931ZM172.507 98.9471C160.825 98.9471 151.356 116.431 151.356 137.996C151.356 142.04 151.688 145.939 152.306 149.606C153.129 154.497 154.46 158.974 156.185 162.834C157.047 164.763 158.007 166.537 159.052 168.128C161.141 171.311 163.568 173.767 166.217 175.29C168.205 176.429 170.317 177.044 172.507 177.044C174.697 177.044 176.809 176.429 178.797 175.29C181.446 173.767 183.874 171.311 185.963 168.128C187.007 166.537 187.967 164.763 188.83 162.834C190.554 158.978 191.885 154.497 192.708 149.606C193.327 145.939 193.659 142.04 193.659 137.996C193.659 116.431 184.189 98.9471 172.507 98.9471ZM205.048 102.201C204.205 102.201 203.391 102.764 202.63 103.812C202.119 104.508 201.631 105.419 201.172 106.523C200.941 107.072 200.717 107.671 200.502 108.315C200.069 109.601 199.666 111.068 199.298 112.686C198.562 115.923 197.967 119.783 197.554 124.065C197.349 126.206 197.189 128.455 197.079 130.785C196.968 133.111 196.913 135.526 196.913 137.996C196.913 140.465 196.968 142.88 197.079 145.21C197.186 147.54 197.345 149.788 197.554 151.929C197.967 156.212 198.562 160.068 199.298 163.309C199.666 164.929 200.069 166.394 200.502 167.679C200.717 168.323 200.941 168.922 201.172 169.472C201.634 170.575 202.122 171.486 202.63 172.183C203.391 173.227 204.205 173.79 205.048 173.79C209.542 173.79 213.183 157.764 213.183 137.996C213.183 118.227 209.542 102.201 205.048 102.201Z" fill="#C5A05E"/>
</svg>
