<svg width="276" height="275" viewBox="0 0 276 275" fill="none" xmlns="http://www.w3.org/2000/svg">
<path d="M0.166016 57C0.166016 25.5198 25.6858 0 57.166 0H218.166C249.646 0 275.166 25.5198 275.166 57V218C275.166 249.48 249.646 275 218.166 275H57.166C25.6858 275 0.166016 249.48 0.166016 218V57Z" fill="#EBE9E9"/>
<path d="M138.704 75.4859C144.164 75.4859 162.72 77.0188 171.458 96.5897C174.37 103.193 173.678 114.371 173.098 123.369V123.692C173.032 124.687 172.97 125.615 172.924 126.518C173.334 126.754 174.047 127.015 175.145 127.015C176.785 126.928 178.77 126.348 180.841 125.354C181.749 124.857 182.739 124.77 183.41 124.77C184.404 124.77 185.394 124.944 186.215 125.267C188.696 126.087 190.27 127.922 190.27 129.907C190.357 132.388 188.112 134.547 183.559 136.357C183.083 136.506 182.416 136.767 181.662 137.004C179.18 137.758 175.381 138.988 174.304 141.49C173.807 142.721 173.981 144.382 174.971 146.279L175.058 146.366C175.381 147.12 183.472 165.548 201.51 168.527C202.935 168.788 203.925 170.014 203.843 171.352C203.84 171.776 203.751 172.194 203.582 172.583C202.264 175.731 196.547 178.043 186.21 179.617C185.887 180.114 185.543 181.689 185.303 182.766C185.12 183.793 184.875 184.809 184.57 185.807C184.139 187.294 183.058 188.052 181.483 188.052H181.334C180.58 188.052 179.607 187.878 178.356 187.642C176.044 187.143 173.686 186.891 171.321 186.888C169.66 186.888 168.019 186.975 166.271 187.298C162.969 187.882 160.077 189.867 156.755 192.195C152.052 195.497 146.679 199.296 138.563 199.296C138.24 199.296 137.917 199.209 137.569 199.209H136.749C128.637 199.209 123.351 195.497 118.623 192.108C115.322 189.776 112.517 187.791 109.194 187.211C107.501 186.961 105.793 186.824 104.082 186.801C101.103 186.801 98.7957 187.298 97.0474 187.642C96.0695 187.872 95.0722 188.009 94.0686 188.052C91.9972 188.052 91.1769 186.801 90.8538 185.72C90.5099 184.663 90.3566 183.561 90.0998 182.592C89.8388 181.598 89.5156 179.853 89.1925 179.443C78.5991 178.213 72.9027 175.905 71.5645 172.67C71.3823 172.277 71.2795 171.851 71.2621 171.418C71.2356 170.745 71.4593 170.086 71.89 169.568C72.3207 169.051 72.9279 168.71 73.5945 168.614C91.6119 165.635 99.7237 147.187 100.047 146.412L100.134 146.263C101.128 144.341 101.385 142.704 100.801 141.453C99.7237 139.058 95.9246 137.828 93.4431 136.987C92.786 136.824 92.1431 136.607 91.5208 136.341C85.4142 133.925 84.5731 131.204 84.917 129.306C85.4142 126.65 88.629 124.927 91.3675 124.927C92.1671 124.927 92.8548 125.076 93.4803 125.337C95.7879 126.394 97.8387 126.978 99.587 126.978C100.859 126.978 101.7 126.655 102.156 126.418L101.895 123.27C101.356 114.292 100.643 103.094 103.577 96.5566C112.078 77.0726 130.572 75.5812 136.028 75.5812L138.335 75.4942L138.704 75.4859Z" fill="#C5A05E"/>
</svg>
