<svg width="276" height="276" viewBox="0 0 276 276" fill="none" xmlns="http://www.w3.org/2000/svg">
<path d="M0.988281 57.1777C0.988281 25.6975 26.5081 0.177734 57.9883 0.177734H218.988C250.469 0.177734 275.988 25.6975 275.988 57.1777V218.178C275.988 249.658 250.469 275.178 218.988 275.178H57.9883C26.508 275.178 0.988281 249.658 0.988281 218.178V57.1777Z" fill="#EBE9E9"/>
<path d="M210.705 104.943C209.877 101.991 208.265 99.3175 206.039 97.2079C203.751 95.0334 200.946 93.478 197.89 92.6884C186.451 89.6733 140.622 89.6733 140.622 89.6733C121.516 89.456 102.416 90.412 83.4273 92.5361C80.3708 93.3841 77.5712 94.9743 75.2775 97.1653C73.0238 99.3337 71.3915 102.008 70.5387 104.937C68.4903 115.973 67.495 127.178 67.5663 138.401C67.4932 149.615 68.486 160.816 70.5387 171.865C71.3732 174.783 72.9995 177.445 75.2592 179.595C77.519 181.745 80.3331 183.298 83.4273 184.121C95.0185 187.13 140.622 187.129 140.622 187.129C159.752 187.347 178.877 186.391 197.89 184.267C200.946 183.477 203.751 181.922 206.039 179.747C208.293 177.597 209.895 174.923 210.699 172.012C212.801 160.98 213.823 149.771 213.751 138.542C213.909 127.265 212.888 116.002 210.705 104.937V104.943ZM126.052 159.257V117.552L164.182 138.408L126.052 159.257Z" fill="#C5A05E"/>
</svg>
