<svg
    width="23"
    height="16"
    viewBox="0 0 23 16"
    fill="none"
    xmlns="http://www.w3.org/2000/svg"
>
    <path
        d="M0 2.5C0 1.11929 1.11929 0 2.5 0H20.5C21.8807 0 23 1.11929 23 2.5V13.5C23 14.8807 21.8807 16 20.5 16H2.5C1.11929 16 0 14.8807 0 13.5V2.5Z"
        fill="#1F72CD"
    />
    <path
        fill-rule="evenodd"
        clip-rule="evenodd"
        d="M4.1443 5.62039L2 10.576H4.56703L4.88527 9.78589H5.61269L5.93093 10.576H8.75651V9.97297L9.00828 10.576H10.4699L10.7217 9.96022V10.576H16.5981L17.3127 9.80641L17.9817 10.576L21 10.5824L18.8489 8.11204L21 5.62039H18.0285L17.333 6.37578L16.685 5.62039H10.2922L9.74322 6.89948L9.18139 5.62039H6.61972V6.20292L6.33475 5.62039H4.1443ZM12.9196 6.32409H16.2941L17.3262 7.48839L18.3916 6.32409H19.4237L17.8555 8.11134L19.4237 9.87799H18.3448L17.3127 8.70017L16.2419 9.87799H12.9196V6.32409ZM13.7529 7.70951V7.06037L15.8585 7.05974L16.7773 8.09789L15.8178 9.14172H13.7529V8.43304H15.5939V7.70951H13.7529ZM4.64098 6.32409H5.89227L7.31459 9.68454V6.32409H8.68533L9.7839 8.73351L10.7964 6.32409H12.1603V9.88009H11.3304L11.3236 7.09363L10.1137 9.88009H9.3713L8.15461 7.09363V9.88009H6.44733L6.12366 9.08288H4.37499L4.05199 9.87939H3.13725L4.64098 6.32409ZM4.67359 8.34591L5.2497 6.92575L5.82515 8.34591H4.67359Z"
        fill="white"
    />
</svg>