<svg
    width="23"
    height="16"
    viewBox="0 0 23 16"
    fill="none"
    xmlns="http://www.w3.org/2000/svg"
>
    <path
        d="M0 2.5C0 1.11929 1.11929 0 2.5 0H20.5C21.8807 0 23 1.11929 23 2.5V13.5C23 14.8807 21.8807 16 20.5 16H2.5C1.11929 16 0 14.8807 0 13.5V2.5Z"
        fill="white"
    />
    <path
        fill-rule="evenodd"
        clip-rule="evenodd"
        d="M5.48464 5.95531C5.79352 5.98174 6.10241 5.7967 6.29546 5.56211C6.4853 5.3209 6.61078 4.99709 6.5786 4.66667C6.30511 4.67988 5.96727 4.8517 5.77422 5.09291C5.59725 5.30107 5.44603 5.6381 5.48464 5.95531ZM9.15909 10.2111V5.05986H11.0413C12.013 5.05986 12.6919 5.74714 12.6919 6.75161C12.6919 7.75609 12.0002 8.44997 11.0156 8.44997H9.93773V10.2111H9.15909ZM6.57537 6.0181C6.30325 6.00201 6.05495 6.10214 5.8544 6.18301C5.72533 6.23506 5.61604 6.27913 5.53289 6.27913C5.43958 6.27913 5.32577 6.2327 5.198 6.18057C5.03057 6.11227 4.83915 6.03417 4.63841 6.03792C4.1783 6.04453 3.75037 6.31217 3.51549 6.73841C3.03286 7.5909 3.39001 8.8531 3.85655 9.54698C4.085 9.89062 4.35849 10.2673 4.71885 10.2541C4.87739 10.2479 4.99143 10.1982 5.10946 10.1468C5.24534 10.0876 5.38649 10.0261 5.60689 10.0261C5.81965 10.0261 5.95464 10.086 6.08421 10.1435C6.20741 10.1982 6.32573 10.2507 6.50137 10.2475C6.8746 10.2409 7.10949 9.90384 7.33793 9.5602C7.58446 9.19138 7.6928 8.83143 7.70924 8.77681L7.71117 8.77049C7.71077 8.77009 7.70775 8.76867 7.70242 8.76617C7.62001 8.72742 6.99004 8.43125 6.984 7.63716C6.97794 6.97062 7.48362 6.63292 7.56322 6.57976C7.56806 6.57653 7.57134 6.57434 7.57281 6.5732C7.25106 6.08418 6.74912 6.03131 6.57537 6.0181ZM14.1141 10.2507C14.6032 10.2507 15.0569 9.99632 15.2628 9.59321H15.2789V10.2111H15.9996V7.64704C15.9996 6.90359 15.4205 6.42448 14.5292 6.42448C13.7023 6.42448 13.091 6.9102 13.0684 7.57765H13.7699C13.8278 7.26045 14.1141 7.05228 14.5067 7.05228C14.9829 7.05228 15.2499 7.28027 15.2499 7.6999V7.98406L14.2782 8.04354C13.3741 8.09971 12.885 8.47969 12.885 9.14053C12.885 9.80798 13.3902 10.2507 14.1141 10.2507ZM14.3232 9.63948C13.9082 9.63948 13.6443 9.43462 13.6443 9.12072C13.6443 8.79691 13.8985 8.60857 14.3844 8.57883L15.2499 8.52266V8.81343C15.2499 9.29584 14.8509 9.63948 14.3232 9.63948ZM18.3902 10.4127C18.0781 11.3147 17.721 11.6121 16.9616 11.6121C16.9037 11.6121 16.7107 11.6055 16.6656 11.5923V10.9744C16.7139 10.981 16.8329 10.9876 16.8941 10.9876C17.2384 10.9876 17.4314 10.8389 17.5505 10.4523L17.6212 10.2243L16.302 6.47406H17.1161L18.0331 9.51723H18.0492L18.9662 6.47406H19.7577L18.3902 10.4127ZM9.93766 5.73393H10.8354C11.511 5.73393 11.8971 6.104 11.8971 6.75493C11.8971 7.40585 11.511 7.77923 10.8321 7.77923H9.93766V5.73393Z"
        fill="black"
    />
</svg>