<svg width="20" height="20" viewBox="0 0 20 20" fill="none" xmlns="http://www.w3.org/2000/svg">
<path fill-rule="evenodd" clip-rule="evenodd" d="M19.5905 3.0459C19.3052 0.962482 16.9775 0.294764 15.4556 1.38495C14.2507 2.24811 12.7003 3.28535 11.1724 4.10295C9.60155 4.9435 8.20964 5.465 7.27273 5.465H2.72727C1.22105 5.465 0 6.68604 0 8.19227V10.9196C0 12.359 1.11525 13.5381 2.52886 13.6397L2.16034 15.4823C1.8844 16.862 2.70332 18.2251 4.05097 18.6295L5.15358 18.9602C6.6627 19.4129 8.24036 18.4965 8.59473 16.9612L9.25227 14.1118C9.84364 14.3398 10.4912 14.6444 11.1724 15.0088C12.7003 15.8265 14.2507 16.8637 15.4556 17.7268C16.9775 18.817 19.3052 18.1493 19.5905 16.0659C19.8039 14.5067 20 12.3217 20 9.55593C20 6.7901 19.8039 4.60516 19.5905 3.0459ZM16.5145 2.86301C16.7992 2.65906 17.1135 2.64004 17.3507 2.72864C17.576 2.81274 17.7484 2.99559 17.7891 3.29255C17.9919 4.77373 18.1818 6.87622 18.1818 9.55593C18.1818 12.2356 17.9919 14.3381 17.7891 15.8193C17.7484 16.1162 17.576 16.2991 17.3507 16.3832C17.1135 16.4717 16.7992 16.4527 16.5145 16.2488C15.2795 15.3641 13.6569 14.2763 12.0302 13.4057C10.4464 12.5583 8.70218 11.8287 7.27273 11.8287H2.72727C2.2252 11.8287 1.81818 11.4217 1.81818 10.9196V8.19227C1.81818 7.69019 2.2252 7.28318 2.72727 7.28318H7.27273C8.70218 7.28318 10.4464 6.55356 12.0302 5.70604C13.6569 4.83556 15.2795 3.74774 16.5145 2.86301ZM7.49156 13.6556C7.41613 13.6497 7.34314 13.6468 7.27273 13.6468H4.38163L3.94321 15.8389C3.85124 16.2987 4.12421 16.7532 4.57343 16.8879L5.67603 17.2187C6.17907 17.3697 6.70497 17.0641 6.82306 16.5524L7.49156 13.6556Z" fill="white"/>
</svg>
