<svg width="13" height="14" viewBox="0 0 13 14" fill="none" xmlns="http://www.w3.org/2000/svg">
    <path
        d="M3.65336 6.33398H4.98669V7.66732H3.65336V6.33398ZM12.9867 3.00065V12.334C12.9867 13.0673 12.3867 13.6673 11.6534 13.6673H2.32003C1.58003 13.6673 0.986694 13.0673 0.986694 12.334L0.993361 3.00065C0.993361 2.26732 1.58003 1.66732 2.32003 1.66732H2.98669V0.333984H4.32003V1.66732H9.65336V0.333984H10.9867V1.66732H11.6534C12.3867 1.66732 12.9867 2.26732 12.9867 3.00065ZM2.32003 4.33398H11.6534V3.00065H2.32003V4.33398ZM11.6534 12.334V5.66732H2.32003V12.334H11.6534ZM8.98669 7.66732H10.32V6.33398H8.98669V7.66732ZM6.32003 7.66732H7.65336V6.33398H6.32003V7.66732Z"
        fill="#1B1A17" />
</svg>
    