<svg width="1692" height="4394" viewBox="0 0 1692 4394" fill="none"
    xmlns="http://www.w3.org/2000/svg">
    <path
        d="M819 20.5C819 20.5 741.5 834.501 1251.5 856.5C1750.5 837.904 1706 400 1285.5 400C865 400 384.5 803 550.5 1297.5C716.5 1792 1565.65 1066 1580 1629.5C1594.35 2193 434.999 1884.79 222 2085.64C9.00005 2286.5 238 2474.5 669.5 2502.5C1101 2530.5 1220 2396 944.5 2305C669 2214 41 2620.5 84.5 2902.5C128 3184.5 556 3337 819 3118C1082 2899 857.5 3406.5 1217 3206C1576.5 3005.5 1665 3415 1285.5 3522C906 3629 169 4165 105 3914C41 3663 307 3571 531 3600C755 3629 819 4374 819 4374"
        stroke="url(#paint0_linear_207_662)" stroke-width="40" stroke-linecap="round" />
    <mask id="mask0_207_662" style="mask-type:alpha" maskUnits="userSpaceOnUse" x="0" y="19"
        width="1692" height="4357">
        <path
            d="M133.5 20.5C133.5 20.5 25.0001 333.501 535 355.5C1045 377.499 877.5 887.744 1376.5 869.148C1875.5 850.551 1725.5 478 1305 478C884.5 478 451.041 847.929 707 1338.7C835.106 1584.33 1688 1183.22 1659 1682.73C1630 2182.24 478 1682.73 222 2085.64C-34.0003 2488.56 261 2510.77 740 2484.94C1219 2459.12 1128 2159.51 801.5 2130.07C475 2100.62 36.5 2385.25 36.5 2806.76C36.5 3228.27 732.5 3084.15 1290.5 3043.34C1848.5 3002.54 1510.61 2551.58 823.609 2806.76C136.609 3061.94 1323 3742.25 707 4126.57C90.9995 4510.89 -309 3971.88 317 3695C943 3418.12 819 4374 819 4374"
            stroke="white" stroke-width="3" stroke-linecap="round" stroke-dasharray="80 80" />
    </mask>
    <g mask="url(#mask0_207_662)">
        <path
            d="M133.5 20.5C133.5 20.5 25.0001 333.501 535 355.5C1045 377.499 877.5 887.744 1376.5 869.148C1875.5 850.551 1725.5 478 1305 478C884.5 478 451.041 847.929 707 1338.7C835.106 1584.33 1688 1183.22 1659 1682.73C1630 2182.24 478 1682.73 222 2085.64C-34.0003 2488.56 261 2510.77 740 2484.94C1219 2459.12 1128 2159.51 801.5 2130.07C475 2100.62 36.5 2385.25 36.5 2806.76C36.5 3228.27 732.5 3084.15 1290.5 3043.34C1848.5 3002.54 1510.61 2551.58 823.609 2806.76C136.609 3061.94 1323 3742.25 707 4126.57C90.9995 4510.89 -309 3971.88 317 3695C943 3418.12 819 4374 819 4374"
            stroke="white" stroke-width="40" stroke-linecap="round" />
    </g>
    <defs>
        <linearGradient id="paint0_linear_207_662" x1="846.231" y1="20.5" x2="846.231" y2="4374"
            gradientUnits="userSpaceOnUse">
            <stop stop-color="#C5A05E" />
            <stop offset="0.15" stop-color="#FDD98A" />
            <stop offset="0.85" stop-color="#FDD98A" />
            <stop offset="1" stop-color="#FFFDF9" />
        </linearGradient>
    </defs>
</svg>
    