<svg width="1730" height="4364" viewBox="0 0 1730 4364" fill="none"
    xmlns="http://www.w3.org/2000/svg">
    <path
        d="M152.5 7.5C152.5 7.5 44.0001 320.501 554 342.5C1064 364.499 896.5 874.744 1395.5 856.148C1894.5 837.551 1744.5 465 1324 465C903.5 465 470.041 834.929 726 1325.7C854.106 1571.33 1707 1170.22 1678 1669.73C1649 2169.24 497 1669.73 241 2072.64C-15.0003 2475.56 280 2497.77 759 2471.94C1238 2446.12 1147 2146.51 820.5 2117.07C494 2087.62 55.5 2372.25 55.5 2793.76C55.5 3215.27 751.5 3071.15 1309.5 3030.34C1867.5 2989.54 1529.61 2538.58 842.609 2793.76C155.609 3048.94 1342 3729.25 726 4113.57C110 4497.89 -290 3958.88 336 3682C962 3405.12 838 4361 838 4361"
        stroke="#FDD98A" stroke-width="40" />
    <path
        d="M152.5 7.5C152.5 7.5 44.0001 320.501 554 342.5C1064 364.499 896.5 874.744 1395.5 856.148C1894.5 837.551 1744.5 465 1324 465C903.5 465 470.041 834.929 726 1325.7C854.106 1571.33 1707 1170.22 1678 1669.73C1649 2169.24 497 1669.73 241 2072.64C-15.0003 2475.56 280 2497.77 759 2471.94C1238 2446.12 1147 2146.51 820.5 2117.07C494 2087.62 55.5 2372.25 55.5 2793.76C55.5 3215.27 751.5 3071.15 1309.5 3030.34C1867.5 2989.54 1529.61 2538.58 842.609 2793.76C155.609 3048.94 1342 3729.25 726 4113.57C110 4497.89 -290 3958.88 336 3682C962 3405.12 838 4361 838 4361"
        stroke="white" stroke-width="3" stroke-dasharray="80 80" />
</svg>
    