<svg
    width="23"
    height="16"
    viewBox="0 0 23 16"
    fill="none"
    xmlns="http://www.w3.org/2000/svg"
>
    <path
        d="M0 2.5C0 1.11929 1.11929 0 2.5 0H20.5C21.8807 0 23 1.11929 23 2.5V13.5C23 14.8807 21.8807 16 20.5 16H2.5C1.11929 16 0 14.8807 0 13.5V2.5Z"
        fill="white"
    />
    <path
        d="M12.6364 12.9999C15.3061 13.013 17.7429 10.7708 17.7429 8.04325C17.7429 5.06072 15.3061 2.99889 12.6364 3H10.3387C7.63723 2.99889 5.41335 5.06128 5.41335 8.04325C5.41335 10.7714 7.63723 13.013 10.3387 12.9999H12.6364Z"
        fill="#0079BE"
    />
    <path
        d="M10.3497 3.41332C7.88086 3.41415 5.88058 5.46262 5.87975 7.99093C5.88058 10.519 7.88086 12.5674 10.3497 12.5683C12.8189 12.5674 14.82 10.519 14.8202 7.99093C14.82 5.46262 12.8191 3.41415 10.3497 3.41332ZM7.51652 7.99093C7.516 7.40636 7.68932 6.83524 8.01383 6.35219C8.33835 5.86914 8.79895 5.49664 9.33545 5.28338V10.6982C8.79891 10.4851 8.33825 10.1127 8.01372 9.62964C7.68919 9.14662 7.5159 8.57548 7.51652 7.99093ZM11.3637 10.6993V5.2831C11.9006 5.49606 12.3616 5.86853 12.6864 6.35174C13.0111 6.83494 13.1845 7.40637 13.1837 7.99121C13.1844 8.57602 13.011 9.14739 12.6862 9.63058C12.3615 10.1138 11.9006 10.4863 11.3637 10.6993Z"
        fill="white"
    />
    <path
        d="M12.6364 12.9999C15.3061 13.013 17.7429 10.7708 17.7429 8.04325C17.7429 5.06072 15.3061 2.99889 12.6364 3H10.3387C7.63723 2.99889 5.41335 5.06128 5.41335 8.04325C5.41335 10.7714 7.63723 13.013 10.3387 12.9999H12.6364Z"
        fill="#0079BE"
    />
    <path
        d="M10.3497 3.41332C7.88086 3.41415 5.88058 5.46262 5.87975 7.99093C5.88058 10.519 7.88086 12.5674 10.3497 12.5683C12.8189 12.5674 14.82 10.519 14.8202 7.99093C14.82 5.46262 12.8191 3.41415 10.3497 3.41332ZM7.51652 7.99093C7.516 7.40636 7.68932 6.83524 8.01383 6.35219C8.33835 5.86914 8.79895 5.49664 9.33545 5.28338V10.6982C8.79891 10.4851 8.33825 10.1127 8.01372 9.62964C7.68919 9.14662 7.5159 8.57548 7.51652 7.99093ZM11.3637 10.6993V5.2831C11.9006 5.49606 12.3616 5.86853 12.6864 6.35174C13.0111 6.83494 13.1845 7.40637 13.1837 7.99121C13.1844 8.57602 13.011 9.14739 12.6862 9.63058C12.3615 10.1138 11.9006 10.4863 11.3637 10.6993Z"
        fill="white"
    />
</svg>