<svg
    width="23"
    height="16"
    viewBox="0 0 23 16"
    fill="none"
    xmlns="http://www.w3.org/2000/svg"
>
    <path
        d="M0 2.5C0 1.11929 1.11929 0 2.5 0H20.5C21.8807 0 23 1.11929 23 2.5V13.5C23 14.8807 21.8807 16 20.5 16H2.5C1.11929 16 0 14.8807 0 13.5V2.5Z"
        fill="white"
    />
    <path
        d="M9.34998 15.0333L22.0167 11.2V13.4833C22.0167 14.3394 21.3227 15.0333 20.4666 15.0333H9.34998Z"
        fill="#FD6020"
    />
    <path
        fill-rule="evenodd"
        clip-rule="evenodd"
        d="M19.5958 6.07389C20.2926 6.07389 20.6759 6.39625 20.6759 7.00516C20.7108 7.47079 20.3972 7.86479 19.979 7.93643L20.9198 9.26169H20.1881L19.3867 7.97225H19.317V9.26169H18.7247V6.07389H19.5958ZM19.317 7.54244H19.4912C19.8745 7.54244 20.0487 7.36335 20.0487 7.04099C20.0487 6.75445 19.8745 6.57536 19.4912 6.57536H19.317V7.54244ZM16.669 9.26169H18.3414V8.72442H17.2613V7.86479H18.3066V7.32752H17.2613V6.61116H18.3414V6.07389H16.669V9.26169ZM14.9268 8.22297L14.1254 6.07389H13.4982L14.7874 9.33333H15.101L16.3902 6.07389H15.763L14.9268 8.22297ZM7.85364 7.68571C7.85364 8.58116 8.5505 9.33333 9.42158 9.33333C9.70033 9.33333 9.94423 9.2617 10.1881 9.15424V8.43789C10.0139 8.65279 9.77001 8.79606 9.49127 8.79606C8.93378 8.79606 8.48082 8.36625 8.48082 7.79316V7.72153C8.44597 7.14844 8.89893 6.64699 9.45642 6.61117C9.73517 6.61117 10.0139 6.75444 10.1881 6.96935V6.25299C9.97907 6.10972 9.70033 6.0739 9.45642 6.0739C8.5505 6.00226 7.85364 6.75444 7.85364 7.68571ZM6.7735 7.29171C6.42507 7.14844 6.32054 7.0768 6.32054 6.89771C6.35538 6.6828 6.5296 6.50371 6.73865 6.53953C6.91287 6.53953 7.08709 6.64699 7.22646 6.79026L7.54005 6.36044C7.29614 6.14553 6.98256 6.00226 6.66897 6.00226C6.18116 5.96644 5.76305 6.36044 5.7282 6.86189V6.89771C5.7282 7.32753 5.90242 7.57825 6.45991 7.75734C6.59928 7.79316 6.73865 7.8648 6.87803 7.93643C6.98256 8.00807 7.05224 8.11552 7.05224 8.25879C7.05224 8.50952 6.84318 8.72443 6.63413 8.72443H6.59928C6.32054 8.72443 6.07663 8.54534 5.97211 8.29461L5.58883 8.68861C5.79789 9.08261 6.21601 9.29752 6.63413 9.29752C7.19162 9.33333 7.64458 8.90352 7.67942 8.33043V8.22298C7.64458 7.79316 7.47036 7.57825 6.7735 7.29171ZM4.75259 9.26169H5.34493V6.07389H4.75259V9.26169ZM1.99998 6.07391H3.04527C3.88151 6.10973 4.54353 6.82609 4.50869 7.68572C4.50869 8.15135 4.29963 8.58117 3.9512 8.90353C3.63761 9.15425 3.25433 9.29753 2.87106 9.26171H1.99998V6.07391ZM2.76653 8.72443C3.04528 8.76025 3.35887 8.65279 3.56793 8.4737C3.77699 8.25879 3.88152 7.97225 3.88152 7.64989C3.88152 7.36334 3.77699 7.0768 3.56793 6.86189C3.35887 6.6828 3.04528 6.57535 2.76653 6.61117H2.59232V8.72443H2.76653Z"
        fill="black"
    />
    <path
        fill-rule="evenodd"
        clip-rule="evenodd"
        d="M11.9651 6C11.0941 6 10.3623 6.71636 10.3623 7.64763C10.3623 8.54308 11.0592 9.29525 11.9651 9.33107C12.8711 9.36689 13.5679 8.61471 13.6028 7.68344C13.5679 6.75218 12.8711 6 11.9651 6Z"
        fill="#FD6020"
    />
</svg>