<svg width="25" height="24" viewBox="0 0 25 24" fill="none" xmlns="http://www.w3.org/2000/svg">
    <path
        d="M24.34 12C24.34 5.37264 18.9674 0 12.34 0C5.71264 0 0.339996 5.37264 0.339996 12C0.339996 17.6275 4.21456 22.3498 9.44128 23.6467V15.6672H6.96688V12H9.44128V10.4198C9.44128 6.33552 11.2898 4.4424 15.2997 4.4424C16.06 4.4424 17.3718 4.59168 17.9085 4.74048V8.06448C17.6253 8.03472 17.1333 8.01984 16.5222 8.01984C14.5547 8.01984 13.7944 8.76528 13.7944 10.703V12H17.7141L17.0406 15.6672H13.7944V23.9122C19.7363 23.1946 24.34 18.1354 24.34 12Z"
        fill="#0866FF" />
    <path
        d="M17.0406 15.6672L17.7141 12H13.7944V10.703C13.7944 8.76528 14.5547 8.01984 16.5222 8.01984C17.1333 8.01984 17.6253 8.03472 17.9085 8.06448V4.74048C17.3718 4.59168 16.06 4.4424 15.2997 4.4424C11.2898 4.4424 9.44128 6.33552 9.44128 10.4198V12H6.96688V15.6672H9.44128V23.6467C10.3696 23.8771 11.3402 24 12.3395 24C12.8315 24 13.3178 23.9698 13.7944 23.9122V15.6672H17.0406Z"
        fill="white" />
</svg>
    