<svg width="24" height="24" viewBox="0 0 24 24" fill="none" xmlns="http://www.w3.org/2000/svg">
    <path
        d="M16.3687 10.1604C16.4184 10.2077 16.4684 10.2549 16.5187 10.302C18.2617 8.67549 19.5812 6.87023 19.5812 5.69747C19.5812 4.99238 19.0076 4.41877 18.3025 4.41877C17.8161 4.41877 17.3642 4.70203 17.1512 5.1405C16.9002 5.66517 16.1372 5.66498 15.8863 5.14055C15.3036 3.96384 13.5432 4.31644 13.4586 5.62261C15.1524 6.22434 16.3687 7.84298 16.3687 9.74063V10.1604Z"
        fill="#C5A05E" />
    <path
        d="M21.0375 0H12C10.3614 0 9.0375 1.32605 9.0375 2.9625V5.37187H12C12.0235 5.37187 12.0469 5.37239 12.0703 5.37277C12.3137 3.24938 14.9206 2.25047 16.5187 3.69394C17.0035 3.26437 17.6376 3.01247 18.3025 3.01247C19.783 3.01247 20.9875 4.21692 20.9875 5.69742C20.9875 8.11209 17.883 11.0176 16.9717 11.7847C16.8 11.9283 16.5797 11.9797 16.3687 11.9332V17.2052C16.5993 17.2578 16.8496 17.184 17.0159 17.0159L19.0694 14.9625H21.0375C22.6759 14.9625 24 13.6366 24 12V2.96245C24 1.32384 22.6739 0 21.0375 0Z"
        fill="#C5A05E" />
    <path
        d="M7.48125 14.9625C6.0345 14.9625 4.8188 15.971 4.50019 17.3219H10.4623C10.1437 15.971 8.928 14.9625 7.48125 14.9625Z"
        fill="#C5A05E" />
    <path
        d="M7.48125 13.5562C8.13173 13.5562 8.66095 13.027 8.66095 12.3765C8.60166 10.8137 6.36066 10.8141 6.30159 12.3765C6.30159 13.027 6.83077 13.5562 7.48125 13.5562Z"
        fill="#C5A05E" />
    <path
        d="M12 6.77812H2.9625C1.32389 6.77812 0 8.10417 0 9.74062V18.7781C0 20.4168 1.32605 21.7406 2.9625 21.7406H4.93064L6.98405 23.7941C7.24584 24.0664 7.71661 24.0664 7.97841 23.7941L10.0319 21.7406H12C13.6384 21.7406 14.9625 20.4148 14.9625 18.7781V9.74062C14.9625 8.10197 13.6364 6.77812 12 6.77812ZM11.2469 18.7281H3.71564C3.32733 18.7281 3.01252 18.4133 3.01252 18.025C3.01252 16.2758 4.02286 14.7584 5.49047 14.025C4.098 12.386 5.31037 9.77175 7.4813 9.79064C9.65194 9.77175 10.8648 12.3864 9.47208 14.025C10.9397 14.7584 11.9501 16.2758 11.9501 18.025C11.95 18.4133 11.6352 18.7281 11.2469 18.7281Z"
        fill="#C5A05E" />
</svg>
    