<svg
    width="23"
    height="16"
    viewBox="0 0 23 16"
    fill="none"
    xmlns="http://www.w3.org/2000/svg"
>
    <path
        d="M0 2.5C0 1.11929 1.11929 0 2.5 0H20.5C21.8807 0 23 1.11929 23 2.5V13.5C23 14.8807 21.8807 16 20.5 16H2.5C1.11929 16 0 14.8807 0 13.5V2.5Z"
        fill="white"
    />
    <path
        fill-rule="evenodd"
        clip-rule="evenodd"
        d="M10.8626 10.5054V8.49142H11.8872C12.3071 8.49142 12.6615 8.3487 12.9504 8.06722L13.0197 7.99586C13.5474 7.41308 13.5127 6.5052 12.9504 5.96603C12.6692 5.68059 12.284 5.52597 11.8872 5.5339H10.2425V10.5054H10.8626ZM10.8627 7.88089V6.14444H11.9029C12.1263 6.14444 12.3382 6.23166 12.4962 6.39024C12.8313 6.72326 12.839 7.27829 12.5154 7.6232C12.3575 7.79367 12.134 7.88882 11.9029 7.88089H10.8627Z"
        fill="#EA4335"
    />
    <path
        fill-rule="evenodd"
        clip-rule="evenodd"
        d="M15.9125 7.36948C15.6467 7.11972 15.2846 6.99285 14.8263 6.99285C14.2369 6.99285 13.7939 7.21486 13.5012 7.65492L14.0482 8.00777C14.2485 7.70646 14.522 7.55581 14.8686 7.55581C15.0882 7.55581 15.3 7.63907 15.4657 7.78972C15.6274 7.93244 15.7199 8.13859 15.7199 8.35664V8.50333C15.4811 8.36854 15.1806 8.29717 14.8108 8.29717C14.3794 8.29717 14.0328 8.40025 13.7747 8.61037C13.5166 8.82049 13.3856 9.098 13.3856 9.45085C13.3779 9.77197 13.5128 10.0772 13.7516 10.2834C13.9942 10.5054 14.3024 10.6164 14.6645 10.6164C15.092 10.6164 15.431 10.4222 15.6891 10.0336H15.716V10.5054H16.3092V8.40818C16.3092 7.96812 16.1783 7.61924 15.9125 7.36948ZM14.2293 9.87898C14.1022 9.78383 14.0251 9.62921 14.0251 9.46271C14.0251 9.27637 14.1099 9.12176 14.2756 8.99886C14.4451 8.87596 14.6569 8.81253 14.9074 8.81253C15.2541 8.80856 15.5238 8.88785 15.7164 9.04643C15.7164 9.31602 15.6124 9.54992 15.4082 9.74815C15.2233 9.93845 14.9729 10.0455 14.7109 10.0455C14.5375 10.0495 14.368 9.98998 14.2293 9.87898Z"
        fill="#EA4335"
    />
    <path
        d="M17.642 12L19.7143 7.10387H19.0402L18.0811 9.54601H18.0695L17.0873 7.10387H16.4132L17.7729 10.2874L17.0026 12H17.642Z"
        fill="#EA4335"
    />
    <path
        d="M8.72167 8.05532C8.72167 7.86106 8.70626 7.6668 8.67544 7.4765H6.06002V8.57467H7.5584C7.49677 8.92751 7.29647 9.24467 7.00373 9.44289V10.1565H7.89736C8.42122 9.66094 8.72167 8.92751 8.72167 8.05532Z"
        fill="#4285F4"
    />
    <path
        d="M6.06014 10.8463C6.8074 10.8463 7.43899 10.5926 7.89736 10.1565L7.00373 9.44289C6.75335 9.61733 6.43377 9.71643 6.06014 9.71643C5.33598 9.71643 4.72353 9.21294 4.50398 8.53897H3.58338V9.27637C4.05331 10.2397 5.01242 10.8463 6.06014 10.8463Z"
        fill="#34A853"
    />
    <path
        d="M4.50398 8.53897C4.3884 8.18613 4.38852 7.80159 4.50409 7.44479V6.71135H3.58335C3.18654 7.51615 3.18654 8.46763 3.58335 9.27243L4.50398 8.53897Z"
        fill="#FBBC04"
    />
    <path
        d="M6.06014 6.26732C6.45688 6.25939 6.83822 6.414 7.12326 6.69548L7.91674 5.8788C7.41215 5.39513 6.74962 5.1295 6.06014 5.13743C5.01242 5.13743 4.05328 5.74798 3.58335 6.71135L4.50398 7.44874C4.72353 6.77081 5.33598 6.26732 6.06014 6.26732Z"
        fill="#EA4335"
    />
</svg>