<svg width="15" height="14" viewBox="0 0 15 14" fill="none" xmlns="http://www.w3.org/2000/svg">
    <path
        d="M6.67999 3.66732H8.01333V5.00065H6.67999V3.66732ZM6.67999 6.33398H8.01333V10.334H6.67999V6.33398ZM7.34666 0.333984C3.66666 0.333984 0.679993 3.32065 0.679993 7.00065C0.679993 10.6807 3.66666 13.6673 7.34666 13.6673C11.0267 13.6673 14.0133 10.6807 14.0133 7.00065C14.0133 3.32065 11.0267 0.333984 7.34666 0.333984ZM7.34666 12.334C4.40666 12.334 2.01333 9.94065 2.01333 7.00065C2.01333 4.06065 4.40666 1.66732 7.34666 1.66732C10.2867 1.66732 12.68 4.06065 12.68 7.00065C12.68 9.94065 10.2867 12.334 7.34666 12.334Z"
        fill="#C5A05E" />
</svg>
    