<svg
    
    viewBox="0 0 23 16"
    fill="none"
    xmlns="http://www.w3.org/2000/svg"
>
    <rect width="23" height="16" rx="2.5" fill="white" />
    <path
        fill-rule="evenodd"
        clip-rule="evenodd"
        d="M11.7143 11.6971C10.8367 12.4334 9.69828 12.8779 8.45433 12.8779C5.67869 12.8779 3.42859 10.6649 3.42859 7.93505C3.42859 5.20518 5.67869 2.99219 8.45433 2.99219C9.69829 2.99219 10.8367 3.43668 11.7143 4.17299C12.5919 3.43669 13.7303 2.9922 14.9742 2.9922C17.7499 2.9922 20 5.2052 20 7.93507C20 10.6649 17.7499 12.8779 14.9742 12.8779C13.7303 12.8779 12.5919 12.4334 11.7143 11.6971Z"
        fill="#ED0006"
    />
    <path
        fill-rule="evenodd"
        clip-rule="evenodd"
        d="M11.7142 11.6971C12.7948 10.7905 13.48 9.44149 13.48 7.93505C13.48 6.42862 12.7948 5.07958 11.7142 4.17297C12.5918 3.43667 13.7302 2.99219 14.9742 2.99219C17.7498 2.99219 19.9999 5.20518 19.9999 7.93505C19.9999 10.6649 17.7498 12.8779 14.9742 12.8779C13.7302 12.8779 12.5918 12.4334 11.7142 11.6971Z"
        fill="#F9A000"
    />
    <path
        fill-rule="evenodd"
        clip-rule="evenodd"
        d="M11.7143 11.696C12.7948 10.7894 13.48 9.44035 13.48 7.93393C13.48 6.42751 12.7948 5.07849 11.7143 4.17188C10.6337 5.07849 9.94849 6.42751 9.94849 7.93393C9.94849 9.44035 10.6337 10.7894 11.7143 11.696Z"
        fill="#FF5E00"
    />
</svg>