<svg width="22" height="22" viewBox="0 0 22 22" fill="none" xmlns="http://www.w3.org/2000/svg">
<path fill-rule="evenodd" clip-rule="evenodd" d="M10.9203 1.04565L1.1494 8.85442C1.12752 8.87481 1.11004 8.89948 1.09805 8.92688C1.08606 8.95429 1.07981 8.98387 1.07968 9.01378L1 18.7349C1 19.2632 1.20987 19.7699 1.58345 20.1435C1.95703 20.5171 2.46371 20.7269 2.99203 20.7269L19.008 20.8664C19.5363 20.8664 20.043 20.6565 20.4165 20.2829C20.7901 19.9093 21 19.4027 21 18.8743V9.01378C20.9993 8.98299 20.9918 8.95274 20.978 8.92519C20.9642 8.89764 20.9445 8.87348 20.9203 8.85442L11.1594 1.04565C11.1265 1.01625 11.0839 1 11.0398 1C10.9957 1 10.9532 1.01625 10.9203 1.04565Z" stroke="white" stroke-width="1.5" stroke-linecap="round" stroke-linejoin="round"/>
<path d="M20.9993 9.91016H12.0352" stroke="white" stroke-width="1.5" stroke-linecap="round" stroke-linejoin="round"/>
<path d="M1.08008 9.91016H4.73546V13.5655H8.38088V17.211H12.0363V20.8066" stroke="white" stroke-width="1.5" stroke-linecap="round" stroke-linejoin="round"/>
</svg>
