<svg width="1460" height="4370" viewBox="0 0 1460 4370" fill="none"
    xmlns="http://www.w3.org/2000/svg">
    <path
        d="M740 0V80C740 102.091 757.909 120 780 120H1400C1422.09 120 1440 137.909 1440 160V1010C1440 1032.09 1422.09 1050 1400 1050H80C57.9086 1050 40 1067.91 40 1090V2090C40 2112.09 58.0359 2130 80.1273 2130C595.673 2130 884.327 2130 1399.87 2130C1421.96 2130 1440 2147.91 1440 2170V3170C1440 3192.09 1422.09 3210 1400 3210H80C57.9086 3210 40 3227.91 40 3250V4250C40 4272.09 57.9086 4290 80 4290H700C722.091 4290 740 4307.91 740 4330V4370"
        stroke="#C5A05E" stroke-width="40" />
    <path
        d="M720 0V60C720 82.0914 737.909 100 760 100H1380C1402.09 100 1420 117.909 1420 140V990C1420 1012.09 1402.09 1030 1380 1030H60C37.9086 1030 20 1047.91 20 1070V2070C20 2092.09 38.0206 2110 60.112 2110C568.807 2110 871.193 2110 1379.89 2110C1401.98 2110 1420 2127.91 1420 2150V3150C1420 3172.09 1402.09 3190 1380 3190H60C37.9086 3190 20 3207.91 20 3230V4230C20 4252.09 37.9086 4270 60 4270H680C702.091 4270 720 4287.91 720 4310V4370"
        stroke="#FDD98A" stroke-width="40" />
    <path
        d="M720 0V60C720 82.0914 737.909 100 760 100H1380C1402.09 100 1420 117.909 1420 140V990C1420 1012.09 1402.09 1030 1380 1030H60C37.9086 1030 20 1047.91 20 1070V2070C20 2092.09 38.0206 2110 60.112 2110C568.807 2110 871.193 2110 1379.89 2110C1401.98 2110 1420 2127.91 1420 2150V3150C1420 3172.09 1402.09 3190 1380 3190H60C37.9086 3190 20 3207.91 20 3230V4230C20 4252.09 37.9086 4270 60 4270H680C702.091 4270 720 4287.91 720 4310V4370"
        stroke="white" stroke-width="2" stroke-dasharray="50 50" />
</svg>
    