<svg width="357" height="215" viewBox="0 0 357 215" fill="none" xmlns="http://www.w3.org/2000/svg">
    <path d="M145.929 0.0078125H138.105L0 215.004H15.0758L145.929 0.0078125Z" fill="#C5A05E" />
    <path d="M341.944 214.996H357.005L218.9 0H211.076L341.944 214.996Z" fill="#C5A05E" />
    <path
        d="M205.879 0.0078125H182.979L183.698 12.0889H173.29L174.01 0.0078125H151.11L27.4805 215.004H161.241L163.472 177.468H193.536L195.767 214.989H329.543L205.879 0.0078125ZM172.703 22.1444H184.3L185.519 42.6516H171.485L172.703 22.1444ZM170.59 57.7424H186.414L188.22 88.1585H168.784L170.59 57.7424ZM165.144 149.267L167.624 107.505H189.365L191.846 149.267H165.144Z"
        fill="#C5A05E" />
</svg>
    