<svg
    width="23"
    height="16"
    viewBox="0 0 23 16"
    fill="none"
    xmlns="http://www.w3.org/2000/svg"
>
    <path
        d="M0 2.5C0 1.11929 1.11929 0 2.5 0H20.5C21.8807 0 23 1.11929 23 2.5V13.5C23 14.8807 21.8807 16 20.5 16H2.5C1.11929 16 0 14.8807 0 13.5V2.5Z"
        fill="#5A31F4"
    />
    <path
        d="M12.9486 7.37416C12.9486 8.40089 12.2391 9.13383 11.2475 9.13383H10.3134C10.3031 9.13383 10.2929 9.1359 10.2833 9.13992C10.2738 9.14393 10.2652 9.14982 10.2579 9.15723C10.2506 9.16465 10.2448 9.17345 10.2409 9.18313C10.237 9.19281 10.235 9.20318 10.2351 9.21364V10.5631C10.2351 10.5842 10.2269 10.6044 10.2122 10.6194C10.1975 10.6343 10.1776 10.6428 10.1568 10.6429H9.50312C9.48757 10.6428 9.4724 10.6381 9.45949 10.6293C9.44658 10.6205 9.4365 10.6081 9.43053 10.5935C9.42658 10.584 9.42452 10.5738 9.42445 10.5635V5.69391C9.4244 5.68345 9.42638 5.67308 9.4303 5.6634C9.43421 5.65372 9.43997 5.64492 9.44724 5.6375C9.45452 5.63008 9.46316 5.6242 9.47269 5.62018C9.48221 5.61617 9.49242 5.6141 9.50274 5.6141H11.2517C12.2391 5.61294 12.9486 6.34588 12.9486 7.37416ZM12.1334 7.37416C12.1334 6.78387 11.7367 6.35244 11.1985 6.35244H10.3134C10.3031 6.35244 10.2929 6.35451 10.2833 6.35852C10.2738 6.36254 10.2652 6.36842 10.2579 6.37584C10.2506 6.38325 10.2448 6.39206 10.2409 6.40174C10.237 6.41142 10.235 6.42179 10.2351 6.43225V8.31144C10.2351 8.33251 10.2433 8.35271 10.258 8.36761C10.2727 8.3825 10.2926 8.39087 10.3134 8.39087H11.1985C11.7367 8.39472 12.1334 7.9629 12.1334 7.37416ZM13.1424 9.7087C13.1357 9.55123 13.1678 9.39454 13.2359 9.25286C13.304 9.11119 13.4059 8.98903 13.5324 8.89749C13.7874 8.70278 14.1861 8.60215 14.7713 8.58133L15.3946 8.55897V8.37236C15.3946 7.99837 15.1476 7.8403 14.7508 7.8403C14.354 7.8403 14.1024 7.98295 14.0447 8.21621C14.04 8.23262 14.03 8.24697 14.0164 8.25702C14.0028 8.26707 13.9863 8.27224 13.9694 8.27173H13.3538C13.3424 8.27205 13.3312 8.26982 13.3208 8.26522C13.3104 8.26061 13.3011 8.25374 13.2936 8.24509C13.2862 8.23644 13.2807 8.22622 13.2775 8.21516C13.2744 8.20411 13.2737 8.19249 13.2755 8.18113C13.3667 7.62824 13.8201 7.20799 14.7789 7.20799C15.799 7.20799 16.1672 7.68993 16.1672 8.60986V10.5631C16.167 10.5844 16.1585 10.6047 16.1436 10.6197C16.1286 10.6347 16.1084 10.643 16.0874 10.6429H15.4668C15.4461 10.6428 15.4261 10.6345 15.4113 10.6198C15.4041 10.6124 15.3983 10.6036 15.3944 10.5939C15.3905 10.5843 15.3885 10.5739 15.3885 10.5635V10.4173C15.3888 10.4053 15.3854 10.3934 15.3788 10.3833C15.3723 10.3732 15.3629 10.3654 15.3518 10.3609C15.3408 10.3563 15.3287 10.3553 15.317 10.3578C15.3054 10.3604 15.2948 10.3665 15.2867 10.3753C15.1005 10.5808 14.7998 10.7293 14.3183 10.7293C13.6099 10.7293 13.1424 10.3553 13.1424 9.7087ZM15.3946 9.28536V9.13383L14.5874 9.17702C14.1621 9.19899 13.9147 9.37828 13.9147 9.68017C13.9147 9.95314 14.1416 10.1043 14.538 10.1043C15.0765 10.1043 15.3946 9.80933 15.3946 9.28536ZM16.7905 12.1188V11.5528C16.7906 11.5409 16.7933 11.5292 16.7984 11.5185C16.8035 11.5078 16.8108 11.4984 16.8199 11.4909C16.8289 11.4834 16.8395 11.478 16.8509 11.4751C16.8622 11.4722 16.874 11.4719 16.8855 11.4742C16.9805 11.4923 17.0775 11.5015 17.1744 11.5019C17.341 11.5101 17.5055 11.4614 17.6416 11.3636C17.7777 11.2657 17.8774 11.1243 17.925 10.9621L17.9652 10.8318C17.9711 10.8143 17.9711 10.7953 17.9652 10.7778L16.6719 7.40809C16.6673 7.39587 16.6656 7.38269 16.667 7.36967C16.6685 7.35665 16.673 7.34418 16.6803 7.33333C16.6875 7.32249 16.6973 7.31359 16.7087 7.3074C16.7201 7.30122 16.7328 7.29793 16.7457 7.29782H17.3728C17.3888 7.29799 17.4044 7.30304 17.4175 7.31232C17.4307 7.32161 17.4408 7.33469 17.4465 7.34987L18.3248 9.72643C18.3303 9.74222 18.3405 9.75589 18.3539 9.76556C18.3674 9.77523 18.3835 9.78042 18.4 9.78042C18.4165 9.78042 18.4326 9.77523 18.4461 9.76556C18.4596 9.75589 18.4698 9.74222 18.4753 9.72643L19.238 7.35642C19.2433 7.34023 19.2535 7.32613 19.2672 7.31616C19.2808 7.30619 19.2972 7.30085 19.314 7.3009H19.9628C19.9758 7.30098 19.9886 7.30425 20 7.31043C20.0115 7.31661 20.0214 7.32551 20.0287 7.33638C20.0361 7.34725 20.0407 7.35977 20.0423 7.37286C20.0438 7.38595 20.0422 7.39923 20.0376 7.41156L18.6543 11.1538C18.3358 12.0236 17.7897 12.246 17.1884 12.246C17.0744 12.2491 16.9604 12.2352 16.8502 12.2048C16.8319 12.1999 16.8158 12.1885 16.8049 12.1728C16.794 12.1571 16.7889 12.138 16.7905 12.1188ZM5.22378 5.33342C4.39987 5.32746 3.60504 5.64205 3.00279 6.21248C2.97703 6.23641 2.96098 6.26921 2.95775 6.30448C2.95451 6.33976 2.96434 6.375 2.98531 6.40333L3.35813 6.91998C3.37022 6.93718 3.38587 6.95148 3.404 6.96189C3.42212 6.97229 3.44227 6.97854 3.46303 6.98019C3.48378 6.98185 3.50465 6.97887 3.52415 6.97146C3.54365 6.96405 3.56131 6.9524 3.5759 6.93733C3.79245 6.71769 4.04999 6.54404 4.33345 6.42654C4.61692 6.30903 4.92062 6.25003 5.22682 6.25297C6.5053 6.25297 7.17305 7.22919 7.17305 8.19308C7.17305 9.24102 6.47148 9.9782 5.46321 9.99285C4.68412 9.99285 4.09694 9.46888 4.09694 8.77681C4.09776 8.60197 4.1368 8.42949 4.21126 8.27181C4.28572 8.11413 4.39374 7.97518 4.52754 7.86497C4.55582 7.841 4.5737 7.80673 4.57733 7.76952C4.58095 7.73231 4.57003 7.69515 4.54692 7.66603L4.15509 7.16403C4.14324 7.14885 4.12851 7.13623 4.11178 7.12692C4.09504 7.11761 4.07664 7.11179 4.05765 7.10982C4.03866 7.10784 4.01948 7.10974 4.00122 7.11541C3.98297 7.12108 3.96603 7.1304 3.95139 7.14283C3.71075 7.33951 3.51656 7.58835 3.38306 7.87109C3.24956 8.15384 3.18014 8.46331 3.17989 8.77681C3.17989 9.96818 4.17789 10.9028 5.45637 10.9105H5.47347C6.99138 10.8904 8.08896 9.74995 8.08896 8.19115C8.08896 6.80701 7.08374 5.33342 5.22378 5.33342Z"
        fill="white"
    />
</svg>