<svg width="160" height="160" viewBox="0 0 160 160" fill="none" xmlns="http://www.w3.org/2000/svg">
    <path
        d="M80.1276 78.4576L86.2907 0.267098C84.1712 0.0785557 82.0516 0 79.9086 0C76.5454 0 73.2449 0.20425 69.999 0.604906L79.588 78.4736C79.6897 78.4579 79.7913 78.4576 80.1276 78.4576Z"
        fill="#FDD98A" />
    <path
        d="M78.1494 79.5188L9.79055 41.5508C7.14698 46.335 4.98835 51.4021 3.3457 56.7128L77.9836 79.8408C78.0227 79.7229 78.0634 79.6209 78.1494 79.5188Z"
        fill="#FDD98A" />
    <path
        d="M79.0109 78.6525L41.9693 9.56641C37.1435 12.1982 32.5993 15.3013 28.415 18.8208L78.6275 78.8951C78.7683 78.7929 78.8858 78.7154 79.0109 78.6525Z"
        fill="#FDD98A" />
    <path
        d="M81.7933 79.7602L155.352 53.3321C153.491 48.1237 151.105 43.1351 148.266 38.4922L81.6289 79.4366C81.6915 79.5388 81.7542 79.6581 81.7933 79.7602Z"
        fill="#FDD98A" />
    <path
        d="M81.0917 78.8574L128.621 16.6152C124.296 13.3 119.65 10.4012 114.684 7.98926L80.7314 78.638C80.8488 78.6773 80.99 78.7553 81.0917 78.8574Z"
        fill="#FDD98A" />
    <path
        d="M77.9316 80.625L0 85.975C0.383251 91.5683 1.34527 96.997 2.79995 102.221L77.9865 81.0419C77.9474 80.8848 77.9473 80.79 77.9316 80.625Z"
        fill="#FDD98A" />
    <path
        d="M81.3091 81.8501L136.934 136.913C140.758 133.008 144.2 128.727 147.187 124.1L81.6136 81.4658C81.5119 81.6072 81.4342 81.7323 81.3091 81.8501Z"
        fill="#FDD98A" />
    <path
        d="M80.3701 82.3936L97.2719 158.973C102.676 157.787 107.901 156.035 112.868 153.788L80.7075 82.2988C80.6136 82.3381 80.4874 82.3778 80.3701 82.3936Z"
        fill="#FDD98A" />
    <path
        d="M81.8506 80.9059L158.335 96.7906C159.437 91.5271 160.001 86.0357 160.001 80.4424H81.8887C81.8887 80.6231 81.8741 80.7881 81.8506 80.9059Z"
        fill="#FDD98A" />
    <path
        d="M78.2671 81.6084L15.7988 128.651C19.0603 133.058 22.7833 137.119 26.8895 140.741L78.6037 81.9557C78.4863 81.8536 78.3687 81.7341 78.2671 81.6084Z"
        fill="#FDD98A" />
    <path
        d="M79.2046 82.3359L52.0801 155.899C57.164 157.792 62.4746 159.175 67.9964 160L79.5327 82.4146C79.4467 82.391 79.3297 82.3752 79.2046 82.3359Z"
        fill="#FDD98A" />
</svg>
    