<svg width="22" height="24" viewBox="0 0 22 24" fill="none" xmlns="http://www.w3.org/2000/svg">
    <path
        d="M16.1719 14.1562C13.4536 14.1562 11.25 16.3598 11.25 19.0781C11.25 21.7964 13.4536 24 16.1719 24C18.8902 24 21.0938 21.7964 21.0938 19.0781C21.0938 16.3598 18.8902 14.1562 16.1719 14.1562ZM18.2812 19.7812H14.0625V18.375H18.2812V19.7812Z"
        fill="#C5A05E" />
    <path
        d="M15.3566 12.8324C15.1609 12.7989 14.9691 12.75 14.7656 12.75H11.25V12.2597C12.9508 11.4426 14.0625 9.71913 14.0625 7.8281V5.16532C14.0625 2.4627 11.973 0.14801 9.40224 0.00518162C6.477 -0.12424 4.21875 2.18876 4.21875 4.92635V7.8281C4.21875 9.71913 5.33044 11.4426 7.03125 12.2597V12.75H3.51563C1.5772 12.75 0 14.3272 0 16.2656V21.1875H2.8125V16.9687H4.21875V21.1875H10.2325C9.99609 20.5244 9.84375 19.8213 9.84375 19.0781C9.84375 15.8678 12.255 13.2374 15.3566 12.8324ZM9.84375 9.23435V9.93748H8.4375V9.23435C8.4375 8.0712 9.38372 7.12498 10.5469 7.12498H11.25V8.53123H10.5469C10.1589 8.53123 9.84375 8.84642 9.84375 9.23435Z"
        fill="#C5A05E" />
</svg>
    