<svg width="276" height="276" viewBox="0 0 276 276" fill="none" xmlns="http://www.w3.org/2000/svg">
<path d="M0.810547 69.4069C0.810547 31.4669 31.567 0.710449 69.507 0.710449H207.114C245.054 0.710449 275.811 31.4669 275.811 69.4069V207.014C275.811 244.954 245.054 275.71 207.114 275.71H69.507C31.567 275.71 0.810547 244.954 0.810547 207.014V69.4069Z" fill="#EBE9E9"/>
<path d="M120.966 134.402C124.688 134.402 135.854 128.412 135.854 113.606C135.854 90.5848 115.361 86.2798 92.2786 86.2798C87.9166 86.2798 74.6186 86.2872 65.1391 86.2835C58.972 86.2798 53.9736 91.2548 53.9736 97.3885V178.822C53.9736 184.956 58.972 189.927 65.1391 189.927H109.057C125.503 189.927 139.445 176.986 139.576 160.628C139.75 138.137 120.966 134.402 120.966 134.402ZM76.3045 104.788H102.357C108.524 104.788 113.523 109.76 113.523 115.893C113.523 122.027 108.524 126.998 102.357 126.998H76.3045V104.788ZM104.218 171.419H76.3045V145.507H104.218C111.413 145.507 117.245 151.307 117.245 158.463C117.245 165.618 111.413 171.419 104.218 171.419ZM215.91 156.612C218.996 156.612 221.493 154.128 221.497 151.059C221.497 129.593 206.568 112.192 184.278 112.192C163.723 112.192 147.06 129.593 147.06 151.059C147.06 172.525 163.723 189.927 184.278 189.927C202.467 189.927 212.572 181.465 217.507 169.038C218.46 166.643 216.591 164.049 214.001 164.049H205.065C203.706 164.049 202.504 164.815 201.801 165.973C198.399 171.563 193.207 175.12 186.217 175.12C175.752 175.12 168.129 167.217 166.187 156.612H215.91ZM184.278 126.998C192.009 126.998 199.501 133.128 201.615 141.805H167.102C169.905 133.11 176.537 126.998 184.278 126.998ZM200.986 104.788H171.211C168.129 104.788 165.628 102.301 165.628 99.2357C165.628 96.1707 168.129 93.6832 171.211 93.6832H200.986C204.067 93.6832 206.568 96.1707 206.568 99.2357C206.568 102.301 204.067 104.788 200.986 104.788Z" fill="#C5A05E"/>
</svg>
