<svg width="276" height="275" viewBox="0 0 276 275" fill="none" xmlns="http://www.w3.org/2000/svg">
<path d="M0.521484 57C0.521484 25.5198 26.0413 0 57.5215 0H218.521C250.002 0 275.521 25.5198 275.521 57V218C275.521 249.48 250.002 275 218.521 275H57.5215C26.0413 275 0.521484 249.48 0.521484 218V57Z" fill="#EBE9E9"/>
<path d="M138.129 210.364C178.43 210.364 211.1 177.694 211.1 137.393C211.1 97.0921 178.43 64.4218 138.129 64.4218C97.8278 64.4218 65.1575 97.0921 65.1575 137.393C65.1575 177.694 97.8278 210.364 138.129 210.364Z" fill="#C5A05E"/>
<path fill-rule="evenodd" clip-rule="evenodd" d="M137.874 72.3121C101.614 72.3121 72.191 101.465 72.191 137.393C72.191 173.321 101.614 202.474 137.874 202.474C174.066 202.474 203.558 173.321 203.558 137.393C203.558 101.465 174.066 72.3121 137.874 72.3121ZM181.258 102.311C189.094 111.771 193.797 123.84 193.939 136.898C192.086 136.547 173.564 132.805 154.9 135.135C154.473 134.217 154.115 133.228 153.688 132.242C152.548 129.561 151.264 126.808 149.983 124.195C170.644 115.864 180.05 103.863 181.258 102.311ZM137.874 81.9115C152.121 81.9115 165.159 87.2059 175.061 95.8877C174.063 97.2999 165.586 108.523 145.638 115.933C136.449 99.2035 126.262 85.5105 124.695 83.3921C128.899 82.4062 133.316 81.9115 137.874 81.9115ZM114.008 87.1343C115.503 89.1095 125.477 102.874 134.81 119.252C108.593 126.17 85.4393 126.03 82.9466 126.03C86.5822 108.806 98.3363 94.4754 114.008 87.1343ZM81.7381 137.465C81.7381 136.898 81.7381 136.335 81.7381 135.769C84.1618 135.841 111.374 136.192 139.372 127.862C141.011 130.966 142.505 134.145 143.93 137.321C143.218 137.533 142.433 137.744 141.724 137.956C112.8 147.204 97.4134 172.472 96.1293 174.59C87.2226 164.782 81.7381 151.721 81.7381 137.465ZM137.874 193.014C124.909 193.014 112.941 188.638 103.466 181.297C104.465 179.25 115.861 157.509 147.494 146.569C147.635 146.498 147.707 146.498 147.852 146.429C155.76 166.689 158.965 183.698 159.819 188.569C153.047 191.462 145.638 193.014 137.874 193.014ZM169.15 183.487C168.578 180.099 165.586 163.865 158.249 143.888C175.846 141.135 191.232 145.652 193.157 146.29C190.737 161.746 181.758 175.085 169.15 183.487Z" fill="#EBE9E9"/>
</svg>
