<svg width="276" height="275" viewBox="0 0 276 275" fill="none" xmlns="http://www.w3.org/2000/svg">
<path d="M0.166016 57C0.166016 25.5198 25.6858 0 57.166 0H218.166C249.646 0 275.166 25.5198 275.166 57V218C275.166 249.48 249.646 275 218.166 275H57.166C25.6858 275 0.166016 249.48 0.166016 218V57Z" fill="#EBE9E9"/>
<path d="M110.884 74.4399C90.4467 74.4399 73.8178 91.0786 73.8178 111.521V164.48C73.8178 184.92 90.4565 201.551 110.899 201.551H163.858C184.298 201.551 200.929 184.912 200.929 164.47V111.506C200.929 91.0688 184.29 74.4399 163.848 74.4399H110.884ZM175.507 94.7777C178.313 94.7777 180.591 97.0555 180.591 99.8621C180.591 102.669 178.313 104.947 175.507 104.947C172.7 104.947 170.422 102.669 170.422 99.8621C170.422 97.0555 172.7 94.7777 175.507 94.7777ZM137.373 104.947C155.601 104.947 170.422 119.768 170.422 137.995C170.422 156.223 155.599 171.044 137.373 171.044C119.146 171.044 104.325 156.221 104.325 137.995C104.325 119.77 119.146 104.947 137.373 104.947ZM137.373 115.115C124.736 115.115 114.493 125.358 114.493 137.995C114.493 150.633 124.736 160.875 137.373 160.875C150.011 160.875 160.253 150.633 160.253 137.995C160.253 125.358 150.011 115.115 137.373 115.115Z" fill="#C5A05E"/>
</svg>
