<svg width="276" height="276" viewBox="0 0 276 276" fill="none" xmlns="http://www.w3.org/2000/svg">
<path d="M0.988281 57.5327C0.988281 26.0525 26.5081 0.532715 57.9883 0.532715H218.988C250.469 0.532715 275.988 26.0525 275.988 57.5327V218.533C275.988 250.013 250.469 275.533 218.988 275.533H57.9883C26.508 275.533 0.988281 250.013 0.988281 218.533V57.5327Z" fill="#EBE9E9"/>
<path d="M138.984 57.1774C93.9328 57.1774 57.6328 93.4774 57.6328 138.529C57.6328 183.58 93.9328 219.88 138.984 219.88C184.035 219.88 220.335 183.58 220.335 138.529C220.335 93.4774 184.035 57.1774 138.984 57.1774ZM172.155 176.711C170.908 176.711 169.637 176.075 168.391 175.44C156.511 168.571 142.113 164.806 126.468 164.806C117.717 164.806 108.942 166.053 100.802 167.935C99.555 167.935 97.6728 168.571 97.0617 168.571C93.9328 168.571 92.0505 166.053 92.0505 163.56C92.0505 160.431 93.9328 158.549 96.4261 157.937C106.448 155.42 116.446 154.173 127.104 154.173C144.606 154.173 160.886 158.549 174.648 166.689C176.531 167.935 177.777 169.182 177.777 172.311C177.166 174.829 174.648 176.711 172.155 176.711ZM180.906 155.42C179.024 155.42 177.777 154.809 176.531 154.173C163.379 146.033 145.242 141.022 124.586 141.022C114.588 141.022 105.202 142.293 98.3083 144.151C96.4261 144.786 95.815 144.786 94.5439 144.786C90.8039 144.786 88.2861 141.657 88.2861 138.529C88.2861 134.764 90.1683 132.906 93.2972 131.635C102.684 129.142 112.071 127.26 125.222 127.26C146.488 127.26 167.144 132.271 183.424 142.293C185.917 143.54 187.164 146.033 187.164 148.551C187.164 152.291 184.671 155.42 180.906 155.42ZM190.928 130.389C189.046 130.389 188.411 129.777 186.553 129.142C171.519 120.391 149.006 115.38 127.104 115.38C115.835 115.38 104.566 116.626 94.5439 119.12C93.2972 119.12 92.0505 119.755 90.1683 119.755C85.7928 120.391 82.6639 116.626 82.6639 112.251C82.6639 107.875 85.1572 105.357 88.2861 104.746C100.191 100.982 112.706 99.7352 127.104 99.7352C150.864 99.7352 175.895 104.746 194.668 115.38C197.186 116.626 199.068 119.12 199.068 122.884C198.433 127.26 195.304 130.389 190.928 130.389Z" fill="#C5A05E"/>
</svg>
