<svg width="276" height="276" viewBox="0 0 276 276" fill="none" xmlns="http://www.w3.org/2000/svg">
<path d="M0.34375 57.1777C0.34375 25.6975 25.8635 0.177734 57.3438 0.177734H218.344C249.824 0.177734 275.344 25.6975 275.344 57.1777V218.178C275.344 249.658 249.824 275.178 218.344 275.178H57.3437C25.8635 275.178 0.34375 249.658 0.34375 218.178V57.1777Z" fill="#EBE9E9"/>
<path d="M213.062 137.571C213.062 179.169 179.335 212.896 137.737 212.896C96.1385 212.896 62.4116 179.169 62.4116 137.571C62.4116 95.9724 96.1385 62.2456 137.737 62.2456C179.335 62.2456 213.062 95.9724 213.062 137.571Z" fill="#C5A05E"/>
<path d="M90.8582 136.505C117.184 124.924 151.25 110.804 155.954 108.849C168.289 103.735 172.074 104.714 170.187 116.043C168.831 124.185 164.922 151.141 161.803 167.919C159.954 177.87 155.803 179.049 149.28 174.744C146.143 172.672 130.306 162.198 126.867 159.739C123.73 157.498 119.403 154.801 124.83 149.491C126.762 147.6 139.42 135.511 149.284 126.102C150.576 124.867 148.953 122.837 147.461 123.828C134.166 132.644 115.734 144.881 113.388 146.474C109.844 148.881 106.439 149.984 100.33 148.229C95.7129 146.904 91.2047 145.322 89.4496 144.719C82.6892 142.399 84.2936 139.394 90.8582 136.505Z" fill="#EBE9E9"/>
</svg>
