<svg width="276" height="276" viewBox="0 0 276 276" fill="none" xmlns="http://www.w3.org/2000/svg">
<path d="M0.166016 57.7104C0.166016 26.2302 25.6858 0.710449 57.166 0.710449H218.166C249.646 0.710449 275.166 26.2302 275.166 57.7104V218.71C275.166 250.191 249.646 275.71 218.166 275.71H57.166C25.6858 275.71 0.166016 250.191 0.166016 218.71V57.7104Z" fill="#EBE9E9"/>
<path d="M200.001 97.8498C197.536 89.0578 192.661 82.0978 185.508 77.1745C176.481 70.9557 166.099 68.7502 157.132 67.4124C144.724 65.5624 133.486 65.3033 122.784 66.6109C112.744 67.8402 105.188 69.8047 98.2879 72.9744C84.7715 79.1812 76.6605 89.2326 74.1838 102.839C72.9786 109.444 72.1711 115.416 71.7011 121.11C70.6164 134.277 71.5987 145.931 74.7081 156.73C77.7331 167.257 83.024 174.784 90.8819 179.725C92.8885 180.985 95.4436 181.895 97.9263 182.774C99.1677 183.214 100.361 183.648 101.403 184.106V205.378C101.403 208.162 103.657 210.416 106.441 210.416C107.755 210.416 109.014 209.903 109.954 208.987L129.581 189.897C130.437 188.921 130.437 188.921 131.316 188.903C138.023 188.77 144.875 188.511 151.684 188.143C159.934 187.692 169.491 186.896 178.494 183.142C186.732 179.701 192.746 174.241 196.355 166.92C200.121 159.279 202.363 150.999 203.201 141.617C204.671 125.117 203.622 110.8 200.001 97.8498ZM165.827 160.641C163.857 163.865 160.904 166.094 157.433 167.541C154.896 168.601 152.305 168.378 149.804 167.318C128.81 158.435 112.353 144.431 101.47 124.31C99.2279 120.164 97.6672 115.651 95.8775 111.27C95.5099 110.366 95.54 109.311 95.3773 108.329C95.534 101.248 100.963 97.2652 106.447 96.06C108.544 95.596 110.4 96.3372 111.955 97.8257C116.257 101.935 119.662 106.696 122.223 112.035C123.344 114.379 122.838 116.452 120.928 118.194C120.536 118.555 120.12 118.893 119.692 119.212C115.335 122.49 114.697 124.967 117.017 129.902C120.97 138.296 127.532 143.931 136.023 147.426C138.258 148.348 140.367 147.89 142.079 146.076C142.308 145.835 142.567 145.6 142.736 145.323C146.086 139.737 150.937 140.291 155.42 143.479C158.367 145.57 161.223 147.775 164.14 149.908C168.563 153.169 168.527 156.23 165.827 160.641ZM140.639 102.809C139.512 102.809 138.379 102.9 137.27 103.086C135.39 103.406 133.618 102.134 133.305 100.254C132.992 98.38 134.257 96.6024 136.137 96.289C137.614 96.048 139.132 95.9214 140.639 95.9214C155.553 95.9214 167.689 108.058 167.689 122.972C167.689 124.485 167.563 126.003 167.316 127.48C167.033 129.161 165.574 130.354 163.923 130.354C163.736 130.354 163.544 130.342 163.351 130.306C161.477 129.986 160.211 128.215 160.524 126.341C160.711 125.244 160.802 124.111 160.802 122.978C160.802 111.854 151.757 102.809 140.639 102.809ZM155.637 125.19C155.637 127.088 154.095 128.631 152.197 128.631C150.298 128.631 148.756 127.088 148.756 125.19C148.756 119.495 144.122 114.861 138.427 114.861C136.529 114.861 134.986 113.319 134.986 111.42C134.986 109.522 136.529 107.979 138.427 107.979C147.912 107.973 155.637 115.699 155.637 125.19ZM178.813 129.39C178.452 130.993 177.036 132.071 175.457 132.071C175.204 132.071 174.945 132.041 174.692 131.987C172.836 131.565 171.673 129.721 172.094 127.871C172.595 125.672 172.848 123.4 172.848 121.122C172.848 104.382 159.229 90.7571 142.483 90.7571C140.199 90.7571 137.933 91.0102 135.733 91.5104C133.89 91.9382 132.034 90.7692 131.618 88.9132C131.196 87.0572 132.359 85.2132 134.215 84.7974C136.915 84.1767 139.699 83.8694 142.495 83.8694C163.031 83.8694 179.741 100.58 179.741 121.116C179.741 123.912 179.428 126.696 178.813 129.39Z" fill="#C5A05E"/>
</svg>
