<svg width="276" height="276" viewBox="0 0 276 276" fill="none" xmlns="http://www.w3.org/2000/svg">
<path d="M0.521484 57.1777C0.521484 25.6975 26.0413 0.177734 57.5215 0.177734H218.521C250.002 0.177734 275.521 25.6975 275.521 57.1777V218.178C275.521 249.658 250.002 275.178 218.521 275.178H57.5215C26.0413 275.178 0.521484 249.658 0.521484 218.178V57.1777Z" fill="#EBE9E9"/>
<path d="M137.914 62.2456C96.4857 62.2456 62.5894 96.1419 62.5894 137.571C62.5894 179 96.4857 212.896 137.914 212.896C179.343 212.896 213.24 179 213.24 137.571C213.24 96.1419 179.343 62.2456 137.914 62.2456Z" fill="#C5A05E"/>
<path d="M142.434 172.22C108.538 172.22 89.3298 149.246 88.5765 110.454H105.525C105.901 138.701 118.707 150.753 128.499 153.012V110.454H144.317V134.934C154.109 133.804 164.278 122.882 167.668 110.454H183.486C180.85 125.519 169.551 136.817 161.642 141.337C169.551 145.103 182.356 154.896 186.876 172.22H169.174C165.408 160.545 155.993 151.506 143.564 149.999V172.22H142.434Z" fill="#EBE9E9"/>
</svg>
