<svg width="276" height="276" viewBox="0 0 276 276" fill="none" xmlns="http://www.w3.org/2000/svg">
<path d="M0.34375 57.7104C0.34375 26.2302 25.8635 0.710449 57.3438 0.710449H218.344C249.824 0.710449 275.344 26.2302 275.344 57.7104V218.71C275.344 250.191 249.824 275.71 218.344 275.71H57.3437C25.8635 275.71 0.34375 250.191 0.34375 218.71V57.7104Z" fill="#EBE9E9"/>
<path d="M162.17 158.079C157.888 161.88 152.539 166.609 142.842 166.609H137.043C130.025 166.609 123.643 164.058 119.074 159.435C114.611 154.917 112.155 148.734 112.155 142.023V134.088C112.155 127.376 114.611 121.194 119.074 116.676C123.643 112.052 130.025 109.506 137.043 109.506H142.842C152.551 109.506 157.888 114.231 162.17 118.032C166.617 121.95 170.453 125.374 180.683 125.374C182.244 125.374 183.802 125.249 185.342 125.002L185.307 124.912C184.694 123.39 183.975 121.913 183.156 120.492L176.319 108.648C173.235 103.308 168.801 98.8741 163.461 95.7915C158.121 92.7088 152.064 91.0861 145.898 91.0864H132.22C126.054 91.0861 119.996 92.7088 114.657 95.7915C109.317 98.8741 104.882 103.308 101.799 108.648L94.9617 120.492C91.8795 125.832 90.2568 131.89 90.2568 138.055C90.2568 144.221 91.8795 150.279 94.9617 155.619L101.799 167.463C104.882 172.803 109.317 177.237 114.657 180.319C119.996 183.402 126.054 185.025 132.22 185.025H145.898C152.064 185.025 158.121 183.402 163.461 180.319C168.801 177.237 173.235 172.803 176.319 167.463L183.156 155.638C183.975 154.217 184.694 152.74 185.307 151.219L185.342 151.132C183.802 150.877 182.244 150.746 180.683 150.741C170.453 150.741 166.617 154.145 162.17 158.083" fill="#C5A05E"/>
<path d="M142.841 116.696H137.042C126.362 116.696 119.344 124.324 119.344 134.088V142.023C119.344 151.787 126.362 159.416 137.042 159.416H142.841C158.404 159.416 157.182 143.547 180.683 143.547C182.91 143.544 185.132 143.749 187.32 144.158C188.034 140.121 188.034 135.99 187.32 131.953C185.131 132.36 182.91 132.565 180.683 132.564C157.174 132.564 158.404 116.696 142.841 116.696Z" fill="#C5A05E"/>
<path d="M200.823 149.957C196.821 147.026 192.205 145.042 187.325 144.154C187.325 144.197 187.325 144.233 187.325 144.272C186.905 146.611 186.248 148.902 185.366 151.109C189.398 151.733 193.223 153.309 196.525 155.705C196.525 155.736 196.505 155.776 196.493 155.811C192.243 169.572 183.198 181.353 171.001 189.012C158.804 196.672 144.265 199.702 130.023 197.553C115.782 195.404 102.783 188.218 93.3897 177.301C83.996 166.383 78.8298 152.458 78.8298 138.056C78.8298 123.653 83.996 109.728 93.3897 98.8105C102.783 87.8929 115.782 80.7069 130.023 78.5579C144.265 76.4089 158.804 79.4395 171.001 87.0991C183.198 94.7587 192.243 106.539 196.493 120.301C196.493 120.336 196.513 120.375 196.525 120.406C193.223 122.803 189.398 124.377 185.366 124.998C186.247 127.208 186.904 129.502 187.325 131.843C187.323 131.88 187.323 131.917 187.325 131.953C192.205 131.067 196.821 129.084 200.823 126.154C204.671 123.306 203.926 120.089 203.342 118.185C198.585 102.755 188.451 89.5447 174.78 80.9531C161.11 72.3616 144.811 68.9594 128.845 71.3649C112.879 73.7703 98.306 81.8236 87.7737 94.0615C77.2415 106.299 71.4491 121.91 71.4491 138.056C71.4491 154.202 77.2415 169.812 87.7737 182.05C98.306 194.288 112.879 202.341 128.845 204.747C144.811 207.152 161.11 203.75 174.78 195.158C188.451 186.567 198.585 173.356 203.342 157.927C203.926 156.022 204.671 152.806 200.823 149.957Z" fill="#C5A05E"/>
<path d="M185.343 124.998C183.803 125.254 182.245 125.385 180.684 125.39C170.454 125.39 166.618 121.985 162.175 118.047C157.888 114.247 152.552 109.517 142.842 109.517H137.043C130.022 109.517 123.643 112.068 119.075 116.692C114.612 121.209 112.155 127.392 112.155 134.104V142.038C112.155 148.75 114.612 154.933 119.075 159.451C123.643 164.074 130.022 166.621 137.043 166.621H142.842C152.552 166.621 157.888 161.896 162.175 158.095C166.618 154.177 170.454 150.752 180.684 150.752C182.244 150.753 183.802 150.877 185.343 151.125C186.227 148.918 186.884 146.627 187.302 144.287C187.304 144.248 187.304 144.209 187.302 144.17C185.113 143.764 182.891 143.561 180.664 143.562C157.155 143.562 158.386 159.435 142.823 159.435H137.024C126.343 159.435 119.326 151.802 119.326 142.038V134.088C119.326 124.324 126.343 116.696 137.024 116.696H142.823C158.386 116.696 157.163 132.56 180.664 132.56C182.891 132.564 185.113 132.361 187.302 131.953C187.302 131.918 187.302 131.882 187.302 131.843C186.881 129.501 186.224 127.208 185.343 124.998Z" fill="#EBE9E9"/>
<path d="M185.343 124.998C183.803 125.254 182.245 125.385 180.684 125.39C170.454 125.39 166.618 121.985 162.175 118.047C157.888 114.247 152.552 109.517 142.842 109.517H137.043C130.022 109.517 123.643 112.068 119.075 116.692C114.612 121.209 112.155 127.392 112.155 134.104V142.038C112.155 148.75 114.612 154.933 119.075 159.451C123.643 164.074 130.022 166.621 137.043 166.621H142.842C152.552 166.621 157.888 161.896 162.175 158.095C166.618 154.177 170.454 150.752 180.684 150.752C182.244 150.753 183.802 150.877 185.343 151.125C186.227 148.918 186.884 146.627 187.302 144.287C187.304 144.248 187.304 144.209 187.302 144.17C185.113 143.764 182.891 143.561 180.664 143.562C157.155 143.562 158.386 159.435 142.823 159.435H137.024C126.343 159.435 119.326 151.802 119.326 142.038V134.088C119.326 124.324 126.343 116.696 137.024 116.696H142.823C158.386 116.696 157.163 132.56 180.664 132.56C182.891 132.564 185.113 132.361 187.302 131.953C187.302 131.918 187.302 131.882 187.302 131.843C186.881 129.501 186.224 127.208 185.343 124.998Z" fill="#EBE9E9"/>
</svg>
