<svg width="276" height="276" viewBox="0 0 276 276" fill="none" xmlns="http://www.w3.org/2000/svg">
<path d="M0.810547 57.1777C0.810547 25.6975 26.3303 0.177734 57.8105 0.177734H218.811C250.291 0.177734 275.811 25.6975 275.811 57.1777V218.178C275.811 249.658 250.291 275.178 218.811 275.178H57.8105C26.3303 275.178 0.810547 249.658 0.810547 218.178V57.1777Z" fill="#EBE9E9"/>
<path d="M171.603 147.538L175.664 121.083H150.278V103.915C150.278 96.6794 153.823 89.6214 165.194 89.6214H176.733V67.0999C176.733 67.0999 166.263 65.3137 156.249 65.3137C135.345 65.3137 121.681 77.9861 121.681 100.923V121.088H98.4424V147.542H121.681V211.498H150.278V147.542L171.603 147.538Z" fill="#C5A05E"/>
</svg>
