<svg width="276" height="276" viewBox="0 0 276 276" fill="none" xmlns="http://www.w3.org/2000/svg">
<path d="M0.166016 57.1777C0.166016 25.6975 25.6858 0.177734 57.166 0.177734H218.166C249.646 0.177734 275.166 25.6975 275.166 57.1777V218.178C275.166 249.658 249.646 275.178 218.166 275.178H57.166C25.6858 275.178 0.166016 249.658 0.166016 218.178V57.1777Z" fill="#EBE9E9"/>
<path fill-rule="evenodd" clip-rule="evenodd" d="M71.3873 82.5956C71.3873 79.6264 72.5668 76.7789 74.6664 74.6793C76.7659 72.5798 79.6134 71.4003 82.5826 71.4003H194.182C195.654 71.3979 197.111 71.6858 198.471 72.2474C199.831 72.809 201.067 73.6333 202.108 74.6732C203.149 75.7131 203.975 76.9481 204.538 78.3076C205.101 79.667 205.39 81.1242 205.39 82.5956V194.195C205.391 195.667 205.103 197.124 204.54 198.484C203.978 199.845 203.153 201.08 202.113 202.121C201.072 203.162 199.837 203.988 198.477 204.551C197.117 205.114 195.66 205.403 194.188 205.403H82.5826C81.1119 205.403 79.6556 205.113 78.297 204.55C76.9383 203.987 75.7039 203.162 74.6642 202.121C73.6246 201.081 72.8 199.846 72.2378 198.487C71.6755 197.128 71.3865 195.672 71.3873 194.201V82.5956ZM124.428 122.492H142.573V131.604C145.192 126.366 151.892 121.651 161.961 121.651C181.263 121.651 185.837 132.085 185.837 151.229V186.691H166.304V155.59C166.304 144.687 163.684 138.535 157.033 138.535C147.805 138.535 143.968 145.169 143.968 155.59V186.691H124.428V122.492ZM90.9273 185.856H110.467V121.651H90.9273V185.856ZM113.263 100.71C113.3 102.383 113.002 104.047 112.387 105.603C111.773 107.16 110.853 108.578 109.683 109.774C108.513 110.97 107.115 111.921 105.573 112.569C104.03 113.218 102.374 113.553 100.7 113.553C99.0269 113.553 97.3703 113.218 95.8278 112.569C94.2853 111.921 92.8879 110.97 91.7177 109.774C90.5475 108.578 89.628 107.16 89.0133 105.603C88.3985 104.047 88.1008 102.383 88.1376 100.71C88.2099 97.4263 89.5653 94.3012 91.9134 92.0043C94.2614 89.7073 97.4156 88.4211 100.7 88.4211C103.985 88.4211 107.139 89.7073 109.487 92.0043C111.835 94.3012 113.191 97.4263 113.263 100.71Z" fill="#C5A05E"/>
</svg>
