<svg width="276" height="275" viewBox="0 0 276 275" fill="none" xmlns="http://www.w3.org/2000/svg">
<path d="M0.34375 57C0.34375 25.5198 25.8635 0 57.3438 0H218.344C249.824 0 275.344 25.5198 275.344 57V218C275.344 249.48 249.824 275 218.344 275H57.3437C25.8635 275 0.34375 249.48 0.34375 218V57Z" fill="#EBE9E9"/>
<path d="M137.737 212.718C179.338 212.718 213.062 178.994 213.062 137.393C213.062 95.7921 179.338 62.0679 137.737 62.0679C96.1358 62.0679 62.4116 95.7921 62.4116 137.393C62.4116 178.994 96.1358 212.718 137.737 212.718Z" fill="#C5A05E"/>
<path d="M139.41 89.9994C106.898 89.9994 89.637 111.823 89.637 135.583C89.637 146.632 95.5181 160.385 104.928 164.765C106.353 165.429 107.118 165.142 107.446 163.76C107.697 162.711 108.966 157.595 109.537 155.216C109.72 154.457 109.63 153.806 109.016 153.058C105.901 149.28 103.41 142.339 103.41 135.867C103.41 119.252 115.989 103.176 137.419 103.176C155.923 103.176 168.879 115.787 168.879 133.821C168.879 154.197 158.588 168.314 145.201 168.314C137.807 168.314 132.271 162.198 134.047 154.698C136.176 145.746 140.287 136.087 140.287 129.62C140.287 123.838 137.187 119.011 130.759 119.011C123.2 119.011 117.131 126.827 117.131 137.304C117.131 143.97 119.384 148.483 119.384 148.483C119.384 148.483 111.919 180.05 110.551 185.926C109.037 192.412 109.627 201.524 110.282 207.482C111.981 208.148 113.681 208.814 115.438 209.358C118.514 204.357 123.102 196.154 124.802 189.614C125.721 186.088 129.498 171.707 129.498 171.707C131.952 176.392 139.125 180.358 146.759 180.358C169.476 180.358 185.847 159.466 185.847 133.505C185.847 108.616 165.541 89.9994 139.41 89.9994Z" fill="#EBE9E9"/>
</svg>
