<svg width="276" height="276" viewBox="0 0 276 276" fill="none" xmlns="http://www.w3.org/2000/svg">
<path d="M0.988281 57.7104C0.988281 26.2302 26.5081 0.710449 57.9883 0.710449H218.988C250.469 0.710449 275.988 26.2302 275.988 57.7104V218.71C275.988 250.191 250.469 275.71 218.988 275.71H57.9883C26.508 275.71 0.988281 250.191 0.988281 218.71V57.7104Z" fill="#EBE9E9"/>
<path d="M181.317 70.3109C179.461 70.3131 177.635 70.7721 176 71.6473C174.364 72.5225 172.969 73.787 171.938 75.3291L144.34 70.3594L131.915 108.991C116.927 110.16 103.672 115.351 94.2411 123C92.8643 121.363 91.1465 120.046 89.2078 119.142C87.2692 118.238 85.1564 117.768 83.0173 117.766C79.4089 117.785 75.9338 119.131 73.2548 121.549C70.5758 123.966 68.8803 127.285 68.4919 130.873C68.1034 134.46 69.049 138.065 71.1485 141C73.2479 143.935 76.3542 145.994 79.8749 146.785C79.7207 148.02 79.6277 149.269 79.6277 150.532C79.6277 173.627 105.931 192.338 138.381 192.338C170.831 192.338 197.135 173.627 197.135 150.532C197.135 149.272 197.041 148.026 196.888 146.794C200.417 146.011 203.534 143.954 205.641 141.016C207.749 138.079 208.699 134.467 208.31 130.873C207.921 127.279 206.22 123.954 203.532 121.536C200.845 119.118 197.36 117.775 193.745 117.766C191.606 117.768 189.493 118.238 187.555 119.142C185.616 120.046 183.898 121.363 182.522 123C173.257 115.486 160.293 110.361 145.628 109.075L151.017 80.7446L170.327 84.2225C170.915 86.6954 172.319 88.8979 174.313 90.474C176.307 92.0501 178.775 92.9078 181.317 92.9084C184.313 92.9084 187.187 91.718 189.306 89.5991C191.425 87.4801 192.615 84.6062 192.615 81.6096C192.615 78.613 191.425 75.7391 189.306 73.6202C187.187 71.5012 184.313 70.3109 181.317 70.3109ZM113.864 131.324C119.92 131.324 124.823 136.386 124.823 142.623C124.823 148.86 119.92 153.922 113.864 153.922C107.83 154.057 102.905 148.86 102.905 142.623C102.905 136.386 107.83 131.324 113.864 131.324ZM162.899 131.324C168.932 131.324 173.858 136.386 173.858 142.623C173.858 148.86 168.932 154.057 162.899 153.922C156.843 153.922 151.94 148.86 151.94 142.623C151.94 136.386 156.843 131.324 162.899 131.324ZM116.234 163.866C116.302 163.911 124.439 170.645 138.381 170.645C152.324 170.645 161.229 164.904 161.297 164.859L165.949 171.095C165.519 171.411 155.51 178.779 138.381 178.779C121.252 178.779 111.243 171.411 110.814 171.095L116.234 163.866Z" fill="#C5A05E"/>
</svg>
