<svg width="276" height="276" viewBox="0 0 276 276" fill="none" xmlns="http://www.w3.org/2000/svg">
<path d="M0.810547 57.5327C0.810547 26.0525 26.3303 0.532715 57.8105 0.532715H218.811C250.291 0.532715 275.811 26.0525 275.811 57.5327V218.533C275.811 250.013 250.291 275.533 218.811 275.533H57.8105C26.3303 275.533 0.810547 250.013 0.810547 218.533V57.5327Z" fill="#EBE9E9"/>
<path d="M203.258 147.092C203.632 144.283 203.887 141.436 203.887 138.529C203.887 102.588 174.747 73.4477 138.806 73.4477C135.899 73.4477 133.052 73.7026 130.243 74.0768C124.049 70.2641 116.782 68.0243 108.977 68.0243C86.5136 68.0243 68.3018 86.2361 68.3018 108.7C68.3018 116.504 70.5417 123.771 74.3544 129.965C73.9802 132.774 73.7253 135.622 73.7253 138.529C73.7253 174.469 102.865 203.609 138.806 203.609C141.713 203.609 144.56 203.355 147.37 202.98C153.563 206.793 160.831 209.033 168.635 209.033C191.099 209.033 209.31 190.821 209.31 168.357C209.31 160.553 207.071 153.286 203.258 147.092ZM139.614 176.492C118.485 176.492 106.352 165.418 106.352 154.549C106.352 149.007 112.156 147.233 114.477 147.233C119.84 147.233 121.625 151.61 122.601 153.616C128.052 164.821 133.291 163.346 138.454 163.834C143.015 164.263 153.721 162.251 153.721 154.43C153.721 153.682 154.897 148.594 145.656 146.073C139.75 144.456 129.337 142.477 120.768 139.179C112.709 136.077 107.979 129.688 107.979 121.456C107.979 117.339 110.089 100.565 138.627 100.565C157.674 100.565 167.827 110.321 167.827 118.907C167.827 120.881 167.073 122.622 165.56 124.189C164.047 125.756 159.784 128.051 155.114 125.062C153.937 124.308 152.967 122.741 151.806 120.707C150.407 118.153 148.118 113.218 137.58 113.218C127.357 113.218 124.521 118.093 124.521 120.127C124.521 126.96 137.564 128.398 141.068 129.303C153.856 132.601 171.254 135.632 171.254 152.873C171.254 172.669 150.656 176.492 139.614 176.492Z" fill="#C5A05E"/>
</svg>
