<svg width="276" height="276" viewBox="0 0 276 276" fill="none" xmlns="http://www.w3.org/2000/svg">
<path d="M0.166016 57.5327C0.166016 26.0525 25.6858 0.532715 57.166 0.532715H218.166C249.646 0.532715 275.166 26.0525 275.166 57.5327V218.533C275.166 250.013 249.646 275.533 218.166 275.533H57.166C25.6858 275.533 0.166016 250.013 0.166016 218.533V57.5327Z" fill="#EBE9E9"/>
<path d="M156.029 90.5581C137.749 90.5581 129.303 101.042 125.826 107.289V172.691H205.352C211.816 172.691 226.646 167.368 226.646 149.442C226.646 132.901 211.517 125.324 204.048 125.324C197.231 125.324 194.27 127.931 194.27 127.931C194.27 127.931 193.673 90.5581 156.029 90.5581ZM105.184 105.551C103.582 105.551 102.006 105.551 100.621 105.768V172.691H109.747V105.768C108.28 105.551 106.841 105.551 105.184 105.551ZM95.8409 107.072C93.4236 108.022 91.468 109.299 89.7569 110.765V172.691H95.8409V107.072ZM114.527 107.072V172.691H123.87V111.635C123.789 111.852 123.653 111.852 123.653 111.852C123.653 111.852 120.394 108.973 114.527 107.072ZM82.152 122.716C81.3915 125.106 81.0655 126.845 81.0655 126.845C81.0655 126.845 76.8828 126.247 71.5051 126.845V172.691H82.152V122.716ZM61.0754 129.452C54.3396 132.494 48.4729 138.578 48.4729 150.311C48.4729 161.664 54.7742 167.477 61.0754 170.301V129.452Z" fill="#C5A05E"/>
</svg>
