<svg width="276" height="275" viewBox="0 0 276 275" fill="none" xmlns="http://www.w3.org/2000/svg">
<path d="M0.988281 57C0.988281 25.5198 26.5081 0 57.9883 0H218.988C250.469 0 275.988 25.5198 275.988 57V218C275.988 249.48 250.469 275 218.988 275H57.9883C26.508 275 0.988281 249.48 0.988281 218V57Z" fill="#EBE9E9"/>
<path d="M142.99 76.0345C149.89 75.9277 156.751 75.991 163.605 75.9277C164.02 83.999 166.923 92.2205 172.831 97.927C178.727 103.776 187.067 106.453 195.182 107.359V128.591C187.577 128.342 179.937 126.76 173.036 123.485C170.031 122.125 167.231 120.373 164.491 118.582C164.455 133.989 164.554 149.376 164.392 164.72C163.98 172.091 161.548 179.427 157.262 185.501C150.365 195.613 138.394 202.205 126.1 202.411C118.558 202.842 111.025 200.785 104.599 196.997C93.9489 190.717 86.455 179.221 85.3636 166.883C85.2261 164.27 85.205 161.652 85.3003 159.037C86.2494 149.004 91.2124 139.406 98.9159 132.877C107.648 125.273 119.879 121.65 131.331 123.794C131.438 131.604 131.126 139.406 131.126 147.217C125.894 145.524 119.78 145.999 115.209 149.174C111.864 151.378 109.337 154.619 108.015 158.4C106.924 161.074 107.236 164.043 107.3 166.883C108.553 175.535 116.874 182.808 125.756 182.021C131.644 181.958 137.287 178.541 140.356 173.538C141.348 171.786 142.46 169.995 142.519 167.935C143.037 158.503 142.831 149.111 142.895 139.679C142.938 118.424 142.831 97.227 142.993 76.0384L142.99 76.0345Z" fill="#C5A05E"/>
</svg>
