<svg width="276" height="275" viewBox="0 0 276 275" fill="none" xmlns="http://www.w3.org/2000/svg">
<path d="M0.521484 57C0.521484 25.5198 26.0413 0 57.5215 0H218.521C250.002 0 275.521 25.5198 275.521 57V218C275.521 249.48 250.002 275 218.521 275H57.5215C26.0413 275 0.521484 249.48 0.521484 218V57Z" fill="#EBE9E9"/>
<path d="M190.582 69.6607H86.4524C77.4712 69.6607 70.1821 76.9497 70.1821 85.9309V190.06C70.1821 199.041 77.4712 206.331 86.4524 206.331H190.582C199.563 206.331 206.852 199.041 206.852 190.06V85.9309C206.852 76.9497 199.563 69.6607 190.582 69.6607ZM156.902 115.217C157.521 115.217 158.041 115.77 158.041 116.421V130.284C158.041 130.934 157.521 131.488 156.902 131.488H141.771C141.771 131.488 141.771 157.455 141.771 158.138C141.771 158.789 142.357 166.892 150.817 166.892C157.814 166.892 162.76 163.182 162.825 163.149C162.988 163.019 163.215 162.954 163.411 162.954C163.606 162.954 163.801 163.019 163.964 163.117C164.322 163.312 164.549 163.703 164.549 164.126V176.166C164.549 176.491 164.419 176.816 164.159 177.012C163.866 177.304 155.829 183.552 139.331 183.552C119.546 183.552 118.993 161.099 118.993 158.529V131.488H110.37C109.751 131.488 109.231 130.999 109.231 130.349V118.732C109.231 118.244 109.524 117.821 109.947 117.658C110.142 117.593 127.844 110.531 127.844 93.5453C127.844 92.8945 128.332 92.3739 128.95 92.3739L140.632 92.439C141.25 92.439 141.771 92.9596 141.771 93.5779V115.217H156.902Z" fill="#C5A05E"/>
</svg>
