<svg width="276" height="276" viewBox="0 0 276 276" fill="none" xmlns="http://www.w3.org/2000/svg">
<path d="M0.521484 57.7104C0.521484 26.2302 26.0413 0.710449 57.5215 0.710449H218.521C250.002 0.710449 275.521 26.2302 275.521 57.7104V218.71C275.521 250.191 250.002 275.71 218.521 275.71H57.5215C26.0413 275.71 0.521484 250.191 0.521484 218.71V57.7104Z" fill="#EBE9E9"/>
<path d="M93.525 70.9135L70.7245 102.347V192.94H104.621V213.278H124.959L145.296 192.94H172.413L206.31 159.044V70.9135H93.525ZM97.8415 84.472H192.751V145.485L172.413 165.823H138.517L118.179 186.161V165.823H97.8415V84.472ZM131.738 104.81V138.706H145.296V104.81H131.738ZM165.634 104.81V138.706H179.193V104.81H165.634Z" fill="#C5A05E"/>
</svg>
