<svg width="276" height="275" viewBox="0 0 276 275" fill="none" xmlns="http://www.w3.org/2000/svg">
<path d="M0.988281 57C0.988281 25.5198 26.5081 0 57.9883 0H218.988C250.469 0 275.988 25.5198 275.988 57V218C275.988 249.48 250.469 275 218.988 275H57.9883C26.508 275 0.988281 249.48 0.988281 218V57Z" fill="#EBE9E9"/>
<path d="M173.366 85H192.324L150.907 132.336L199.63 196.75H161.481L131.6 157.683L97.4105 196.75H78.4417L122.741 146.119L76.0004 85H115.119L142.128 120.708L173.366 85ZM166.713 185.403H177.217L109.411 95.7509H98.1383L166.713 185.403Z" fill="#C5A05E"/>
</svg>
