<svg width="276" height="276" viewBox="0 0 276 276" fill="none" xmlns="http://www.w3.org/2000/svg">
<path d="M0.521484 57.5327C0.521484 26.0525 26.0413 0.532715 57.5215 0.532715H218.521C250.002 0.532715 275.521 26.0525 275.521 57.5327V218.533C275.521 250.013 250.002 275.533 218.521 275.533H57.5215C26.0413 275.533 0.521484 250.013 0.521484 218.533V57.5327Z" fill="#EBE9E9"/>
<path d="M118.993 76.7017C88.4866 76.7017 63.6745 97.8657 63.6745 123.885C63.6745 137.779 70.3733 150.274 82.6014 159.324L74.0214 185.077L100.855 168.463C108.303 170.802 117.392 171.628 126.162 170.662C133.281 184.441 149.36 193.847 167.804 193.847C173.41 193.847 178.596 192.792 183.413 191.356L205.696 203.825L199.48 182.509C207.869 175.543 213.361 165.845 213.361 154.799C213.361 134.588 195.781 118.47 173.499 116.093C169.126 93.4676 146.22 76.7017 118.993 76.7017ZM99.469 102.734C103.054 102.734 105.977 105.658 105.977 109.242C105.977 112.827 103.054 115.75 99.469 115.75C95.8845 115.75 92.9609 112.827 92.9609 109.242C92.9609 105.658 95.8845 102.734 99.469 102.734ZM138.518 102.734C142.102 102.734 145.026 105.658 145.026 109.242C145.026 112.827 142.102 115.75 138.518 115.75C134.933 115.75 132.009 112.827 132.009 109.242C132.009 105.658 134.933 102.734 138.518 102.734ZM167.804 122.258C189.756 122.258 206.852 137.016 206.852 154.799C206.852 164.421 201.946 172.861 193.849 178.861L192.031 180.221L194.993 190.377L184.417 184.441L183.045 184.899C178.494 186.424 173.295 187.339 167.804 187.339C145.852 187.339 128.755 172.582 128.755 154.799C128.755 137.016 145.852 122.258 167.804 122.258ZM153.161 141.783C150.555 141.783 148.28 144.058 148.28 146.664C148.28 149.269 150.555 151.545 153.161 151.545C155.767 151.545 158.042 149.269 158.042 146.664C158.042 144.058 155.767 141.783 153.161 141.783ZM182.447 141.783C179.841 141.783 177.566 144.058 177.566 146.664C177.566 149.269 179.841 151.545 182.447 151.545C185.053 151.545 187.328 149.269 187.328 146.664C187.328 144.058 185.053 141.783 182.447 141.783Z" fill="#C5A05E"/>
</svg>
