<svg width="276" height="275" viewBox="0 0 276 275" fill="none" xmlns="http://www.w3.org/2000/svg">
<path d="M0.810547 57C0.810547 25.5198 26.3303 0 57.8105 0H218.811C250.291 0 275.811 25.5198 275.811 57V218C275.811 249.48 250.291 275 218.811 275H57.8105C26.3303 275 0.810547 249.48 0.810547 218V57Z" fill="#EBE9E9"/>
<path d="M138.806 72.9147C102.865 72.9147 73.7253 102.055 73.7253 137.996C73.7253 150.205 77.1547 161.588 83.0044 171.352L74.3078 203.076L106.711 194.571C116.187 199.958 127.127 203.076 138.806 203.076C174.747 203.076 203.887 173.937 203.887 137.996C203.887 102.055 174.747 72.9147 138.806 72.9147ZM116.53 107.637C117.587 107.637 118.674 107.631 119.612 107.68C120.773 107.707 122.036 107.792 123.246 110.465C124.683 113.644 127.812 121.616 128.214 122.424C128.615 123.233 128.899 124.185 128.341 125.242C127.809 126.327 127.533 126.983 126.752 127.943C125.944 128.876 125.058 130.035 124.326 130.74C123.518 131.548 122.684 132.434 123.616 134.045C124.549 135.655 127.789 140.936 132.578 145.199C138.733 150.698 143.927 152.388 145.543 153.196C147.159 154.004 148.095 153.878 149.028 152.793C149.988 151.736 153.06 148.107 154.144 146.491C155.202 144.875 156.281 145.154 157.746 145.686C159.232 146.217 167.156 150.121 168.773 150.929C170.389 151.737 171.448 152.137 171.855 152.793C172.273 153.471 172.273 156.699 170.933 160.462C169.594 164.221 163.016 167.855 160.065 168.11C157.088 168.387 154.309 169.449 140.713 164.096C124.312 157.636 113.97 140.839 113.161 139.754C112.353 138.696 106.594 131.021 106.594 123.102C106.594 115.157 110.76 111.266 112.219 109.65C113.705 108.034 115.445 107.637 116.53 107.637Z" fill="#C5A05E"/>
</svg>
