<svg width="15" height="14" viewBox="0 0 15 14" fill="none" xmlns="http://www.w3.org/2000/svg">
    <path
        d="M7.64669 0.333984C3.96669 0.333984 0.986694 3.32065 0.986694 7.00065C0.986694 10.6807 3.96669 13.6673 7.64669 13.6673C11.3334 13.6673 14.32 10.6807 14.32 7.00065C14.32 3.32065 11.3334 0.333984 7.64669 0.333984ZM7.65336 12.334C4.70669 12.334 2.32003 9.94732 2.32003 7.00065C2.32003 4.05398 4.70669 1.66732 7.65336 1.66732C10.6 1.66732 12.9867 4.05398 12.9867 7.00065C12.9867 9.94732 10.6 12.334 7.65336 12.334ZM7.98669 3.66732H6.98669V7.66732L10.4867 9.76732L10.9867 8.94732L7.98669 7.16732V3.66732Z"
        fill="#1B1A17" />
</svg>
    