<svg width="24" height="19" viewBox="0 0 24 19" fill="none" xmlns="http://www.w3.org/2000/svg">
    <path
        d="M4.21875 7.5C2.66794 7.5 1.40625 6.23831 1.40625 4.6875C1.40625 3.13669 2.66794 1.875 4.21875 1.875C5.76956 1.875 7.03125 3.13669 7.03125 4.6875C7.03125 6.23831 5.76956 7.5 4.21875 7.5Z"
        fill="#C5A05E" />
    <path
        d="M14.0625 5.625C12.5117 5.625 11.25 4.36331 11.25 2.8125C11.25 1.26169 12.5117 0 14.0625 0C15.6133 0 16.875 1.26169 16.875 2.8125C16.875 4.36331 15.6133 5.625 14.0625 5.625Z"
        fill="#C5A05E" />
    <path
        d="M23.2969 4.6875H20.4844C20.0961 4.6875 19.7812 5.00231 19.7812 5.39062C19.7812 5.77894 20.0961 6.09375 20.4844 6.09375H21.5994L14.3906 13.3025L12.544 11.4559C12.2695 11.1814 11.8243 11.1814 11.5497 11.4559L6.13064 16.875H0.703125C0.314812 16.875 0 17.1898 0 17.5781C0 17.9664 0.314812 18.2812 0.703125 18.2812H6.42188C6.60839 18.2812 6.78722 18.2072 6.91903 18.0753L12.0469 12.9475L13.8935 14.7941C14.168 15.0686 14.6132 15.0686 14.8878 14.7941L22.5938 7.08811V8.20312C22.5938 8.59144 22.9086 8.90625 23.2969 8.90625C23.6852 8.90625 24 8.59144 24 8.20312V5.39062C24 5.00231 23.6852 4.6875 23.2969 4.6875Z"
        fill="#C5A05E" />
    <path
        d="M16.3933 6.32709C15.7251 6.7717 14.9236 7.03125 14.0625 7.03125C13.2015 7.03125 12.3999 6.77175 11.7317 6.32709C10.5939 7.08272 9.84375 8.37553 9.84375 9.84375V11.1732L10.5554 10.4616C10.9537 10.0632 11.4835 9.84375 12.0469 9.84375C12.6103 9.84375 13.14 10.0632 13.5384 10.4615L14.3906 11.3137L17.8064 7.89792C17.4754 7.26225 16.9871 6.72155 16.3933 6.32709Z"
        fill="#C5A05E" />
    <path
        d="M1.88794 8.20209C0.750188 8.95772 0 10.2505 0 11.7188V15.4688H5.54813L8.4375 12.5794V11.7188C8.4375 10.2505 7.68731 8.95772 6.54956 8.20209C5.88131 8.64675 5.0798 8.90625 4.21875 8.90625C3.3577 8.90625 2.55619 8.64675 1.88794 8.20209Z"
        fill="#C5A05E" />
</svg>
    