<svg width="25" height="24" viewBox="0 0 25 24" fill="none" xmlns="http://www.w3.org/2000/svg">
    <path
        d="M22.5683 0H2.11166C1.64179 0 1.19116 0.186657 0.858906 0.518909C0.526654 0.851161 0.339996 1.30179 0.339996 1.77167V22.2283C0.339996 22.6982 0.526654 23.1488 0.858906 23.4811C1.19116 23.8133 1.64179 24 2.11166 24H22.5683C23.0382 24 23.4888 23.8133 23.8211 23.4811C24.1533 23.1488 24.34 22.6982 24.34 22.2283V1.77167C24.34 1.30179 24.1533 0.851161 23.8211 0.518909C23.4888 0.186657 23.0382 0 22.5683 0ZM7.49333 20.445H3.885V8.98333H7.49333V20.445ZM5.68666 7.395C5.27736 7.3927 4.87791 7.2692 4.53873 7.04009C4.19955 6.81098 3.93584 6.48653 3.78087 6.10769C3.62591 5.72885 3.58664 5.31259 3.66803 4.91145C3.74941 4.51032 3.9478 4.14228 4.23815 3.85378C4.5285 3.56529 4.89781 3.36927 5.29946 3.29046C5.70111 3.21165 6.11711 3.25359 6.49495 3.41099C6.87279 3.56838 7.19554 3.83417 7.42246 4.17481C7.64939 4.51546 7.77032 4.91569 7.77 5.325C7.77386 5.59903 7.72251 5.87104 7.61901 6.1248C7.51551 6.37857 7.36198 6.6089 7.16757 6.80207C6.97316 6.99523 6.74185 7.14728 6.48742 7.24915C6.233 7.35102 5.96067 7.40062 5.68666 7.395ZM20.7933 20.455H17.1867V14.1933C17.1867 12.3467 16.4017 11.7767 15.3883 11.7767C14.3183 11.7767 13.2683 12.5833 13.2683 14.24V20.455H9.66V8.99167H13.13V10.58H13.1767C13.525 9.875 14.745 8.67 16.6067 8.67C18.62 8.67 20.795 9.865 20.795 13.365L20.7933 20.455Z"
        fill="#0A66C2" />
</svg>
    