<svg width="22" height="24" viewBox="0 0 22 24" fill="none" xmlns="http://www.w3.org/2000/svg">
    <path
        d="M7.13908 12.3938C5.23596 12.3938 3.69846 13.9313 3.72658 15.8156C3.74533 17.025 4.41096 18.075 5.39065 18.6609C5.05783 18.15 4.86096 17.5453 4.85158 16.8937C4.82346 15.0094 6.36096 13.4719 8.26408 13.4719C8.63908 13.4719 9.00002 13.5328 9.33752 13.6406V9.86719C8.98596 9.81562 8.62502 9.7875 8.26408 9.7875C8.24533 9.7875 8.23127 9.7875 8.21252 9.7875V12.5625C7.87502 12.4547 7.51408 12.3938 7.13908 12.3938Z"
        fill="#F00044" />
    <path
        d="M15.3656 1.07812H14.3625C14.6438 2.48906 15.436 3.71719 16.5422 4.55156C15.8156 3.59062 15.375 2.39062 15.3656 1.07812Z"
        fill="#F00044" />
    <path
        d="M21.1031 6.82031C20.7328 6.82031 20.3766 6.78281 20.025 6.71719V9.42188C18.75 9.42188 17.5125 9.17344 16.35 8.67656C15.6 8.35781 14.9016 7.95 14.2594 7.45781L14.2781 15.7969C14.2688 17.6719 13.5281 19.4297 12.1875 20.7563C11.0953 21.8344 9.71252 22.5234 8.21252 22.7438C7.86096 22.7953 7.50002 22.8234 7.13908 22.8234C5.53596 22.8234 4.00783 22.3031 2.76565 21.3422C2.90627 21.5109 3.05627 21.675 3.22033 21.8344C4.57033 23.1656 6.36096 23.9016 8.26877 23.9016C8.62971 23.9016 8.99065 23.8734 9.34221 23.8219C10.8422 23.6016 12.225 22.9125 13.3172 21.8344C14.6578 20.5078 15.3985 18.75 15.4078 16.875L15.3375 8.53594C15.975 9.02813 16.6735 9.44063 17.4281 9.75469C18.5953 10.2469 19.8328 10.5 21.1031 10.5"
        fill="#F00044" />
    <path
        d="M3.20627 11.8641C4.54221 10.5375 6.31877 9.80156 8.21252 9.7875V8.78906C7.86096 8.7375 7.50002 8.70938 7.13908 8.70938C5.22658 8.70938 3.43127 9.44531 2.08127 10.7859C0.754709 12.1031 -0.00466593 13.9031 2.15739e-05 15.7734C2.15739e-05 17.6578 0.745334 19.425 2.09065 20.7609C2.30627 20.9719 2.52658 21.1687 2.76096 21.3469C1.70158 20.0859 1.12502 18.5109 1.12033 16.8516C1.12502 14.9812 1.87971 13.1813 3.20627 11.8641Z"
        fill="#08FFF9" />
    <path
        d="M20.025 6.71719L20.025 5.71406H20.0156C18.7125 5.71406 17.5125 5.28281 16.5469 4.55156C17.386 5.65781 18.6141 6.44531 20.025 6.71719Z"
        fill="#08FFF9" />
    <path
        d="M8.0719 20.2125C8.51721 20.2359 8.94377 20.175 9.33752 20.0484C10.6969 19.6031 11.6766 18.3375 11.6766 16.8469L11.6813 1.07812H14.3625C14.2922 0.726562 14.2547 0.370313 14.25 0H10.5563L10.5516 15.7641C10.5516 17.2547 9.5719 18.5203 8.21252 18.9656C7.81877 19.0969 7.39221 19.1578 6.9469 19.1297C6.37971 19.0969 5.85002 18.9281 5.39065 18.6562C5.96721 19.5469 6.95158 20.1516 8.0719 20.2125Z"
        fill="#08FFF9" />
    <path
        d="M8.21252 22.7438C9.71252 22.5234 11.0953 21.8344 12.1875 20.7563C13.5281 19.4297 14.2688 17.6719 14.2781 15.7969L14.2594 7.45781C14.8969 7.95 15.5953 8.3625 16.35 8.67656C17.5172 9.16875 18.7547 9.42188 20.025 9.42188V6.71719C18.6141 6.44531 17.386 5.65781 16.5469 4.55156C15.4406 3.71719 14.6438 2.48906 14.3672 1.07812H11.6813L11.6766 16.8422C11.6766 18.3328 10.6969 19.5984 9.33752 20.0438C8.94377 20.175 8.51721 20.2359 8.0719 20.2078C6.9469 20.1469 5.96721 19.5422 5.39065 18.6562C4.41096 18.075 3.74533 17.0203 3.72658 15.8109C3.69846 13.9266 5.23596 12.3891 7.13908 12.3891C7.51408 12.3891 7.87502 12.45 8.21252 12.5578V9.78281C6.31877 9.79687 4.54221 10.5328 3.20627 11.8594C1.87971 13.1766 1.12033 14.9766 1.12502 16.8422C1.12502 18.5016 1.70158 20.0766 2.76565 21.3375C4.01252 22.2984 5.53596 22.8187 7.13908 22.8187C7.50002 22.8234 7.86096 22.7953 8.21252 22.7438Z"
        fill="black" />
</svg>
    