<svg
    width="6074"
    height="453"
    viewBox="0 0 6074 453"
    fill="none"
    xmlns="http://www.w3.org/2000/svg"
>
    <mask id="path-1-inside-1_140_904" fill="white">
        <path
            d="M328.086 445.122H161.418L0 7.22172H150.264L244.752 302L339.241 7.22172H489.505L328.086 445.122Z" />
        <path d="M645.648 445.122H513.101V7.22172H645.648V445.122Z" />
        <path
            d="M1107.97 445.122H957.048L896.68 307.252H848.78V445.122H716.233V7.22172H949.83C999.262 7.22172 1037.76 21.6652 1065.32 50.5522C1093.31 79.0015 1107.31 114.672 1107.31 157.565C1107.31 191.704 1099.44 219.716 1083.69 241.6C1068.38 263.484 1050.01 279.678 1028.57 290.183L1107.97 445.122ZM929.489 191.704C941.738 191.704 952.018 188.859 960.329 183.17C968.641 177.042 972.796 168.288 972.796 156.909C972.796 145.967 968.641 137.651 960.329 131.961C952.018 125.833 941.738 122.77 929.489 122.77H848.78V191.704H929.489Z" />
        <path d="M1380.92 445.122H1248.37V122.77H1130.91V7.22172H1497.71V122.77H1380.92V445.122Z" />
        <path
            d="M1922.73 401.791C1886.43 435.93 1832.62 453 1761.32 453C1690.01 453 1635.99 435.93 1599.24 401.791C1562.93 367.214 1544.78 321.696 1544.78 265.235V7.22172H1679.29V260.639C1679.29 282.523 1686.29 300.687 1700.29 315.13C1714.73 329.136 1735.07 336.139 1761.32 336.139C1787.13 336.139 1807.03 329.136 1821.03 315.13C1835.46 300.687 1842.68 282.523 1842.68 260.639V7.22172H1977.2V264.578C1977.2 321.477 1959.04 367.214 1922.73 401.791Z" />
        <path
            d="M2463.79 445.122H2313.53L2297.78 393.913H2140.3L2124.55 445.122H1974.28L2135.7 7.22172H2302.37L2463.79 445.122ZM2262.34 278.365L2219.04 137.213L2175.73 278.365H2262.34Z" />
        <path d="M2785.94 445.122H2487.39V7.22172H2619.93V329.574H2785.94V445.122Z" />
        <path
            d="M3431.63 445.122H3275.46L3195.41 311.191L3115.35 445.122H2959.18L3105.51 220.591L2969.03 7.22172H3124.54L3195.41 131.961L3264.96 7.22172H3421.79L3285.3 219.935L3431.63 445.122Z" />
        <path
            d="M3587.53 445.122H3454.98V7.22172H3688.58C3738.01 7.22172 3776.51 21.6652 3804.07 50.5522C3832.07 79.0015 3846.06 114.672 3846.06 157.565C3846.06 200.02 3832.07 235.691 3804.07 264.578C3776.51 293.028 3738.01 307.252 3688.58 307.252H3587.53V445.122ZM3671.52 191.704C3683.33 191.704 3692.96 188.859 3700.39 183.17C3707.83 177.042 3711.55 168.507 3711.55 157.565C3711.55 146.186 3707.83 137.651 3700.39 131.961C3692.96 125.833 3683.33 122.77 3671.52 122.77H3587.53V191.704H3671.52Z" />
        <path
            d="M4275.93 389.974C4230.43 431.991 4173.57 453 4105.32 453C4037.08 453 3979.99 431.991 3934.06 389.974C3888.57 347.519 3865.82 293.028 3865.82 226.5C3865.82 159.972 3888.57 105.7 3934.06 63.6826C3979.99 21.2275 4037.08 0 4105.32 0C4173.57 0 4230.43 21.2275 4275.93 63.6826C4321.86 105.7 4344.83 159.972 4344.83 226.5C4344.83 293.028 4321.86 347.519 4275.93 389.974ZM4029.21 304.626C4048.89 325.635 4074.26 336.139 4105.32 336.139C4136.38 336.139 4161.54 325.635 4180.78 304.626C4200.47 283.617 4210.31 257.575 4210.31 226.5C4210.31 195.425 4200.47 169.383 4180.78 148.374C4161.54 127.365 4136.38 116.861 4105.32 116.861C4074.26 116.861 4048.89 127.365 4029.21 148.374C4009.96 169.383 4000.34 195.425 4000.34 226.5C4000.34 257.575 4009.96 283.617 4029.21 304.626Z" />
        <path
            d="M4561.77 453C4477.78 453 4409.98 429.803 4358.36 383.409L4427.26 284.93C4466.63 322.571 4513.65 341.391 4568.34 341.391C4600.71 341.391 4616.89 333.513 4616.89 317.757C4616.89 310.316 4608.36 304.626 4591.3 300.687C4574.68 296.748 4554.34 292.59 4530.28 288.213C4506.66 283.836 4482.81 277.49 4458.75 269.174C4435.13 260.858 4414.79 246.196 4397.73 225.187C4381.11 204.178 4372.8 177.699 4372.8 145.748C4372.8 105.919 4388.76 71.7797 4420.7 43.3304C4453.07 14.8811 4497.69 0.656513 4554.56 0.656513C4628.48 0.656513 4690.38 21.0087 4740.25 61.713L4669.39 155.596C4631.33 126.709 4588.46 112.265 4540.78 112.265C4518.47 112.265 4507.31 118.83 4507.31 131.961C4507.31 138.088 4513.22 143.341 4525.03 147.717C4537.28 152.094 4552.37 155.596 4570.3 158.222C4588.24 160.41 4607.71 164.787 4628.7 171.352C4650.14 177.48 4669.82 184.92 4687.76 193.674C4705.69 202.428 4720.57 216.214 4732.38 235.035C4744.63 253.417 4750.75 275.301 4750.75 300.687C4750.75 348.832 4733.91 386.254 4700.23 412.952C4666.98 439.651 4620.83 453 4561.77 453Z" />
        <path
            d="M5172.2 401.791C5135.89 435.93 5082.08 453 5010.78 453C4939.48 453 4885.45 435.93 4848.71 401.791C4812.4 367.214 4794.24 321.696 4794.24 265.235V7.22172H4928.76V260.639C4928.76 282.523 4935.76 300.687 4949.76 315.13C4964.19 329.136 4984.53 336.139 5010.78 336.139C5036.59 336.139 5056.49 329.136 5070.49 315.13C5084.93 300.687 5092.15 282.523 5092.15 260.639V7.22172H5226.66V264.578C5226.66 321.477 5208.51 367.214 5172.2 401.791Z" />
        <path
            d="M5689 445.122H5538.08L5477.71 307.252H5429.81V445.122H5297.27V7.22172H5530.86C5580.3 7.22172 5618.79 21.6652 5646.35 50.5522C5674.35 79.0015 5688.34 114.672 5688.34 157.565C5688.34 191.704 5680.47 219.716 5664.72 241.6C5649.41 263.484 5631.04 279.678 5609.6 290.183L5689 445.122ZM5510.52 191.704C5522.77 191.704 5533.05 188.859 5541.36 183.17C5549.67 177.042 5553.83 168.288 5553.83 156.909C5553.83 145.967 5549.67 137.651 5541.36 131.961C5533.05 125.833 5522.77 122.77 5510.52 122.77H5429.81V191.704H5510.52Z" />
        <path
            d="M6074 445.122H5741.98V7.22172H6074V122.77H5874.52V166.1H6069.41V281.648H5874.52V329.574H6074V445.122Z" />
    </mask>
    <path
        d="M328.086 445.122H161.418L0 7.22172H150.264L244.752 302L339.241 7.22172H489.505L328.086 445.122Z"
        stroke="#c5a05e"
        stroke-width="2"
        mask="url(#path-1-inside-1_140_904)"
    />
    <path
        d="M645.648 445.122H513.101V7.22172H645.648V445.122Z"
        stroke="#c5a05e"
        stroke-width="2"
        mask="url(#path-1-inside-1_140_904)"
    />
    <path
        d="M1107.97 445.122H957.048L896.68 307.252H848.78V445.122H716.233V7.22172H949.83C999.262 7.22172 1037.76 21.6652 1065.32 50.5522C1093.31 79.0015 1107.31 114.672 1107.31 157.565C1107.31 191.704 1099.44 219.716 1083.69 241.6C1068.38 263.484 1050.01 279.678 1028.57 290.183L1107.97 445.122ZM929.489 191.704C941.738 191.704 952.018 188.859 960.329 183.17C968.641 177.042 972.796 168.288 972.796 156.909C972.796 145.967 968.641 137.651 960.329 131.961C952.018 125.833 941.738 122.77 929.489 122.77H848.78V191.704H929.489Z"
        stroke="#c5a05e"
        stroke-width="2"
        mask="url(#path-1-inside-1_140_904)"
    />
    <path
        d="M1380.92 445.122H1248.37V122.77H1130.91V7.22172H1497.71V122.77H1380.92V445.122Z"
        stroke="#c5a05e"
        stroke-width="2"
        mask="url(#path-1-inside-1_140_904)"
    />
    <path
        d="M1922.73 401.791C1886.43 435.93 1832.62 453 1761.32 453C1690.01 453 1635.99 435.93 1599.24 401.791C1562.93 367.214 1544.78 321.696 1544.78 265.235V7.22172H1679.29V260.639C1679.29 282.523 1686.29 300.687 1700.29 315.13C1714.73 329.136 1735.07 336.139 1761.32 336.139C1787.13 336.139 1807.03 329.136 1821.03 315.13C1835.46 300.687 1842.68 282.523 1842.68 260.639V7.22172H1977.2V264.578C1977.2 321.477 1959.04 367.214 1922.73 401.791Z"
        stroke="#c5a05e"
        stroke-width="2"
        mask="url(#path-1-inside-1_140_904)"
    />
    <path
        d="M2463.79 445.122H2313.53L2297.78 393.913H2140.3L2124.55 445.122H1974.28L2135.7 7.22172H2302.37L2463.79 445.122ZM2262.34 278.365L2219.04 137.213L2175.73 278.365H2262.34Z"
        stroke="#c5a05e"
        stroke-width="2"
        mask="url(#path-1-inside-1_140_904)"
    />
    <path
        d="M2785.94 445.122H2487.39V7.22172H2619.93V329.574H2785.94V445.122Z"
        stroke="#c5a05e"
        stroke-width="2"
        mask="url(#path-1-inside-1_140_904)"
    />
    <path
        d="M3431.63 445.122H3275.46L3195.41 311.191L3115.35 445.122H2959.18L3105.51 220.591L2969.03 7.22172H3124.54L3195.41 131.961L3264.96 7.22172H3421.79L3285.3 219.935L3431.63 445.122Z"
        stroke="#c5a05e"
        stroke-width="2"
        mask="url(#path-1-inside-1_140_904)"
    />
    <path
        d="M3587.53 445.122H3454.98V7.22172H3688.58C3738.01 7.22172 3776.51 21.6652 3804.07 50.5522C3832.07 79.0015 3846.06 114.672 3846.06 157.565C3846.06 200.02 3832.07 235.691 3804.07 264.578C3776.51 293.028 3738.01 307.252 3688.58 307.252H3587.53V445.122ZM3671.52 191.704C3683.33 191.704 3692.96 188.859 3700.39 183.17C3707.83 177.042 3711.55 168.507 3711.55 157.565C3711.55 146.186 3707.83 137.651 3700.39 131.961C3692.96 125.833 3683.33 122.77 3671.52 122.77H3587.53V191.704H3671.52Z"
        stroke="#c5a05e"
        stroke-width="2"
        mask="url(#path-1-inside-1_140_904)"
    />
    <path
        d="M4275.93 389.974C4230.43 431.991 4173.57 453 4105.32 453C4037.08 453 3979.99 431.991 3934.06 389.974C3888.57 347.519 3865.82 293.028 3865.82 226.5C3865.82 159.972 3888.57 105.7 3934.06 63.6826C3979.99 21.2275 4037.08 0 4105.32 0C4173.57 0 4230.43 21.2275 4275.93 63.6826C4321.86 105.7 4344.83 159.972 4344.83 226.5C4344.83 293.028 4321.86 347.519 4275.93 389.974ZM4029.21 304.626C4048.89 325.635 4074.26 336.139 4105.32 336.139C4136.38 336.139 4161.54 325.635 4180.78 304.626C4200.47 283.617 4210.31 257.575 4210.31 226.5C4210.31 195.425 4200.47 169.383 4180.78 148.374C4161.54 127.365 4136.38 116.861 4105.32 116.861C4074.26 116.861 4048.89 127.365 4029.21 148.374C4009.96 169.383 4000.34 195.425 4000.34 226.5C4000.34 257.575 4009.96 283.617 4029.21 304.626Z"
        stroke="#c5a05e"
        stroke-width="2"
        mask="url(#path-1-inside-1_140_904)"
    />
    <path
        d="M4561.77 453C4477.78 453 4409.98 429.803 4358.36 383.409L4427.26 284.93C4466.63 322.571 4513.65 341.391 4568.34 341.391C4600.71 341.391 4616.89 333.513 4616.89 317.757C4616.89 310.316 4608.36 304.626 4591.3 300.687C4574.68 296.748 4554.34 292.59 4530.28 288.213C4506.66 283.836 4482.81 277.49 4458.75 269.174C4435.13 260.858 4414.79 246.196 4397.73 225.187C4381.11 204.178 4372.8 177.699 4372.8 145.748C4372.8 105.919 4388.76 71.7797 4420.7 43.3304C4453.07 14.8811 4497.69 0.656513 4554.56 0.656513C4628.48 0.656513 4690.38 21.0087 4740.25 61.713L4669.39 155.596C4631.33 126.709 4588.46 112.265 4540.78 112.265C4518.47 112.265 4507.31 118.83 4507.31 131.961C4507.31 138.088 4513.22 143.341 4525.03 147.717C4537.28 152.094 4552.37 155.596 4570.3 158.222C4588.24 160.41 4607.71 164.787 4628.7 171.352C4650.14 177.48 4669.82 184.92 4687.76 193.674C4705.69 202.428 4720.57 216.214 4732.38 235.035C4744.63 253.417 4750.75 275.301 4750.75 300.687C4750.75 348.832 4733.91 386.254 4700.23 412.952C4666.98 439.651 4620.83 453 4561.77 453Z"
        stroke="#c5a05e"
        stroke-width="2"
        mask="url(#path-1-inside-1_140_904)"
    />
    <path
        d="M5172.2 401.791C5135.89 435.93 5082.08 453 5010.78 453C4939.48 453 4885.45 435.93 4848.71 401.791C4812.4 367.214 4794.24 321.696 4794.24 265.235V7.22172H4928.76V260.639C4928.76 282.523 4935.76 300.687 4949.76 315.13C4964.19 329.136 4984.53 336.139 5010.78 336.139C5036.59 336.139 5056.49 329.136 5070.49 315.13C5084.93 300.687 5092.15 282.523 5092.15 260.639V7.22172H5226.66V264.578C5226.66 321.477 5208.51 367.214 5172.2 401.791Z"
        stroke="#c5a05e"
        stroke-width="2"
        mask="url(#path-1-inside-1_140_904)"
    />
    <path
        d="M5689 445.122H5538.08L5477.71 307.252H5429.81V445.122H5297.27V7.22172H5530.86C5580.3 7.22172 5618.79 21.6652 5646.35 50.5522C5674.35 79.0015 5688.34 114.672 5688.34 157.565C5688.34 191.704 5680.47 219.716 5664.72 241.6C5649.41 263.484 5631.04 279.678 5609.6 290.183L5689 445.122ZM5510.52 191.704C5522.77 191.704 5533.05 188.859 5541.36 183.17C5549.67 177.042 5553.83 168.288 5553.83 156.909C5553.83 145.967 5549.67 137.651 5541.36 131.961C5533.05 125.833 5522.77 122.77 5510.52 122.77H5429.81V191.704H5510.52Z"
        stroke="#c5a05e"
        stroke-width="2"
        mask="url(#path-1-inside-1_140_904)"
    />
    <path
        d="M6074 445.122H5741.98V7.22172H6074V122.77H5874.52V166.1H6069.41V281.648H5874.52V329.574H6074V445.122Z"
        stroke="#c5a05e"
        stroke-width="2"
        mask="url(#path-1-inside-1_140_904)"
    />
</svg>