<svg
    width="1881"
    height="104"
    viewBox="0 0 1881 104"
    fill="none"
    xmlns="http://www.w3.org/2000/svg"
>
    <path
        d="M112.972 102.191H78.2928L74.6583 90.4348H38.3135L34.679 102.191H0L37.2534 1.65797H75.7184L112.972 102.191ZM66.4807 63.9072L56.4859 31.5014L46.4911 63.9072H66.4807Z"
        fill="white"
    />
    <path
        d="M207.142 104C191.392 104 178.167 99.2773 167.465 89.8319C156.865 80.286 151.564 67.6754 151.564 52C151.564 36.3246 156.865 23.7643 167.465 14.3188C178.167 4.77295 191.392 0 207.142 0C218.247 0 227.485 2.51208 234.855 7.53623C242.326 12.5604 247.878 18.7903 251.513 26.2261L225.768 39.3391C224.153 35.9227 221.68 33.0087 218.348 30.5971C215.117 28.085 211.382 26.829 207.142 26.829C199.873 26.829 193.967 29.2406 189.424 34.0638C184.881 38.887 182.609 44.8657 182.609 52C182.609 59.1343 184.881 65.113 189.424 69.9362C193.967 74.7594 199.873 77.171 207.142 77.171C209.969 77.171 212.896 76.7188 215.925 75.8145C218.954 74.9101 221.276 73.8551 222.891 72.6493V69.0319H204.113V42.5043H253.33V83.6522C241.013 97.2174 225.617 104 207.142 104Z"
        fill="white"
    />
    <path
        d="M335.8 102.191H266.897V1.65797H297.487V75.6638H335.8V102.191Z"
        fill="white"
    />
    <path
        d="M434.325 89.5304C423.826 99.1768 410.701 104 394.952 104C379.202 104 366.027 99.1768 355.427 89.5304C344.927 79.7836 339.677 67.2734 339.677 52C339.677 36.7266 344.927 24.2667 355.427 14.6203C366.027 4.87343 379.202 0 394.952 0C410.701 0 423.826 4.87343 434.325 14.6203C444.926 24.2667 450.226 36.7266 450.226 52C450.226 67.2734 444.926 79.7836 434.325 89.5304ZM377.385 69.9362C381.928 74.7594 387.784 77.171 394.952 77.171C402.12 77.171 407.925 74.7594 412.367 69.9362C416.91 65.113 419.182 59.1343 419.182 52C419.182 44.8657 416.91 38.887 412.367 34.0638C407.925 29.2406 402.12 26.829 394.952 26.829C387.784 26.829 381.928 29.2406 377.385 34.0638C372.943 38.887 370.722 44.8657 370.722 52C370.722 59.1343 372.943 65.113 377.385 69.9362Z"
        fill="white"
    />
    <path
        d="M524.525 102.191H461.073V1.65797H522.405C532.097 1.65797 539.517 4.27053 544.666 9.49566C549.815 14.7208 552.389 20.6493 552.389 27.2812C552.389 33.4106 550.774 38.5353 547.543 42.6551C544.312 46.6744 540.173 49.2367 535.125 50.342C540.678 51.1459 545.272 53.8589 548.906 58.4812C552.54 63.0029 554.358 68.4792 554.358 74.9101C554.358 82.4464 551.783 88.8773 546.634 94.2029C541.486 99.5285 534.116 102.191 524.525 102.191ZM515.287 38.7362C516.902 38.7362 518.316 38.1836 519.527 37.0783C520.739 35.8725 521.345 34.4155 521.345 32.7072C521.345 30.999 520.739 29.6425 519.527 28.6377C518.316 27.5324 516.902 26.9797 515.287 26.9797H491.663V38.7362H515.287ZM516.196 76.8696C518.417 76.8696 520.133 76.3169 521.345 75.2116C522.657 74.0058 523.313 72.4483 523.313 70.5391C523.313 68.7304 522.657 67.2232 521.345 66.0174C520.032 64.7111 518.316 64.058 516.196 64.058H491.663V76.8696H516.196Z"
        fill="white"
    />
    <path
        d="M668.733 102.191H634.054L630.419 90.4348H594.074L590.44 102.191H555.761L593.014 1.65797H631.479L668.733 102.191ZM622.242 63.9072L612.247 31.5014L602.252 63.9072H622.242Z"
        fill="white"
    />
    <path
        d="M743.082 102.191H674.178V1.65797H704.769V75.6638H743.082V102.191Z"
        fill="white"
    />
    <path
        d="M824.557 102.191H793.967V1.65797H847.879C859.287 1.65797 868.171 4.97391 874.532 11.6058C880.993 18.1372 884.224 26.3266 884.224 36.1739C884.224 45.9208 880.993 54.1101 874.532 60.742C868.171 67.2734 859.287 70.5391 847.879 70.5391H824.557V102.191ZM843.941 44.0116C846.667 44.0116 848.888 43.3585 850.605 42.0522C852.321 40.6454 853.179 38.686 853.179 36.1739C853.179 33.5614 852.321 31.6019 850.605 30.2957C848.888 28.8889 846.667 28.1855 843.941 28.1855H824.557V44.0116H843.941Z"
        fill="white"
    />
    <path
        d="M991.609 102.191H961.019V63.7565H924.825V102.191H894.235V1.65797H924.825V37.229H961.019V1.65797H991.609V102.191Z"
        fill="white"
    />
    <path
        d="M1084.59 102.191H1007.96V1.65797H1084.59V28.1855H1038.55V38.1333H1083.53V64.6609H1038.55V75.6638H1084.59V102.191Z"
        fill="white"
    />
    <path
        d="M1195.39 102.191H1166.02L1128.76 51.2464V102.191H1098.17V1.65797H1129.67L1164.8 49.287V1.65797H1195.39V102.191Z"
        fill="white"
    />
    <path
        d="M1300.95 89.5304C1290.45 99.1768 1277.32 104 1261.57 104C1245.82 104 1232.65 99.1768 1222.05 89.5304C1211.55 79.7836 1206.3 67.2734 1206.3 52C1206.3 36.7266 1211.55 24.2667 1222.05 14.6203C1232.65 4.87343 1245.82 0 1261.57 0C1277.32 0 1290.45 4.87343 1300.95 14.6203C1311.55 24.2667 1316.85 36.7266 1316.85 52C1316.85 67.2734 1311.55 79.7836 1300.95 89.5304ZM1244.01 69.9362C1248.55 74.7594 1254.4 77.171 1261.57 77.171C1268.74 77.171 1274.54 74.7594 1278.99 69.9362C1283.53 65.113 1285.8 59.1343 1285.8 52C1285.8 44.8657 1283.53 38.887 1278.99 34.0638C1274.54 29.2406 1268.74 26.829 1261.57 26.829C1254.4 26.829 1248.55 29.2406 1244.01 34.0638C1239.56 38.887 1237.34 44.8657 1237.34 52C1237.34 59.1343 1239.56 65.113 1244.01 69.9362Z"
        fill="white"
    />
    <path
        d="M1447.63 102.191H1417.04V41.7507L1394.48 102.191H1380.85L1358.28 41.7507V102.191H1327.69V1.65797H1369.94L1387.66 49.8899L1405.38 1.65797H1447.63V102.191Z"
        fill="white"
    />
    <path
        d="M1540.67 102.191H1464.05V1.65797H1540.67V28.1855H1494.64V38.1333H1539.61V64.6609H1494.64V75.6638H1540.67V102.191Z"
        fill="white"
    />
    <path
        d="M1651.48 102.191H1622.1L1584.85 51.2464V102.191H1554.26V1.65797H1585.76L1620.89 49.287V1.65797H1651.48V102.191Z"
        fill="white"
    />
    <path
        d="M1757.03 89.5304C1746.53 99.1768 1733.41 104 1717.66 104C1701.91 104 1688.73 99.1768 1678.13 89.5304C1667.63 79.7836 1662.38 67.2734 1662.38 52C1662.38 36.7266 1667.63 24.2667 1678.13 14.6203C1688.73 4.87343 1701.91 0 1717.66 0C1733.41 0 1746.53 4.87343 1757.03 14.6203C1767.63 24.2667 1772.93 36.7266 1772.93 52C1772.93 67.2734 1767.63 79.7836 1757.03 89.5304ZM1700.09 69.9362C1704.63 74.7594 1710.49 77.171 1717.66 77.171C1724.82 77.171 1730.63 74.7594 1735.07 69.9362C1739.61 65.113 1741.89 59.1343 1741.89 52C1741.89 44.8657 1739.61 38.887 1735.07 34.0638C1730.63 29.2406 1724.82 26.829 1717.66 26.829C1710.49 26.829 1704.63 29.2406 1700.09 34.0638C1695.65 38.887 1693.43 44.8657 1693.43 52C1693.43 59.1343 1695.65 65.113 1700.09 69.9362Z"
        fill="white"
    />
    <path
        d="M1881 102.191H1851.62L1814.37 51.2464V102.191H1783.78V1.65797H1815.28L1850.41 49.287V1.65797H1881V102.191Z"
        fill="white"
    />
</svg>