<svg xmlns="http://www.w3.org/2000/svg" xmlns:xlink="http://www.w3.org/1999/xlink" width="945" viewBox="0 0 708.75 161.999997" height="216" preserveAspectRatio="xMidYMid meet"><defs><g></g><clipPath id="ca6e52a360"><path d="M 32 81 L 160 81 L 160 103.492188 L 32 103.492188 Z M 32 81 " clip-rule="nonzero"></path></clipPath><clipPath id="6e08306f84"><path d="M 161 81 L 289 81 L 289 103.492188 L 161 103.492188 Z M 161 81 " clip-rule="nonzero"></path></clipPath><clipPath id="cf873abe08"><path d="M 291 81 L 418 81 L 418 103.492188 L 291 103.492188 Z M 291 81 " clip-rule="nonzero"></path></clipPath><clipPath id="f559ef3200"><path d="M 420 81 L 547 81 L 547 103.492188 L 420 103.492188 Z M 420 81 " clip-rule="nonzero"></path></clipPath><clipPath id="9143bc08e0"><path d="M 549 81 L 676 81 L 676 103.492188 L 549 103.492188 Z M 549 81 " clip-rule="nonzero"></path></clipPath></defs><g clip-path="url(#ca6e52a360)"><path fill="#ff7876" d="M 159.59375 92.246094 C 159.59375 86.039062 154.476562 81 148.164062 81 L 44.316406 81 C 38.007812 81 32.886719 86.039062 32.886719 92.246094 C 32.886719 98.449219 38.007812 103.488281 44.316406 103.488281 L 148.164062 103.488281 C 154.476562 103.488281 159.59375 98.449219 159.59375 92.246094 Z M 159.59375 92.246094 " fill-opacity="1" fill-rule="evenodd"></path></g><g clip-path="url(#6e08306f84)"><path fill="#ffbb66" d="M 288.675781 92.246094 C 288.675781 86.039062 283.558594 81 277.246094 81 L 173.394531 81 C 167.085938 81 161.964844 86.039062 161.964844 92.246094 C 161.964844 98.449219 167.085938 103.488281 173.394531 103.488281 L 277.246094 103.488281 C 283.558594 103.488281 288.675781 98.449219 288.675781 92.246094 Z M 288.675781 92.246094 " fill-opacity="1" fill-rule="evenodd"></path></g><g clip-path="url(#cf873abe08)"><path fill="#ffe96d" d="M 417.757812 92.246094 C 417.757812 86.039062 412.640625 81 406.328125 81 L 302.476562 81 C 296.171875 81 291.050781 86.039062 291.050781 92.246094 C 291.050781 98.449219 296.171875 103.488281 302.476562 103.488281 L 406.328125 103.488281 C 412.640625 103.488281 417.757812 98.449219 417.757812 92.246094 Z M 417.757812 92.246094 " fill-opacity="1" fill-rule="evenodd"></path></g><g clip-path="url(#f559ef3200)"><path fill="#00ff6a" d="M 546.835938 92.246094 C 546.835938 86.039062 541.71875 81 535.40625 81 L 431.554688 81 C 425.25 81 420.128906 86.039062 420.128906 92.246094 C 420.128906 98.449219 425.25 103.488281 431.554688 103.488281 L 535.40625 103.488281 C 541.71875 103.488281 546.835938 98.449219 546.835938 92.246094 Z M 546.835938 92.246094 " fill-opacity="1" fill-rule="evenodd"></path></g><g clip-path="url(#9143bc08e0)"><path fill="#00d24b" d="M 675.917969 92.246094 C 675.917969 86.039062 670.800781 81 664.488281 81 L 560.636719 81 C 554.332031 81 549.210938 86.039062 549.210938 92.246094 C 549.210938 98.449219 554.332031 103.488281 560.636719 103.488281 L 664.488281 103.488281 C 670.800781 103.488281 675.917969 98.449219 675.917969 92.246094 Z M 675.917969 92.246094 " fill-opacity="1" fill-rule="evenodd"></path></g><path fill="#000000" d="M 622.550781 66.027344 L 624.109375 66.027344 L 624.109375 64.46875 L 622.550781 64.46875 Z M 624.109375 62.316406 L 622.550781 62.316406 L 622.550781 63.875 L 624.109375 63.875 Z M 626.335938 63.875 L 626.335938 62.316406 L 624.78125 62.316406 L 624.78125 63.875 Z M 619.679688 49.714844 L 610.855469 37.140625 L 617.1875 37.140625 L 621.988281 44.3125 C 622.242188 44.703125 622.484375 45.070312 622.710938 45.417969 Z M 613.183594 63.050781 L 606.230469 53.1875 L 602.292969 47.605469 C 601.480469 46.464844 600.75 45.421875 600.09375 44.484375 L 600.058594 44.4375 L 600.027344 44.394531 L 599.996094 44.347656 L 599.347656 43.429688 L 594.910156 37.140625 L 588.617188 37.140625 L 597.546875 49.796875 L 601.902344 55.929688 L 601.921875 55.898438 L 604.566406 59.679688 L 604.574219 59.695312 L 610.039062 67.511719 L 616.328125 67.511719 L 624.445312 55.898438 L 625.878906 58.148438 L 626.824219 59.5625 L 626.824219 58.511719 L 629.203125 58.511719 L 629.203125 63.109375 L 632.160156 67.511719 L 638.421875 67.511719 L 627.417969 51.78125 L 637.75 37.140625 L 631.457031 37.140625 L 626.40625 44.300781 L 626.144531 44.671875 L 626.148438 44.675781 L 625.664062 45.359375 L 625.628906 45.410156 L 625.59375 45.457031 L 625.523438 45.558594 C 625.152344 46.082031 624.765625 46.632812 624.355469 47.210938 L 624.316406 47.269531 L 620.441406 52.753906 Z M 624.78125 66.027344 L 626.339844 66.027344 L 626.339844 64.46875 L 624.78125 64.46875 Z M 624.78125 66.027344 " fill-opacity="1" fill-rule="evenodd"></path><g fill="#000000" fill-opacity="1"><g transform="translate(74.708677, 126.160298)"><g><path d="M 4.78125 -5.4375 C 5.21875 -5.4375 5.601562 -5.492188 5.9375 -5.609375 C 6.269531 -5.734375 6.550781 -5.898438 6.78125 -6.109375 C 7.007812 -6.316406 7.179688 -6.5625 7.296875 -6.84375 C 7.410156 -7.132812 7.46875 -7.453125 7.46875 -7.796875 C 7.46875 -8.523438 7.242188 -9.085938 6.796875 -9.484375 C 6.359375 -9.890625 5.6875 -10.09375 4.78125 -10.09375 L 2.96875 -10.09375 L 2.96875 -5.4375 Z M 4.78125 -11.3125 C 5.5 -11.3125 6.117188 -11.226562 6.640625 -11.0625 C 7.171875 -10.894531 7.609375 -10.65625 7.953125 -10.34375 C 8.304688 -10.039062 8.566406 -9.671875 8.734375 -9.234375 C 8.910156 -8.804688 9 -8.328125 9 -7.796875 C 9 -7.273438 8.90625 -6.796875 8.71875 -6.359375 C 8.53125 -5.921875 8.257812 -5.546875 7.90625 -5.234375 C 7.550781 -4.921875 7.113281 -4.675781 6.59375 -4.5 C 6.070312 -4.320312 5.46875 -4.234375 4.78125 -4.234375 L 2.96875 -4.234375 L 2.96875 0 L 1.4375 0 L 1.4375 -11.3125 Z M 4.78125 -11.3125 "></path></g></g></g><g fill="#000000" fill-opacity="1"><g transform="translate(84.184213, 126.160298)"><g><path d="M 4.484375 -8.125 C 5.066406 -8.125 5.59375 -8.023438 6.0625 -7.828125 C 6.53125 -7.628906 6.925781 -7.351562 7.25 -7 C 7.582031 -6.644531 7.835938 -6.210938 8.015625 -5.703125 C 8.191406 -5.191406 8.28125 -4.625 8.28125 -4 C 8.28125 -3.363281 8.191406 -2.789062 8.015625 -2.28125 C 7.835938 -1.78125 7.582031 -1.351562 7.25 -1 C 6.925781 -0.644531 6.53125 -0.367188 6.0625 -0.171875 C 5.59375 0.015625 5.066406 0.109375 4.484375 0.109375 C 3.890625 0.109375 3.359375 0.015625 2.890625 -0.171875 C 2.421875 -0.367188 2.019531 -0.644531 1.6875 -1 C 1.351562 -1.351562 1.097656 -1.78125 0.921875 -2.28125 C 0.742188 -2.789062 0.65625 -3.363281 0.65625 -4 C 0.65625 -4.625 0.742188 -5.191406 0.921875 -5.703125 C 1.097656 -6.210938 1.351562 -6.644531 1.6875 -7 C 2.019531 -7.351562 2.421875 -7.628906 2.890625 -7.828125 C 3.359375 -8.023438 3.890625 -8.125 4.484375 -8.125 Z M 4.484375 -0.984375 C 5.273438 -0.984375 5.863281 -1.25 6.25 -1.78125 C 6.632812 -2.3125 6.828125 -3.050781 6.828125 -4 C 6.828125 -4.945312 6.632812 -5.6875 6.25 -6.21875 C 5.863281 -6.75 5.273438 -7.015625 4.484375 -7.015625 C 4.078125 -7.015625 3.722656 -6.945312 3.421875 -6.8125 C 3.128906 -6.675781 2.882812 -6.476562 2.6875 -6.21875 C 2.5 -5.957031 2.351562 -5.640625 2.25 -5.265625 C 2.15625 -4.890625 2.109375 -4.46875 2.109375 -4 C 2.109375 -3.050781 2.300781 -2.3125 2.6875 -1.78125 C 3.082031 -1.25 3.679688 -0.984375 4.484375 -0.984375 Z M 4.484375 -0.984375 "></path></g></g></g><g fill="#000000" fill-opacity="1"><g transform="translate(93.131137, 126.160298)"><g><path d="M 4.484375 -8.125 C 5.066406 -8.125 5.59375 -8.023438 6.0625 -7.828125 C 6.53125 -7.628906 6.925781 -7.351562 7.25 -7 C 7.582031 -6.644531 7.835938 -6.210938 8.015625 -5.703125 C 8.191406 -5.191406 8.28125 -4.625 8.28125 -4 C 8.28125 -3.363281 8.191406 -2.789062 8.015625 -2.28125 C 7.835938 -1.78125 7.582031 -1.351562 7.25 -1 C 6.925781 -0.644531 6.53125 -0.367188 6.0625 -0.171875 C 5.59375 0.015625 5.066406 0.109375 4.484375 0.109375 C 3.890625 0.109375 3.359375 0.015625 2.890625 -0.171875 C 2.421875 -0.367188 2.019531 -0.644531 1.6875 -1 C 1.351562 -1.351562 1.097656 -1.78125 0.921875 -2.28125 C 0.742188 -2.789062 0.65625 -3.363281 0.65625 -4 C 0.65625 -4.625 0.742188 -5.191406 0.921875 -5.703125 C 1.097656 -6.210938 1.351562 -6.644531 1.6875 -7 C 2.019531 -7.351562 2.421875 -7.628906 2.890625 -7.828125 C 3.359375 -8.023438 3.890625 -8.125 4.484375 -8.125 Z M 4.484375 -0.984375 C 5.273438 -0.984375 5.863281 -1.25 6.25 -1.78125 C 6.632812 -2.3125 6.828125 -3.050781 6.828125 -4 C 6.828125 -4.945312 6.632812 -5.6875 6.25 -6.21875 C 5.863281 -6.75 5.273438 -7.015625 4.484375 -7.015625 C 4.078125 -7.015625 3.722656 -6.945312 3.421875 -6.8125 C 3.128906 -6.675781 2.882812 -6.476562 2.6875 -6.21875 C 2.5 -5.957031 2.351562 -5.640625 2.25 -5.265625 C 2.15625 -4.890625 2.109375 -4.46875 2.109375 -4 C 2.109375 -3.050781 2.300781 -2.3125 2.6875 -1.78125 C 3.082031 -1.25 3.679688 -0.984375 4.484375 -0.984375 Z M 4.484375 -0.984375 "></path></g></g></g><g fill="#000000" fill-opacity="1"><g transform="translate(102.078062, 126.160298)"><g><path d="M 2.453125 -6.390625 C 2.703125 -6.941406 3.007812 -7.367188 3.375 -7.671875 C 3.738281 -7.984375 4.1875 -8.140625 4.71875 -8.140625 C 4.894531 -8.140625 5.054688 -8.117188 5.203125 -8.078125 C 5.359375 -8.046875 5.5 -7.988281 5.625 -7.90625 L 5.53125 -6.859375 C 5.488281 -6.722656 5.40625 -6.65625 5.28125 -6.65625 C 5.207031 -6.65625 5.097656 -6.671875 4.953125 -6.703125 C 4.816406 -6.734375 4.660156 -6.75 4.484375 -6.75 C 4.234375 -6.75 4.007812 -6.710938 3.8125 -6.640625 C 3.613281 -6.566406 3.4375 -6.457031 3.28125 -6.3125 C 3.125 -6.164062 2.984375 -5.984375 2.859375 -5.765625 C 2.734375 -5.554688 2.625 -5.316406 2.53125 -5.046875 L 2.53125 0 L 1.109375 0 L 1.109375 -8 L 1.921875 -8 C 2.066406 -8 2.164062 -7.96875 2.21875 -7.90625 C 2.28125 -7.84375 2.320312 -7.742188 2.34375 -7.609375 Z M 2.453125 -6.390625 "></path></g></g></g><g fill="#000000" fill-opacity="1"><g transform="translate(107.825901, 126.160298)"><g></g></g></g><g fill="#000000" fill-opacity="1"><g transform="translate(585.041922, 126.160298)"><g><path d="M 8.421875 -1.25 L 8.40625 0 L 1.4375 0 L 1.4375 -11.3125 L 8.40625 -11.3125 L 8.40625 -10.0625 L 2.96875 -10.0625 L 2.96875 -6.296875 L 7.375 -6.296875 L 7.375 -5.109375 L 2.96875 -5.109375 L 2.96875 -1.25 Z M 8.421875 -1.25 "></path></g></g></g><g fill="#000000" fill-opacity="1"><g transform="translate(594.154533, 126.160298)"><g><path d="M 7.671875 0 L 6.328125 0 C 6.210938 0 6.117188 -0.03125 6.046875 -0.09375 C 5.984375 -0.15625 5.929688 -0.222656 5.890625 -0.296875 L 3.875 -3.421875 C 3.851562 -3.347656 3.832031 -3.273438 3.8125 -3.203125 C 3.789062 -3.128906 3.757812 -3.066406 3.71875 -3.015625 L 1.859375 -0.296875 C 1.804688 -0.222656 1.75 -0.15625 1.6875 -0.09375 C 1.625 -0.03125 1.539062 0 1.4375 0 L 0.1875 0 L 2.984375 -4.109375 L 0.296875 -8 L 1.640625 -8 C 1.753906 -8 1.835938 -7.976562 1.890625 -7.9375 C 1.941406 -7.894531 1.988281 -7.84375 2.03125 -7.78125 L 4 -4.78125 C 4.039062 -4.9375 4.109375 -5.082031 4.203125 -5.21875 L 5.921875 -7.75 C 5.960938 -7.820312 6.007812 -7.878906 6.0625 -7.921875 C 6.125 -7.972656 6.191406 -8 6.265625 -8 L 7.5625 -8 L 4.875 -4.171875 Z M 7.671875 0 "></path></g></g></g><g fill="#000000" fill-opacity="1"><g transform="translate(602.012685, 126.160298)"><g><path d="M 6.671875 -6.578125 C 6.628906 -6.515625 6.585938 -6.46875 6.546875 -6.4375 C 6.503906 -6.40625 6.445312 -6.390625 6.375 -6.390625 C 6.289062 -6.390625 6.203125 -6.421875 6.109375 -6.484375 C 6.015625 -6.554688 5.898438 -6.628906 5.765625 -6.703125 C 5.628906 -6.785156 5.457031 -6.859375 5.25 -6.921875 C 5.050781 -6.984375 4.800781 -7.015625 4.5 -7.015625 C 4.101562 -7.015625 3.753906 -6.945312 3.453125 -6.8125 C 3.160156 -6.675781 2.910156 -6.472656 2.703125 -6.203125 C 2.503906 -5.941406 2.351562 -5.625 2.25 -5.25 C 2.144531 -4.875 2.09375 -4.457031 2.09375 -4 C 2.09375 -3.519531 2.148438 -3.085938 2.265625 -2.703125 C 2.378906 -2.328125 2.535156 -2.007812 2.734375 -1.75 C 2.929688 -1.5 3.171875 -1.304688 3.453125 -1.171875 C 3.742188 -1.046875 4.070312 -0.984375 4.4375 -0.984375 C 4.78125 -0.984375 5.0625 -1.019531 5.28125 -1.09375 C 5.5 -1.175781 5.679688 -1.265625 5.828125 -1.359375 C 5.972656 -1.460938 6.09375 -1.554688 6.1875 -1.640625 C 6.289062 -1.722656 6.390625 -1.765625 6.484375 -1.765625 C 6.597656 -1.765625 6.6875 -1.722656 6.75 -1.640625 L 7.140625 -1.125 C 6.960938 -0.90625 6.765625 -0.71875 6.546875 -0.5625 C 6.328125 -0.414062 6.085938 -0.289062 5.828125 -0.1875 C 5.578125 -0.0820312 5.3125 -0.0078125 5.03125 0.03125 C 4.75 0.0820312 4.46875 0.109375 4.1875 0.109375 C 3.6875 0.109375 3.21875 0.0195312 2.78125 -0.15625 C 2.351562 -0.34375 1.984375 -0.609375 1.671875 -0.953125 C 1.359375 -1.304688 1.109375 -1.738281 0.921875 -2.25 C 0.742188 -2.757812 0.65625 -3.34375 0.65625 -4 C 0.65625 -4.59375 0.738281 -5.140625 0.90625 -5.640625 C 1.070312 -6.148438 1.3125 -6.585938 1.625 -6.953125 C 1.945312 -7.316406 2.34375 -7.601562 2.8125 -7.8125 C 3.28125 -8.019531 3.816406 -8.125 4.421875 -8.125 C 4.984375 -8.125 5.476562 -8.03125 5.90625 -7.84375 C 6.332031 -7.664062 6.710938 -7.410156 7.046875 -7.078125 Z M 6.671875 -6.578125 "></path></g></g></g><g fill="#000000" fill-opacity="1"><g transform="translate(609.547358, 126.160298)"><g><path d="M 6.46875 -4.875 C 6.46875 -5.195312 6.421875 -5.492188 6.328125 -5.765625 C 6.234375 -6.035156 6.097656 -6.269531 5.921875 -6.46875 C 5.742188 -6.664062 5.53125 -6.816406 5.28125 -6.921875 C 5.03125 -7.023438 4.742188 -7.078125 4.421875 -7.078125 C 3.742188 -7.078125 3.207031 -6.878906 2.8125 -6.484375 C 2.425781 -6.097656 2.1875 -5.5625 2.09375 -4.875 Z M 7.59375 -1.125 C 7.425781 -0.914062 7.21875 -0.734375 6.96875 -0.578125 C 6.726562 -0.421875 6.46875 -0.289062 6.1875 -0.1875 C 5.914062 -0.09375 5.632812 -0.0195312 5.34375 0.03125 C 5.050781 0.0820312 4.757812 0.109375 4.46875 0.109375 C 3.914062 0.109375 3.40625 0.015625 2.9375 -0.171875 C 2.46875 -0.359375 2.0625 -0.628906 1.71875 -0.984375 C 1.382812 -1.347656 1.125 -1.796875 0.9375 -2.328125 C 0.75 -2.859375 0.65625 -3.46875 0.65625 -4.15625 C 0.65625 -4.71875 0.738281 -5.238281 0.90625 -5.71875 C 1.082031 -6.207031 1.328125 -6.628906 1.640625 -6.984375 C 1.960938 -7.335938 2.351562 -7.613281 2.8125 -7.8125 C 3.28125 -8.019531 3.804688 -8.125 4.390625 -8.125 C 4.867188 -8.125 5.3125 -8.039062 5.71875 -7.875 C 6.125 -7.71875 6.472656 -7.488281 6.765625 -7.1875 C 7.066406 -6.882812 7.300781 -6.507812 7.46875 -6.0625 C 7.632812 -5.613281 7.71875 -5.109375 7.71875 -4.546875 C 7.71875 -4.328125 7.691406 -4.179688 7.640625 -4.109375 C 7.597656 -4.035156 7.515625 -4 7.390625 -4 L 2.046875 -4 C 2.054688 -3.488281 2.125 -3.046875 2.25 -2.671875 C 2.375 -2.296875 2.546875 -1.984375 2.765625 -1.734375 C 2.984375 -1.484375 3.242188 -1.296875 3.546875 -1.171875 C 3.859375 -1.054688 4.203125 -1 4.578125 -1 C 4.929688 -1 5.234375 -1.035156 5.484375 -1.109375 C 5.742188 -1.191406 5.96875 -1.28125 6.15625 -1.375 C 6.34375 -1.46875 6.492188 -1.554688 6.609375 -1.640625 C 6.734375 -1.722656 6.84375 -1.765625 6.9375 -1.765625 C 7.050781 -1.765625 7.140625 -1.722656 7.203125 -1.640625 Z M 7.59375 -1.125 "></path></g></g></g><g fill="#000000" fill-opacity="1"><g transform="translate(617.878887, 126.160298)"><g><path d="M 2.5625 -11.625 L 2.5625 0 L 1.15625 0 L 1.15625 -11.625 Z M 2.5625 -11.625 "></path></g></g></g><g fill="#000000" fill-opacity="1"><g transform="translate(621.602831, 126.160298)"><g><path d="M 2.5625 -11.625 L 2.5625 0 L 1.15625 0 L 1.15625 -11.625 Z M 2.5625 -11.625 "></path></g></g></g><g fill="#000000" fill-opacity="1"><g transform="translate(625.326776, 126.160298)"><g><path d="M 6.46875 -4.875 C 6.46875 -5.195312 6.421875 -5.492188 6.328125 -5.765625 C 6.234375 -6.035156 6.097656 -6.269531 5.921875 -6.46875 C 5.742188 -6.664062 5.53125 -6.816406 5.28125 -6.921875 C 5.03125 -7.023438 4.742188 -7.078125 4.421875 -7.078125 C 3.742188 -7.078125 3.207031 -6.878906 2.8125 -6.484375 C 2.425781 -6.097656 2.1875 -5.5625 2.09375 -4.875 Z M 7.59375 -1.125 C 7.425781 -0.914062 7.21875 -0.734375 6.96875 -0.578125 C 6.726562 -0.421875 6.46875 -0.289062 6.1875 -0.1875 C 5.914062 -0.09375 5.632812 -0.0195312 5.34375 0.03125 C 5.050781 0.0820312 4.757812 0.109375 4.46875 0.109375 C 3.914062 0.109375 3.40625 0.015625 2.9375 -0.171875 C 2.46875 -0.359375 2.0625 -0.628906 1.71875 -0.984375 C 1.382812 -1.347656 1.125 -1.796875 0.9375 -2.328125 C 0.75 -2.859375 0.65625 -3.46875 0.65625 -4.15625 C 0.65625 -4.71875 0.738281 -5.238281 0.90625 -5.71875 C 1.082031 -6.207031 1.328125 -6.628906 1.640625 -6.984375 C 1.960938 -7.335938 2.351562 -7.613281 2.8125 -7.8125 C 3.28125 -8.019531 3.804688 -8.125 4.390625 -8.125 C 4.867188 -8.125 5.3125 -8.039062 5.71875 -7.875 C 6.125 -7.71875 6.472656 -7.488281 6.765625 -7.1875 C 7.066406 -6.882812 7.300781 -6.507812 7.46875 -6.0625 C 7.632812 -5.613281 7.71875 -5.109375 7.71875 -4.546875 C 7.71875 -4.328125 7.691406 -4.179688 7.640625 -4.109375 C 7.597656 -4.035156 7.515625 -4 7.390625 -4 L 2.046875 -4 C 2.054688 -3.488281 2.125 -3.046875 2.25 -2.671875 C 2.375 -2.296875 2.546875 -1.984375 2.765625 -1.734375 C 2.984375 -1.484375 3.242188 -1.296875 3.546875 -1.171875 C 3.859375 -1.054688 4.203125 -1 4.578125 -1 C 4.929688 -1 5.234375 -1.035156 5.484375 -1.109375 C 5.742188 -1.191406 5.96875 -1.28125 6.15625 -1.375 C 6.34375 -1.46875 6.492188 -1.554688 6.609375 -1.640625 C 6.734375 -1.722656 6.84375 -1.765625 6.9375 -1.765625 C 7.050781 -1.765625 7.140625 -1.722656 7.203125 -1.640625 Z M 7.59375 -1.125 "></path></g></g></g><g fill="#000000" fill-opacity="1"><g transform="translate(633.658305, 126.160298)"><g><path d="M 2.4375 -6.828125 C 2.613281 -7.023438 2.796875 -7.203125 2.984375 -7.359375 C 3.179688 -7.515625 3.390625 -7.648438 3.609375 -7.765625 C 3.828125 -7.878906 4.054688 -7.96875 4.296875 -8.03125 C 4.546875 -8.09375 4.8125 -8.125 5.09375 -8.125 C 5.53125 -8.125 5.914062 -8.050781 6.25 -7.90625 C 6.582031 -7.757812 6.859375 -7.550781 7.078125 -7.28125 C 7.304688 -7.019531 7.476562 -6.703125 7.59375 -6.328125 C 7.707031 -5.953125 7.765625 -5.539062 7.765625 -5.09375 L 7.765625 0 L 6.359375 0 L 6.359375 -5.09375 C 6.359375 -5.695312 6.21875 -6.164062 5.9375 -6.5 C 5.664062 -6.832031 5.25 -7 4.6875 -7 C 4.269531 -7 3.878906 -6.898438 3.515625 -6.703125 C 3.160156 -6.503906 2.832031 -6.234375 2.53125 -5.890625 L 2.53125 0 L 1.109375 0 L 1.109375 -8 L 1.953125 -8 C 2.148438 -8 2.273438 -7.898438 2.328125 -7.703125 Z M 2.4375 -6.828125 "></path></g></g></g><g fill="#000000" fill-opacity="1"><g transform="translate(642.463213, 126.160298)"><g><path d="M 3.5625 0.125 C 2.9375 0.125 2.453125 -0.0507812 2.109375 -0.40625 C 1.773438 -0.757812 1.609375 -1.265625 1.609375 -1.921875 L 1.609375 -6.8125 L 0.640625 -6.8125 C 0.554688 -6.8125 0.484375 -6.835938 0.421875 -6.890625 C 0.367188 -6.941406 0.34375 -7.019531 0.34375 -7.125 L 0.34375 -7.6875 L 1.65625 -7.84375 L 1.96875 -10.328125 C 1.988281 -10.398438 2.023438 -10.460938 2.078125 -10.515625 C 2.128906 -10.566406 2.203125 -10.59375 2.296875 -10.59375 L 3 -10.59375 L 3 -7.828125 L 5.3125 -7.828125 L 5.3125 -6.8125 L 3 -6.8125 L 3 -2.015625 C 3 -1.679688 3.082031 -1.429688 3.25 -1.265625 C 3.414062 -1.109375 3.625 -1.03125 3.875 -1.03125 C 4.03125 -1.03125 4.160156 -1.046875 4.265625 -1.078125 C 4.367188 -1.117188 4.457031 -1.160156 4.53125 -1.203125 C 4.613281 -1.253906 4.679688 -1.300781 4.734375 -1.34375 C 4.796875 -1.382812 4.847656 -1.40625 4.890625 -1.40625 C 4.960938 -1.40625 5.03125 -1.359375 5.09375 -1.265625 L 5.5 -0.59375 C 5.257812 -0.375 4.96875 -0.195312 4.625 -0.0625 C 4.28125 0.0625 3.925781 0.125 3.5625 0.125 Z M 3.5625 0.125 "></path></g></g></g><g fill="#000000" fill-opacity="1"><g transform="translate(199.552811, 126.160298)"><g><path d="M 5.40625 -1.21875 C 5.84375 -1.21875 6.21875 -1.265625 6.53125 -1.359375 C 6.851562 -1.460938 7.113281 -1.601562 7.3125 -1.78125 C 7.519531 -1.96875 7.671875 -2.1875 7.765625 -2.4375 C 7.859375 -2.6875 7.90625 -2.960938 7.90625 -3.265625 C 7.90625 -3.847656 7.695312 -4.304688 7.28125 -4.640625 C 6.863281 -4.984375 6.238281 -5.15625 5.40625 -5.15625 L 2.96875 -5.15625 L 2.96875 -1.21875 Z M 2.96875 -10.09375 L 2.96875 -6.234375 L 4.984375 -6.234375 C 5.421875 -6.234375 5.796875 -6.28125 6.109375 -6.375 C 6.429688 -6.476562 6.695312 -6.613281 6.90625 -6.78125 C 7.113281 -6.945312 7.265625 -7.148438 7.359375 -7.390625 C 7.460938 -7.628906 7.515625 -7.890625 7.515625 -8.171875 C 7.515625 -8.835938 7.3125 -9.320312 6.90625 -9.625 C 6.507812 -9.9375 5.890625 -10.09375 5.046875 -10.09375 Z M 5.046875 -11.3125 C 5.742188 -11.3125 6.34375 -11.238281 6.84375 -11.09375 C 7.34375 -10.957031 7.753906 -10.765625 8.078125 -10.515625 C 8.398438 -10.265625 8.640625 -9.957031 8.796875 -9.59375 C 8.953125 -9.226562 9.03125 -8.816406 9.03125 -8.359375 C 9.03125 -8.078125 8.984375 -7.804688 8.890625 -7.546875 C 8.804688 -7.296875 8.675781 -7.0625 8.5 -6.84375 C 8.332031 -6.625 8.113281 -6.425781 7.84375 -6.25 C 7.582031 -6.070312 7.269531 -5.925781 6.90625 -5.8125 C 7.738281 -5.65625 8.363281 -5.359375 8.78125 -4.921875 C 9.195312 -4.492188 9.40625 -3.925781 9.40625 -3.21875 C 9.40625 -2.738281 9.316406 -2.300781 9.140625 -1.90625 C 8.972656 -1.507812 8.71875 -1.171875 8.375 -0.890625 C 8.03125 -0.609375 7.613281 -0.390625 7.125 -0.234375 C 6.632812 -0.078125 6.070312 0 5.4375 0 L 1.4375 0 L 1.4375 -11.3125 Z M 5.046875 -11.3125 "></path></g></g></g><g fill="#000000" fill-opacity="1"><g transform="translate(209.754207, 126.160298)"><g><path d="M 6.46875 -4.875 C 6.46875 -5.195312 6.421875 -5.492188 6.328125 -5.765625 C 6.234375 -6.035156 6.097656 -6.269531 5.921875 -6.46875 C 5.742188 -6.664062 5.53125 -6.816406 5.28125 -6.921875 C 5.03125 -7.023438 4.742188 -7.078125 4.421875 -7.078125 C 3.742188 -7.078125 3.207031 -6.878906 2.8125 -6.484375 C 2.425781 -6.097656 2.1875 -5.5625 2.09375 -4.875 Z M 7.59375 -1.125 C 7.425781 -0.914062 7.21875 -0.734375 6.96875 -0.578125 C 6.726562 -0.421875 6.46875 -0.289062 6.1875 -0.1875 C 5.914062 -0.09375 5.632812 -0.0195312 5.34375 0.03125 C 5.050781 0.0820312 4.757812 0.109375 4.46875 0.109375 C 3.914062 0.109375 3.40625 0.015625 2.9375 -0.171875 C 2.46875 -0.359375 2.0625 -0.628906 1.71875 -0.984375 C 1.382812 -1.347656 1.125 -1.796875 0.9375 -2.328125 C 0.75 -2.859375 0.65625 -3.46875 0.65625 -4.15625 C 0.65625 -4.71875 0.738281 -5.238281 0.90625 -5.71875 C 1.082031 -6.207031 1.328125 -6.628906 1.640625 -6.984375 C 1.960938 -7.335938 2.351562 -7.613281 2.8125 -7.8125 C 3.28125 -8.019531 3.804688 -8.125 4.390625 -8.125 C 4.867188 -8.125 5.3125 -8.039062 5.71875 -7.875 C 6.125 -7.71875 6.472656 -7.488281 6.765625 -7.1875 C 7.066406 -6.882812 7.300781 -6.507812 7.46875 -6.0625 C 7.632812 -5.613281 7.71875 -5.109375 7.71875 -4.546875 C 7.71875 -4.328125 7.691406 -4.179688 7.640625 -4.109375 C 7.597656 -4.035156 7.515625 -4 7.390625 -4 L 2.046875 -4 C 2.054688 -3.488281 2.125 -3.046875 2.25 -2.671875 C 2.375 -2.296875 2.546875 -1.984375 2.765625 -1.734375 C 2.984375 -1.484375 3.242188 -1.296875 3.546875 -1.171875 C 3.859375 -1.054688 4.203125 -1 4.578125 -1 C 4.929688 -1 5.234375 -1.035156 5.484375 -1.109375 C 5.742188 -1.191406 5.96875 -1.28125 6.15625 -1.375 C 6.34375 -1.46875 6.492188 -1.554688 6.609375 -1.640625 C 6.734375 -1.722656 6.84375 -1.765625 6.9375 -1.765625 C 7.050781 -1.765625 7.140625 -1.722656 7.203125 -1.640625 Z M 7.59375 -1.125 "></path></g></g></g><g fill="#000000" fill-opacity="1"><g transform="translate(218.085737, 126.160298)"><g><path d="M 3.5625 0.125 C 2.9375 0.125 2.453125 -0.0507812 2.109375 -0.40625 C 1.773438 -0.757812 1.609375 -1.265625 1.609375 -1.921875 L 1.609375 -6.8125 L 0.640625 -6.8125 C 0.554688 -6.8125 0.484375 -6.835938 0.421875 -6.890625 C 0.367188 -6.941406 0.34375 -7.019531 0.34375 -7.125 L 0.34375 -7.6875 L 1.65625 -7.84375 L 1.96875 -10.328125 C 1.988281 -10.398438 2.023438 -10.460938 2.078125 -10.515625 C 2.128906 -10.566406 2.203125 -10.59375 2.296875 -10.59375 L 3 -10.59375 L 3 -7.828125 L 5.3125 -7.828125 L 5.3125 -6.8125 L 3 -6.8125 L 3 -2.015625 C 3 -1.679688 3.082031 -1.429688 3.25 -1.265625 C 3.414062 -1.109375 3.625 -1.03125 3.875 -1.03125 C 4.03125 -1.03125 4.160156 -1.046875 4.265625 -1.078125 C 4.367188 -1.117188 4.457031 -1.160156 4.53125 -1.203125 C 4.613281 -1.253906 4.679688 -1.300781 4.734375 -1.34375 C 4.796875 -1.382812 4.847656 -1.40625 4.890625 -1.40625 C 4.960938 -1.40625 5.03125 -1.359375 5.09375 -1.265625 L 5.5 -0.59375 C 5.257812 -0.375 4.96875 -0.195312 4.625 -0.0625 C 4.28125 0.0625 3.925781 0.125 3.5625 0.125 Z M 3.5625 0.125 "></path></g></g></g><g fill="#000000" fill-opacity="1"><g transform="translate(223.742661, 126.160298)"><g><path d="M 3.5625 0.125 C 2.9375 0.125 2.453125 -0.0507812 2.109375 -0.40625 C 1.773438 -0.757812 1.609375 -1.265625 1.609375 -1.921875 L 1.609375 -6.8125 L 0.640625 -6.8125 C 0.554688 -6.8125 0.484375 -6.835938 0.421875 -6.890625 C 0.367188 -6.941406 0.34375 -7.019531 0.34375 -7.125 L 0.34375 -7.6875 L 1.65625 -7.84375 L 1.96875 -10.328125 C 1.988281 -10.398438 2.023438 -10.460938 2.078125 -10.515625 C 2.128906 -10.566406 2.203125 -10.59375 2.296875 -10.59375 L 3 -10.59375 L 3 -7.828125 L 5.3125 -7.828125 L 5.3125 -6.8125 L 3 -6.8125 L 3 -2.015625 C 3 -1.679688 3.082031 -1.429688 3.25 -1.265625 C 3.414062 -1.109375 3.625 -1.03125 3.875 -1.03125 C 4.03125 -1.03125 4.160156 -1.046875 4.265625 -1.078125 C 4.367188 -1.117188 4.457031 -1.160156 4.53125 -1.203125 C 4.613281 -1.253906 4.679688 -1.300781 4.734375 -1.34375 C 4.796875 -1.382812 4.847656 -1.40625 4.890625 -1.40625 C 4.960938 -1.40625 5.03125 -1.359375 5.09375 -1.265625 L 5.5 -0.59375 C 5.257812 -0.375 4.96875 -0.195312 4.625 -0.0625 C 4.28125 0.0625 3.925781 0.125 3.5625 0.125 Z M 3.5625 0.125 "></path></g></g></g><g fill="#000000" fill-opacity="1"><g transform="translate(229.399586, 126.160298)"><g><path d="M 6.46875 -4.875 C 6.46875 -5.195312 6.421875 -5.492188 6.328125 -5.765625 C 6.234375 -6.035156 6.097656 -6.269531 5.921875 -6.46875 C 5.742188 -6.664062 5.53125 -6.816406 5.28125 -6.921875 C 5.03125 -7.023438 4.742188 -7.078125 4.421875 -7.078125 C 3.742188 -7.078125 3.207031 -6.878906 2.8125 -6.484375 C 2.425781 -6.097656 2.1875 -5.5625 2.09375 -4.875 Z M 7.59375 -1.125 C 7.425781 -0.914062 7.21875 -0.734375 6.96875 -0.578125 C 6.726562 -0.421875 6.46875 -0.289062 6.1875 -0.1875 C 5.914062 -0.09375 5.632812 -0.0195312 5.34375 0.03125 C 5.050781 0.0820312 4.757812 0.109375 4.46875 0.109375 C 3.914062 0.109375 3.40625 0.015625 2.9375 -0.171875 C 2.46875 -0.359375 2.0625 -0.628906 1.71875 -0.984375 C 1.382812 -1.347656 1.125 -1.796875 0.9375 -2.328125 C 0.75 -2.859375 0.65625 -3.46875 0.65625 -4.15625 C 0.65625 -4.71875 0.738281 -5.238281 0.90625 -5.71875 C 1.082031 -6.207031 1.328125 -6.628906 1.640625 -6.984375 C 1.960938 -7.335938 2.351562 -7.613281 2.8125 -7.8125 C 3.28125 -8.019531 3.804688 -8.125 4.390625 -8.125 C 4.867188 -8.125 5.3125 -8.039062 5.71875 -7.875 C 6.125 -7.71875 6.472656 -7.488281 6.765625 -7.1875 C 7.066406 -6.882812 7.300781 -6.507812 7.46875 -6.0625 C 7.632812 -5.613281 7.71875 -5.109375 7.71875 -4.546875 C 7.71875 -4.328125 7.691406 -4.179688 7.640625 -4.109375 C 7.597656 -4.035156 7.515625 -4 7.390625 -4 L 2.046875 -4 C 2.054688 -3.488281 2.125 -3.046875 2.25 -2.671875 C 2.375 -2.296875 2.546875 -1.984375 2.765625 -1.734375 C 2.984375 -1.484375 3.242188 -1.296875 3.546875 -1.171875 C 3.859375 -1.054688 4.203125 -1 4.578125 -1 C 4.929688 -1 5.234375 -1.035156 5.484375 -1.109375 C 5.742188 -1.191406 5.96875 -1.28125 6.15625 -1.375 C 6.34375 -1.46875 6.492188 -1.554688 6.609375 -1.640625 C 6.734375 -1.722656 6.84375 -1.765625 6.9375 -1.765625 C 7.050781 -1.765625 7.140625 -1.722656 7.203125 -1.640625 Z M 7.59375 -1.125 "></path></g></g></g><g fill="#000000" fill-opacity="1"><g transform="translate(237.731116, 126.160298)"><g><path d="M 2.453125 -6.390625 C 2.703125 -6.941406 3.007812 -7.367188 3.375 -7.671875 C 3.738281 -7.984375 4.1875 -8.140625 4.71875 -8.140625 C 4.894531 -8.140625 5.054688 -8.117188 5.203125 -8.078125 C 5.359375 -8.046875 5.5 -7.988281 5.625 -7.90625 L 5.53125 -6.859375 C 5.488281 -6.722656 5.40625 -6.65625 5.28125 -6.65625 C 5.207031 -6.65625 5.097656 -6.671875 4.953125 -6.703125 C 4.816406 -6.734375 4.660156 -6.75 4.484375 -6.75 C 4.234375 -6.75 4.007812 -6.710938 3.8125 -6.640625 C 3.613281 -6.566406 3.4375 -6.457031 3.28125 -6.3125 C 3.125 -6.164062 2.984375 -5.984375 2.859375 -5.765625 C 2.734375 -5.554688 2.625 -5.316406 2.53125 -5.046875 L 2.53125 0 L 1.109375 0 L 1.109375 -8 L 1.921875 -8 C 2.066406 -8 2.164062 -7.96875 2.21875 -7.90625 C 2.28125 -7.84375 2.320312 -7.742188 2.34375 -7.609375 Z M 2.453125 -6.390625 "></path></g></g></g><g fill="#000000" fill-opacity="1"><g transform="translate(335.111273, 126.160298)"><g><path d="M 10.625 -5.4375 L 10.625 -1.09375 C 10.0625 -0.6875 9.457031 -0.378906 8.8125 -0.171875 C 8.164062 0.0234375 7.457031 0.125 6.6875 0.125 C 5.78125 0.125 4.957031 -0.015625 4.21875 -0.296875 C 3.488281 -0.578125 2.863281 -0.96875 2.34375 -1.46875 C 1.832031 -1.976562 1.4375 -2.585938 1.15625 -3.296875 C 0.875 -4.015625 0.734375 -4.800781 0.734375 -5.65625 C 0.734375 -6.507812 0.867188 -7.289062 1.140625 -8 C 1.410156 -8.71875 1.796875 -9.328125 2.296875 -9.828125 C 2.796875 -10.335938 3.40625 -10.734375 4.125 -11.015625 C 4.84375 -11.296875 5.644531 -11.4375 6.53125 -11.4375 C 6.976562 -11.4375 7.390625 -11.398438 7.765625 -11.328125 C 8.148438 -11.265625 8.503906 -11.171875 8.828125 -11.046875 C 9.160156 -10.921875 9.460938 -10.769531 9.734375 -10.59375 C 10.015625 -10.425781 10.28125 -10.226562 10.53125 -10 L 10.09375 -9.3125 C 10.019531 -9.207031 9.929688 -9.140625 9.828125 -9.109375 C 9.722656 -9.078125 9.601562 -9.101562 9.46875 -9.1875 C 9.34375 -9.257812 9.195312 -9.347656 9.03125 -9.453125 C 8.875 -9.554688 8.675781 -9.65625 8.4375 -9.75 C 8.207031 -9.851562 7.929688 -9.9375 7.609375 -10 C 7.296875 -10.070312 6.921875 -10.109375 6.484375 -10.109375 C 5.847656 -10.109375 5.269531 -10.003906 4.75 -9.796875 C 4.238281 -9.585938 3.800781 -9.289062 3.4375 -8.90625 C 3.070312 -8.519531 2.789062 -8.050781 2.59375 -7.5 C 2.394531 -6.945312 2.296875 -6.332031 2.296875 -5.65625 C 2.296875 -4.9375 2.394531 -4.296875 2.59375 -3.734375 C 2.800781 -3.179688 3.09375 -2.707031 3.46875 -2.3125 C 3.851562 -1.925781 4.3125 -1.628906 4.84375 -1.421875 C 5.382812 -1.210938 5.988281 -1.109375 6.65625 -1.109375 C 7.175781 -1.109375 7.640625 -1.164062 8.046875 -1.28125 C 8.453125 -1.40625 8.851562 -1.570312 9.25 -1.78125 L 9.25 -4.265625 L 7.484375 -4.265625 C 7.390625 -4.265625 7.3125 -4.289062 7.25 -4.34375 C 7.1875 -4.40625 7.15625 -4.476562 7.15625 -4.5625 L 7.15625 -5.4375 Z M 10.625 -5.4375 "></path></g></g></g><g fill="#000000" fill-opacity="1"><g transform="translate(346.638136, 126.160298)"><g><path d="M 4.484375 -8.125 C 5.066406 -8.125 5.59375 -8.023438 6.0625 -7.828125 C 6.53125 -7.628906 6.925781 -7.351562 7.25 -7 C 7.582031 -6.644531 7.835938 -6.210938 8.015625 -5.703125 C 8.191406 -5.191406 8.28125 -4.625 8.28125 -4 C 8.28125 -3.363281 8.191406 -2.789062 8.015625 -2.28125 C 7.835938 -1.78125 7.582031 -1.351562 7.25 -1 C 6.925781 -0.644531 6.53125 -0.367188 6.0625 -0.171875 C 5.59375 0.015625 5.066406 0.109375 4.484375 0.109375 C 3.890625 0.109375 3.359375 0.015625 2.890625 -0.171875 C 2.421875 -0.367188 2.019531 -0.644531 1.6875 -1 C 1.351562 -1.351562 1.097656 -1.78125 0.921875 -2.28125 C 0.742188 -2.789062 0.65625 -3.363281 0.65625 -4 C 0.65625 -4.625 0.742188 -5.191406 0.921875 -5.703125 C 1.097656 -6.210938 1.351562 -6.644531 1.6875 -7 C 2.019531 -7.351562 2.421875 -7.628906 2.890625 -7.828125 C 3.359375 -8.023438 3.890625 -8.125 4.484375 -8.125 Z M 4.484375 -0.984375 C 5.273438 -0.984375 5.863281 -1.25 6.25 -1.78125 C 6.632812 -2.3125 6.828125 -3.050781 6.828125 -4 C 6.828125 -4.945312 6.632812 -5.6875 6.25 -6.21875 C 5.863281 -6.75 5.273438 -7.015625 4.484375 -7.015625 C 4.078125 -7.015625 3.722656 -6.945312 3.421875 -6.8125 C 3.128906 -6.675781 2.882812 -6.476562 2.6875 -6.21875 C 2.5 -5.957031 2.351562 -5.640625 2.25 -5.265625 C 2.15625 -4.890625 2.109375 -4.46875 2.109375 -4 C 2.109375 -3.050781 2.300781 -2.3125 2.6875 -1.78125 C 3.082031 -1.25 3.679688 -0.984375 4.484375 -0.984375 Z M 4.484375 -0.984375 "></path></g></g></g><g fill="#000000" fill-opacity="1"><g transform="translate(355.585061, 126.160298)"><g><path d="M 4.484375 -8.125 C 5.066406 -8.125 5.59375 -8.023438 6.0625 -7.828125 C 6.53125 -7.628906 6.925781 -7.351562 7.25 -7 C 7.582031 -6.644531 7.835938 -6.210938 8.015625 -5.703125 C 8.191406 -5.191406 8.28125 -4.625 8.28125 -4 C 8.28125 -3.363281 8.191406 -2.789062 8.015625 -2.28125 C 7.835938 -1.78125 7.582031 -1.351562 7.25 -1 C 6.925781 -0.644531 6.53125 -0.367188 6.0625 -0.171875 C 5.59375 0.015625 5.066406 0.109375 4.484375 0.109375 C 3.890625 0.109375 3.359375 0.015625 2.890625 -0.171875 C 2.421875 -0.367188 2.019531 -0.644531 1.6875 -1 C 1.351562 -1.351562 1.097656 -1.78125 0.921875 -2.28125 C 0.742188 -2.789062 0.65625 -3.363281 0.65625 -4 C 0.65625 -4.625 0.742188 -5.191406 0.921875 -5.703125 C 1.097656 -6.210938 1.351562 -6.644531 1.6875 -7 C 2.019531 -7.351562 2.421875 -7.628906 2.890625 -7.828125 C 3.359375 -8.023438 3.890625 -8.125 4.484375 -8.125 Z M 4.484375 -0.984375 C 5.273438 -0.984375 5.863281 -1.25 6.25 -1.78125 C 6.632812 -2.3125 6.828125 -3.050781 6.828125 -4 C 6.828125 -4.945312 6.632812 -5.6875 6.25 -6.21875 C 5.863281 -6.75 5.273438 -7.015625 4.484375 -7.015625 C 4.078125 -7.015625 3.722656 -6.945312 3.421875 -6.8125 C 3.128906 -6.675781 2.882812 -6.476562 2.6875 -6.21875 C 2.5 -5.957031 2.351562 -5.640625 2.25 -5.265625 C 2.15625 -4.890625 2.109375 -4.46875 2.109375 -4 C 2.109375 -3.050781 2.300781 -2.3125 2.6875 -1.78125 C 3.082031 -1.25 3.679688 -0.984375 4.484375 -0.984375 Z M 4.484375 -0.984375 "></path></g></g></g><g fill="#000000" fill-opacity="1"><g transform="translate(364.531985, 126.160298)"><g><path d="M 6.328125 -6.09375 C 6.054688 -6.445312 5.769531 -6.691406 5.46875 -6.828125 C 5.164062 -6.960938 4.820312 -7.03125 4.4375 -7.03125 C 3.695312 -7.03125 3.125 -6.765625 2.71875 -6.234375 C 2.320312 -5.703125 2.125 -4.945312 2.125 -3.96875 C 2.125 -3.445312 2.171875 -3 2.265625 -2.625 C 2.359375 -2.257812 2.488281 -1.957031 2.65625 -1.71875 C 2.832031 -1.476562 3.046875 -1.300781 3.296875 -1.1875 C 3.546875 -1.082031 3.832031 -1.03125 4.15625 -1.03125 C 4.625 -1.03125 5.03125 -1.132812 5.375 -1.34375 C 5.71875 -1.550781 6.035156 -1.847656 6.328125 -2.234375 Z M 7.71875 -11.625 L 7.71875 0 L 6.890625 0 C 6.691406 0 6.566406 -0.0976562 6.515625 -0.296875 L 6.390625 -1.265625 C 6.046875 -0.847656 5.65625 -0.515625 5.21875 -0.265625 C 4.78125 -0.015625 4.273438 0.109375 3.703125 0.109375 C 3.242188 0.109375 2.828125 0.0195312 2.453125 -0.15625 C 2.078125 -0.332031 1.757812 -0.585938 1.5 -0.921875 C 1.238281 -1.265625 1.035156 -1.691406 0.890625 -2.203125 C 0.742188 -2.710938 0.671875 -3.300781 0.671875 -3.96875 C 0.671875 -4.5625 0.75 -5.109375 0.90625 -5.609375 C 1.070312 -6.117188 1.300781 -6.5625 1.59375 -6.9375 C 1.882812 -7.3125 2.242188 -7.601562 2.671875 -7.8125 C 3.109375 -8.03125 3.59375 -8.140625 4.125 -8.140625 C 4.613281 -8.140625 5.03125 -8.054688 5.375 -7.890625 C 5.726562 -7.722656 6.046875 -7.492188 6.328125 -7.203125 L 6.328125 -11.625 Z M 7.71875 -11.625 "></path></g></g></g><g fill="#000000" fill-opacity="1"><g transform="translate(467.266792, 126.160298)"><g><path d="M 10.625 -5.4375 L 10.625 -1.09375 C 10.0625 -0.6875 9.457031 -0.378906 8.8125 -0.171875 C 8.164062 0.0234375 7.457031 0.125 6.6875 0.125 C 5.78125 0.125 4.957031 -0.015625 4.21875 -0.296875 C 3.488281 -0.578125 2.863281 -0.96875 2.34375 -1.46875 C 1.832031 -1.976562 1.4375 -2.585938 1.15625 -3.296875 C 0.875 -4.015625 0.734375 -4.800781 0.734375 -5.65625 C 0.734375 -6.507812 0.867188 -7.289062 1.140625 -8 C 1.410156 -8.71875 1.796875 -9.328125 2.296875 -9.828125 C 2.796875 -10.335938 3.40625 -10.734375 4.125 -11.015625 C 4.84375 -11.296875 5.644531 -11.4375 6.53125 -11.4375 C 6.976562 -11.4375 7.390625 -11.398438 7.765625 -11.328125 C 8.148438 -11.265625 8.503906 -11.171875 8.828125 -11.046875 C 9.160156 -10.921875 9.460938 -10.769531 9.734375 -10.59375 C 10.015625 -10.425781 10.28125 -10.226562 10.53125 -10 L 10.09375 -9.3125 C 10.019531 -9.207031 9.929688 -9.140625 9.828125 -9.109375 C 9.722656 -9.078125 9.601562 -9.101562 9.46875 -9.1875 C 9.34375 -9.257812 9.195312 -9.347656 9.03125 -9.453125 C 8.875 -9.554688 8.675781 -9.65625 8.4375 -9.75 C 8.207031 -9.851562 7.929688 -9.9375 7.609375 -10 C 7.296875 -10.070312 6.921875 -10.109375 6.484375 -10.109375 C 5.847656 -10.109375 5.269531 -10.003906 4.75 -9.796875 C 4.238281 -9.585938 3.800781 -9.289062 3.4375 -8.90625 C 3.070312 -8.519531 2.789062 -8.050781 2.59375 -7.5 C 2.394531 -6.945312 2.296875 -6.332031 2.296875 -5.65625 C 2.296875 -4.9375 2.394531 -4.296875 2.59375 -3.734375 C 2.800781 -3.179688 3.09375 -2.707031 3.46875 -2.3125 C 3.851562 -1.925781 4.3125 -1.628906 4.84375 -1.421875 C 5.382812 -1.210938 5.988281 -1.109375 6.65625 -1.109375 C 7.175781 -1.109375 7.640625 -1.164062 8.046875 -1.28125 C 8.453125 -1.40625 8.851562 -1.570312 9.25 -1.78125 L 9.25 -4.265625 L 7.484375 -4.265625 C 7.390625 -4.265625 7.3125 -4.289062 7.25 -4.34375 C 7.1875 -4.40625 7.15625 -4.476562 7.15625 -4.5625 L 7.15625 -5.4375 Z M 10.625 -5.4375 "></path></g></g></g><g fill="#000000" fill-opacity="1"><g transform="translate(478.793655, 126.160298)"><g><path d="M 2.453125 -6.390625 C 2.703125 -6.941406 3.007812 -7.367188 3.375 -7.671875 C 3.738281 -7.984375 4.1875 -8.140625 4.71875 -8.140625 C 4.894531 -8.140625 5.054688 -8.117188 5.203125 -8.078125 C 5.359375 -8.046875 5.5 -7.988281 5.625 -7.90625 L 5.53125 -6.859375 C 5.488281 -6.722656 5.40625 -6.65625 5.28125 -6.65625 C 5.207031 -6.65625 5.097656 -6.671875 4.953125 -6.703125 C 4.816406 -6.734375 4.660156 -6.75 4.484375 -6.75 C 4.234375 -6.75 4.007812 -6.710938 3.8125 -6.640625 C 3.613281 -6.566406 3.4375 -6.457031 3.28125 -6.3125 C 3.125 -6.164062 2.984375 -5.984375 2.859375 -5.765625 C 2.734375 -5.554688 2.625 -5.316406 2.53125 -5.046875 L 2.53125 0 L 1.109375 0 L 1.109375 -8 L 1.921875 -8 C 2.066406 -8 2.164062 -7.96875 2.21875 -7.90625 C 2.28125 -7.84375 2.320312 -7.742188 2.34375 -7.609375 Z M 2.453125 -6.390625 "></path></g></g></g><g fill="#000000" fill-opacity="1"><g transform="translate(484.537364, 126.160298)"><g><path d="M 6.46875 -4.875 C 6.46875 -5.195312 6.421875 -5.492188 6.328125 -5.765625 C 6.234375 -6.035156 6.097656 -6.269531 5.921875 -6.46875 C 5.742188 -6.664062 5.53125 -6.816406 5.28125 -6.921875 C 5.03125 -7.023438 4.742188 -7.078125 4.421875 -7.078125 C 3.742188 -7.078125 3.207031 -6.878906 2.8125 -6.484375 C 2.425781 -6.097656 2.1875 -5.5625 2.09375 -4.875 Z M 7.59375 -1.125 C 7.425781 -0.914062 7.21875 -0.734375 6.96875 -0.578125 C 6.726562 -0.421875 6.46875 -0.289062 6.1875 -0.1875 C 5.914062 -0.09375 5.632812 -0.0195312 5.34375 0.03125 C 5.050781 0.0820312 4.757812 0.109375 4.46875 0.109375 C 3.914062 0.109375 3.40625 0.015625 2.9375 -0.171875 C 2.46875 -0.359375 2.0625 -0.628906 1.71875 -0.984375 C 1.382812 -1.347656 1.125 -1.796875 0.9375 -2.328125 C 0.75 -2.859375 0.65625 -3.46875 0.65625 -4.15625 C 0.65625 -4.71875 0.738281 -5.238281 0.90625 -5.71875 C 1.082031 -6.207031 1.328125 -6.628906 1.640625 -6.984375 C 1.960938 -7.335938 2.351562 -7.613281 2.8125 -7.8125 C 3.28125 -8.019531 3.804688 -8.125 4.390625 -8.125 C 4.867188 -8.125 5.3125 -8.039062 5.71875 -7.875 C 6.125 -7.71875 6.472656 -7.488281 6.765625 -7.1875 C 7.066406 -6.882812 7.300781 -6.507812 7.46875 -6.0625 C 7.632812 -5.613281 7.71875 -5.109375 7.71875 -4.546875 C 7.71875 -4.328125 7.691406 -4.179688 7.640625 -4.109375 C 7.597656 -4.035156 7.515625 -4 7.390625 -4 L 2.046875 -4 C 2.054688 -3.488281 2.125 -3.046875 2.25 -2.671875 C 2.375 -2.296875 2.546875 -1.984375 2.765625 -1.734375 C 2.984375 -1.484375 3.242188 -1.296875 3.546875 -1.171875 C 3.859375 -1.054688 4.203125 -1 4.578125 -1 C 4.929688 -1 5.234375 -1.035156 5.484375 -1.109375 C 5.742188 -1.191406 5.96875 -1.28125 6.15625 -1.375 C 6.34375 -1.46875 6.492188 -1.554688 6.609375 -1.640625 C 6.734375 -1.722656 6.84375 -1.765625 6.9375 -1.765625 C 7.050781 -1.765625 7.140625 -1.722656 7.203125 -1.640625 Z M 7.59375 -1.125 "></path></g></g></g><g fill="#000000" fill-opacity="1"><g transform="translate(492.868894, 126.160298)"><g><path d="M 5.4375 -3.59375 C 4.789062 -3.570312 4.238281 -3.519531 3.78125 -3.4375 C 3.332031 -3.363281 2.960938 -3.257812 2.671875 -3.125 C 2.390625 -2.988281 2.179688 -2.832031 2.046875 -2.65625 C 1.921875 -2.476562 1.859375 -2.28125 1.859375 -2.0625 C 1.859375 -1.851562 1.890625 -1.671875 1.953125 -1.515625 C 2.023438 -1.359375 2.117188 -1.234375 2.234375 -1.140625 C 2.359375 -1.046875 2.5 -0.972656 2.65625 -0.921875 C 2.820312 -0.878906 3 -0.859375 3.1875 -0.859375 C 3.425781 -0.859375 3.648438 -0.882812 3.859375 -0.9375 C 4.066406 -0.988281 4.257812 -1.0625 4.4375 -1.15625 C 4.613281 -1.25 4.785156 -1.359375 4.953125 -1.484375 C 5.117188 -1.617188 5.28125 -1.769531 5.4375 -1.9375 Z M 0.90625 -6.859375 C 1.34375 -7.285156 1.816406 -7.601562 2.328125 -7.8125 C 2.835938 -8.03125 3.40625 -8.140625 4.03125 -8.140625 C 4.476562 -8.140625 4.875 -8.0625 5.21875 -7.90625 C 5.570312 -7.757812 5.863281 -7.554688 6.09375 -7.296875 C 6.332031 -7.035156 6.507812 -6.71875 6.625 -6.34375 C 6.75 -5.96875 6.8125 -5.554688 6.8125 -5.109375 L 6.8125 0 L 6.1875 0 C 6.050781 0 5.945312 -0.0195312 5.875 -0.0625 C 5.800781 -0.113281 5.742188 -0.203125 5.703125 -0.328125 L 5.546875 -1.09375 C 5.335938 -0.894531 5.128906 -0.71875 4.921875 -0.5625 C 4.722656 -0.414062 4.515625 -0.289062 4.296875 -0.1875 C 4.078125 -0.09375 3.84375 -0.0195312 3.59375 0.03125 C 3.34375 0.09375 3.066406 0.125 2.765625 0.125 C 2.453125 0.125 2.15625 0.0820312 1.875 0 C 1.601562 -0.09375 1.367188 -0.222656 1.171875 -0.390625 C 0.972656 -0.566406 0.8125 -0.785156 0.6875 -1.046875 C 0.570312 -1.316406 0.515625 -1.632812 0.515625 -2 C 0.515625 -2.3125 0.597656 -2.613281 0.765625 -2.90625 C 0.941406 -3.195312 1.222656 -3.457031 1.609375 -3.6875 C 2.003906 -3.914062 2.515625 -4.097656 3.140625 -4.234375 C 3.765625 -4.378906 4.53125 -4.460938 5.4375 -4.484375 L 5.4375 -5.109375 C 5.4375 -5.734375 5.300781 -6.203125 5.03125 -6.515625 C 4.769531 -6.835938 4.378906 -7 3.859375 -7 C 3.515625 -7 3.222656 -6.953125 2.984375 -6.859375 C 2.753906 -6.773438 2.550781 -6.679688 2.375 -6.578125 C 2.207031 -6.472656 2.0625 -6.375 1.9375 -6.28125 C 1.820312 -6.195312 1.703125 -6.15625 1.578125 -6.15625 C 1.484375 -6.15625 1.398438 -6.175781 1.328125 -6.21875 C 1.265625 -6.269531 1.207031 -6.335938 1.15625 -6.421875 Z M 0.90625 -6.859375 "></path></g></g></g><g fill="#000000" fill-opacity="1"><g transform="translate(500.711258, 126.160298)"><g><path d="M 3.5625 0.125 C 2.9375 0.125 2.453125 -0.0507812 2.109375 -0.40625 C 1.773438 -0.757812 1.609375 -1.265625 1.609375 -1.921875 L 1.609375 -6.8125 L 0.640625 -6.8125 C 0.554688 -6.8125 0.484375 -6.835938 0.421875 -6.890625 C 0.367188 -6.941406 0.34375 -7.019531 0.34375 -7.125 L 0.34375 -7.6875 L 1.65625 -7.84375 L 1.96875 -10.328125 C 1.988281 -10.398438 2.023438 -10.460938 2.078125 -10.515625 C 2.128906 -10.566406 2.203125 -10.59375 2.296875 -10.59375 L 3 -10.59375 L 3 -7.828125 L 5.3125 -7.828125 L 5.3125 -6.8125 L 3 -6.8125 L 3 -2.015625 C 3 -1.679688 3.082031 -1.429688 3.25 -1.265625 C 3.414062 -1.109375 3.625 -1.03125 3.875 -1.03125 C 4.03125 -1.03125 4.160156 -1.046875 4.265625 -1.078125 C 4.367188 -1.117188 4.457031 -1.160156 4.53125 -1.203125 C 4.613281 -1.253906 4.679688 -1.300781 4.734375 -1.34375 C 4.796875 -1.382812 4.847656 -1.40625 4.890625 -1.40625 C 4.960938 -1.40625 5.03125 -1.359375 5.09375 -1.265625 L 5.5 -0.59375 C 5.257812 -0.375 4.96875 -0.195312 4.625 -0.0625 C 4.28125 0.0625 3.925781 0.125 3.5625 0.125 Z M 3.5625 0.125 "></path></g></g></g></svg>